<svg width="1439" height="430" viewBox="0 0 1439 430" fill="none" xmlns="http://www.w3.org/2000/svg">
<g clip-path="url(#clip0_849_1580)">
<rect width="1439" height="430" fill="black"/>
<g clip-path="url(#clip1_849_1580)">
<path d="M64.0507 389.734C73.2931 394.11 80.9633 400.734 86.1766 408.839C91.39 416.945 93.9348 426.202 93.5165 435.545C93.7517 443.408 92.0656 451.222 88.5755 458.443C85.0853 465.664 79.8745 472.117 73.3079 477.353C59.706 488.244 41.9477 494.052 23.6956 493.579H-71.3545V293.46H17.1018C34.9024 293.052 52.209 298.718 65.5042 309.307C71.8949 314.365 76.9668 320.613 80.3641 327.612C83.7615 334.611 85.4016 342.191 85.1677 349.818C85.4166 357.488 83.6335 365.102 79.9638 372.039C76.2942 378.976 70.8406 385.039 64.0507 389.734ZM16.9806 330.239H-27.2475V374.319H16.9806C20.1696 374.384 23.3387 373.855 26.2865 372.765C29.2343 371.676 31.8952 370.05 34.102 367.991C36.3745 365.916 38.1564 363.453 39.3414 360.749C40.5264 358.044 41.0911 355.155 41.0002 352.252C41.107 349.356 40.5615 346.471 39.3975 343.768C38.2335 341.064 36.4739 338.597 34.2231 336.513C32.0141 334.427 29.3345 332.784 26.3619 331.693C23.3892 330.602 20.1922 330.088 16.9806 330.185V330.239ZM23.6956 456.747C27.1422 456.838 30.5725 456.289 33.7696 455.135C36.9668 453.98 39.8617 452.245 42.2705 450.04C44.7152 447.787 46.6289 445.118 47.8969 442.191C49.1649 439.265 49.7612 436.14 49.6517 433.003C49.7376 429.909 49.1293 426.831 47.8614 423.951C46.5936 421.071 44.6922 418.448 42.2705 416.236C39.8617 414.03 36.9668 412.296 33.7696 411.141C30.5725 409.987 27.1422 409.438 23.6956 409.529H-27.2475V456.747H23.6956Z" fill="#E73D26"/>
<path d="M245.321 493.633L200.004 424.078H166.546V493.633H122.257V293.513H211.983C221.808 293.362 231.563 295.012 240.647 298.36C249.731 301.709 257.953 306.686 264.803 312.985C271.831 319.063 277.39 326.365 281.136 334.44C284.882 342.515 286.736 351.191 286.584 359.931C286.551 372.264 282.332 384.297 274.483 394.438C266.772 404.915 255.879 413.208 243.081 418.345L292.755 494.065L245.321 493.633ZM166.667 330.184V389.408H212.165C216.228 389.432 220.247 388.666 223.945 387.162C227.644 385.659 230.932 383.454 233.582 380.701C239.512 374.994 242.724 367.448 242.536 359.661C242.744 351.903 239.527 344.384 233.582 338.73C230.905 336.017 227.608 333.851 223.913 332.376C220.218 330.902 216.212 330.154 212.165 330.184H166.667Z" fill="#E73D26"/>
<path d="M466.34 493.633L452.122 457.557H360.036L346.543 493.633H298.807L377.461 293.514H432.277L511.355 493.903L466.34 493.633ZM374.436 420.616H437.54L405.171 338.73L374.436 420.616Z" fill="#E73D26"/>
<path d="M662.673 293.24H706.902V493.63H673.261L577.182 371.124V493.63H532.955V293.511H566.535L662.673 415.583V293.24Z" fill="#E73D26"/>
<path d="M837.531 293.245C851.96 292.893 866.31 295.275 879.637 300.235C892.963 305.194 904.965 312.618 914.854 322.019C925.004 331.493 932.957 342.67 938.253 354.905C943.549 367.139 946.083 380.19 945.71 393.305C946.091 406.428 943.56 419.489 938.264 431.734C932.968 443.978 925.012 455.164 914.854 464.644C905.003 474.037 893.046 481.465 879.763 486.442C866.48 491.42 852.171 493.833 837.773 493.526H748.773V293.407L837.531 293.245ZM837.531 455.882C846.364 456.174 855.166 454.777 863.346 451.782C871.527 448.788 878.898 444.267 884.965 438.521C897.422 426.207 903.944 409.998 903.116 393.413C903.934 376.845 897.412 360.656 884.965 348.359C878.898 342.613 871.527 338.091 863.346 335.097C855.166 332.103 846.364 330.705 837.531 330.997H792.698V455.882H837.531Z" fill="#E73D26"/>
<path d="M1045.71 497.635C1025.98 498.232 1006.49 493.603 989.689 484.33C974.807 475.794 963.542 463.059 957.683 448.146L995.437 428.35C1004.19 448.795 1021.39 459.017 1047.05 459.017C1056.61 459.686 1066.16 457.58 1074.27 453.014C1076.97 451.28 1079.16 448.997 1080.66 446.353C1082.17 443.709 1082.94 440.782 1082.92 437.815C1082.95 434.51 1081.99 431.258 1080.12 428.403C1078.26 425.547 1075.57 423.194 1072.34 421.59C1060.37 415.946 1047.67 411.658 1034.52 408.825C1025.87 406.594 1017.36 403.921 1009.05 400.82C1001.7 397.883 994.727 394.257 988.237 390.003C981.418 385.622 975.962 379.758 972.385 372.966C968.597 365.422 966.737 357.219 966.94 348.952C966.588 340.736 968.359 332.559 972.116 325.055C975.872 317.551 981.512 310.922 988.6 305.683C1003.17 294.807 1021.66 289.04 1040.63 289.457C1057.54 289.159 1074.18 293.296 1088.49 301.356C1102.47 309.48 1113.62 320.948 1120.68 334.456L1083.53 353.603C1074.57 336.458 1060.24 327.858 1040.63 327.858C1032.94 327.408 1025.3 329.316 1018.97 333.267C1016.49 334.954 1014.49 337.141 1013.13 339.651C1011.78 342.16 1011.1 344.921 1011.17 347.708C1011.1 350.716 1011.87 353.691 1013.4 356.371C1014.93 359.05 1017.18 361.351 1019.94 363.068C1030.44 368.79 1041.84 373.075 1053.76 375.778L1069.31 380.213C1072.82 381.295 1077.6 382.918 1083.71 385.081C1088.6 386.778 1093.31 388.841 1097.81 391.247C1101.77 393.614 1105.57 396.197 1109.18 398.981C1113.02 401.816 1116.31 405.196 1118.92 408.987C1121.5 412.917 1123.53 417.113 1124.97 421.481C1126.64 426.63 1127.46 431.969 1127.39 437.329C1127.77 445.752 1125.92 454.135 1122 461.802C1118.08 469.468 1112.2 476.203 1104.83 481.463C1087.85 492.871 1066.93 498.594 1045.71 497.635Z" fill="#E73D26"/>
<path d="M1296.02 293.241V331.101H1235.51V493.739H1191.29V330.993H1130.78V293.133L1296.02 293.241Z" fill="#E73D26"/>
<path d="M1497.01 467.454C1486.27 477.244 1473.4 484.971 1459.2 490.16C1445 495.35 1429.76 497.893 1414.42 497.635C1399.09 497.902 1383.86 495.362 1369.67 490.172C1355.48 484.982 1342.62 477.251 1331.9 467.454C1320.91 457.827 1312.25 446.29 1306.45 433.556C1300.64 420.821 1297.81 407.159 1298.14 393.41C1297.81 379.67 1300.64 366.016 1306.45 353.29C1312.25 340.565 1320.92 329.038 1331.9 319.42C1342.62 309.614 1355.47 301.873 1369.66 296.674C1383.86 291.474 1399.09 288.926 1414.42 289.186C1429.77 288.938 1445 291.491 1459.21 296.69C1473.41 301.888 1486.27 309.623 1497.01 319.42C1508.06 329.003 1516.78 340.519 1522.63 353.249C1528.48 365.98 1531.34 379.651 1531.01 393.41C1531.34 407.178 1528.48 420.858 1522.63 433.597C1516.78 446.336 1508.06 457.861 1497.01 467.454ZM1362.82 440.411C1369.56 446.467 1377.62 451.23 1386.49 454.41C1395.36 457.591 1404.87 459.121 1414.42 458.909C1423.97 459.12 1433.47 457.589 1442.33 454.408C1451.19 451.228 1459.24 446.465 1465.97 440.411C1472.87 434.254 1478.28 426.895 1481.86 418.79C1485.44 410.686 1487.12 402.01 1486.79 393.302C1487.1 384.58 1485.41 375.893 1481.83 367.773C1478.25 359.654 1472.86 352.274 1465.97 346.085C1459.25 340.006 1451.21 335.22 1442.35 332.02C1433.48 328.821 1423.98 327.275 1414.42 327.479C1404.86 327.274 1395.35 328.819 1386.47 332.019C1377.6 335.218 1369.55 340.005 1362.82 346.085C1355.93 352.274 1350.54 359.654 1346.96 367.773C1343.38 375.893 1341.69 384.58 1342 393.302C1341.62 402.013 1343.26 410.7 1346.8 418.823C1350.33 426.946 1355.7 434.331 1362.57 440.519L1362.82 440.411Z" fill="#E73D26"/>
</g>
</g>
<defs>
<clipPath id="clip0_849_1580">
<rect width="1439" height="430" fill="white"/>
</clipPath>
<clipPath id="clip1_849_1580">
<rect width="2000" height="141.079" fill="white" transform="translate(-88 289)"/>
</clipPath>
</defs>
</svg>
