<svg width="269" height="47" viewBox="0 0 269 47" fill="none" xmlns="http://www.w3.org/2000/svg">
<path d="M217.035 12.9471C217.035 9.0125 217.052 5.07789 217.023 1.14329C217.018 0.459374 217.12 0.189186 217.905 0.193408C223.043 0.231403 228.185 0.2103 233.322 0.218744C234.956 0.218744 235.834 1.31638 235.21 2.53644C234.834 3.27102 234.167 3.43567 233.403 3.43144C229.371 3.423 225.335 3.45677 221.303 3.40611C220.425 3.39344 220.206 3.64253 220.231 4.49108C220.294 6.6357 220.294 8.78453 220.231 10.9291C220.206 11.7735 220.493 11.9508 221.278 11.9381C224.17 11.8917 227.066 11.9212 229.962 11.9212C230.688 11.9212 231.313 12.1366 231.684 12.8078C231.976 13.3313 231.95 13.8717 231.613 14.3656C231.186 14.9946 230.54 15.1424 229.823 15.1424C226.994 15.1382 224.161 15.1846 221.333 15.1171C220.396 15.096 220.201 15.4083 220.223 16.2696C220.282 18.3466 220.282 20.4322 220.223 22.5134C220.197 23.3704 220.396 23.6744 221.333 23.6617C225.398 23.6069 229.464 23.628 233.529 23.6449C235.032 23.6491 235.834 24.8734 235.146 26.0428C234.792 26.6465 234.184 26.8365 233.567 26.8449C228.687 26.8744 223.811 26.8744 218.931 26.8449C217.622 26.8365 217.035 26.1188 217.031 24.7594C217.023 20.8248 217.031 16.8902 217.031 12.9556V12.9471H217.035Z" fill="#0578FF"/>
<path d="M268.685 2.85733L268.562 3.1444C268.486 3.31749 268.381 3.47369 268.246 3.60456L268.229 3.62567L259.199 12.6727C258.574 13.3018 258.561 13.9181 259.165 14.5261C262.272 17.6585 265.375 20.791 268.478 23.9235C269.187 24.637 269.065 25.8697 268.178 26.3552C267.583 26.6845 266.823 26.5958 266.249 26.0259C263.091 22.885 259.92 19.7525 256.801 16.5736C256.18 15.9361 255.851 15.9994 255.264 16.5947C252.186 19.723 249.062 22.809 245.951 25.9077C245.233 26.6212 244.106 26.752 243.519 26.1948C242.932 25.6375 243.025 24.4766 243.709 23.7547C246.719 20.5631 249.721 17.363 252.748 14.1841C253.153 13.7577 253.162 13.5044 252.756 13.078C249.75 9.92442 246.774 6.74127 243.781 3.57501C243.063 2.81511 242.911 1.61193 243.481 1.05467C244.068 0.484739 245.246 0.636719 245.993 1.38396C249.13 4.50378 252.271 7.61093 255.386 10.7519C255.889 11.2585 256.184 11.2922 256.708 10.7645C259.861 7.57294 263.049 4.4109 266.232 1.24886C266.506 0.978673 266.907 0.873132 267.287 0.847802C267.891 0.814028 268.453 1.16021 268.685 1.72169C268.841 2.08476 268.845 2.49848 268.685 2.86155V2.85733Z" fill="#0578FF"/>
<path d="M166.415 12.9471C166.415 9.04628 166.436 5.14544 166.398 1.24461C166.389 0.467818 166.546 0.189185 167.394 0.193407C172.431 0.235623 177.471 0.214516 182.508 0.214516C182.736 0.214516 182.968 0.20185 183.192 0.239845C184.099 0.374939 184.737 1.05463 184.733 1.84409C184.728 2.67998 184.028 3.35545 183.078 3.43144C182.786 3.45677 182.491 3.43566 182.2 3.43566C178.332 3.43566 174.461 3.46944 170.594 3.41033C169.661 3.39767 169.463 3.69741 169.488 4.55863C169.547 6.6357 169.564 8.72121 169.484 10.7983C169.442 11.7862 169.784 11.9719 170.687 11.955C173.482 11.8959 176.276 11.9339 179.075 11.9297C179.502 11.9297 179.924 11.9297 180.308 12.1408C180.853 12.4363 181.216 12.8711 181.22 13.5255C181.22 14.2136 180.853 14.6738 180.249 14.9651C179.856 15.1593 179.434 15.1551 179.008 15.1551C176.15 15.1551 173.288 15.1762 170.425 15.1382C169.708 15.1297 169.48 15.3155 169.492 16.0585C169.534 19.0179 169.513 21.9731 169.509 24.9325C169.509 26.0386 168.876 26.8069 167.981 26.8153C167.099 26.8238 166.427 26.0597 166.423 24.9536C166.406 20.9556 166.419 16.9577 166.419 12.9598L166.415 12.9471Z" fill="#0578FF"/>
<path d="M191.738 14.0174V2.80457C191.738 2.54705 191.73 2.28531 191.738 2.02779C191.797 0.959701 192.418 0.258902 193.304 0.246236C194.157 0.233571 194.866 1.06524 194.871 2.12488C194.871 8.91757 194.896 15.7103 194.845 22.503C194.841 23.4739 195.128 23.6724 196.044 23.6597C200.076 23.609 204.108 23.6386 208.135 23.6344C208.946 23.6344 209.575 23.8877 209.946 24.6771C210.225 25.2724 210.043 25.7536 209.693 26.2096C209.3 26.7162 208.718 26.8471 208.127 26.8471C202.892 26.8597 197.661 26.8471 192.426 26.8682C191.734 26.8682 191.73 26.5135 191.734 26.0154C191.742 22.0174 191.738 18.0195 191.738 14.0216V14.0174Z" fill="#0578FF"/>
<path d="M96.259 36.3693C87.2964 42.9763 74.2978 46.5014 63.1103 46.5014C47.4184 46.5014 33.2926 40.7008 22.6075 31.05C21.7674 30.2901 22.5189 29.2558 23.5279 29.8468C35.0573 36.5551 49.3181 40.591 64.0476 40.591C73.9812 40.591 84.9069 38.5393 94.9545 34.2712C96.4701 33.6295 97.745 35.2632 96.2548 36.3693H96.259Z" fill="#1498D5"/>
<path d="M89.7292 5.08291V1.57469C89.7292 1.04276 90.1303 0.688136 90.6158 0.688136H106.312C106.793 0.667028 107.199 1.04276 107.22 1.52403C107.22 1.54091 107.22 1.55781 107.22 1.57469V4.5763C107.215 5.07868 106.789 5.73727 106.038 6.78002L97.9024 18.3939C100.925 18.3221 104.117 18.7696 106.852 20.3147C107.469 20.6651 107.638 21.1717 107.684 21.6783V25.4187C107.684 25.9296 107.123 26.5291 106.527 26.2167C101.698 23.6836 95.285 23.4092 89.9445 26.242C89.3999 26.5375 88.83 25.9465 88.83 25.4356V21.881C88.83 21.3111 88.8343 20.3358 89.4084 19.4704L98.8312 5.96101H90.6327C90.1303 5.96101 89.725 5.60639 89.725 5.07868M32.4748 26.9554H27.7001C27.2526 26.9343 26.8937 26.5882 26.8473 26.1449V1.63801C26.8473 1.1483 27.2568 0.759904 27.7676 0.759904H32.2215C32.6859 0.781013 33.0532 1.13563 33.0912 1.57891V4.78317H33.1798C34.3408 1.68867 36.5234 0.244858 39.4659 0.244858C42.4084 0.244858 44.3208 1.68867 45.6675 4.78317C46.8243 1.68867 49.4502 0.244858 52.2618 0.244858C54.2629 0.244858 56.4539 1.06809 57.788 2.92563C59.2994 4.98581 58.9912 7.9832 58.9912 10.6091V26.0773C58.9785 26.5755 58.5648 26.9723 58.0666 26.9639H53.3004C52.8275 26.9386 52.4518 26.5544 52.4391 26.0773V13.0872C52.4391 12.0529 52.532 9.47345 52.304 8.49402C51.9494 6.84757 50.8813 6.38318 49.4966 6.38318C48.3399 6.38318 47.1325 7.15998 46.6428 8.39271C46.153 9.62966 46.1995 11.6983 46.1995 13.0872V26.0773C46.191 26.5755 45.7773 26.9723 45.2792 26.9639H40.5129C40.0358 26.9428 39.6601 26.5544 39.6516 26.0773V13.0872C39.6474 10.3558 40.0949 6.3283 36.7049 6.3283C33.3149 6.3283 33.4078 10.2502 33.4078 13.0872V26.0773C33.3993 26.5755 32.9856 26.9723 32.4875 26.9639M120.733 0.236413C127.817 0.236413 131.651 6.31987 131.651 14.0582C131.651 21.7966 127.412 27.4663 120.733 27.4663C114.055 27.4663 109.985 21.3786 109.985 13.7965C109.985 6.21431 113.822 0.236413 120.733 0.236413ZM120.771 5.24333C117.255 5.24333 117.031 10.0392 117.031 13.0281C117.031 16.0171 116.984 22.4171 120.733 22.4171C124.482 22.4171 124.609 17.2582 124.609 14.1173C124.609 12.0487 124.52 9.579 123.895 7.61592C123.359 5.91036 122.291 5.24755 120.771 5.24755M140.841 26.9554H136.088C135.615 26.9301 135.239 26.5459 135.226 26.0689V1.54936C135.277 1.08497 135.674 0.738794 136.142 0.751459H140.567C140.985 0.772567 141.327 1.05542 141.42 1.43538V5.18423H141.508C142.846 1.83221 144.717 0.232194 148.018 0.232194C150.158 0.232194 152.248 1.00476 153.591 3.11982C154.84 5.07868 154.84 8.37582 154.84 10.7526V26.1787C154.768 26.6304 154.38 26.9597 153.92 26.9554H149.133C148.702 26.9343 148.347 26.6093 148.284 26.1787V12.8677C148.284 10.1869 148.592 6.26498 145.295 6.26498C144.134 6.26498 143.066 7.04177 142.534 8.22384C141.863 9.72254 141.774 11.2128 141.774 12.8635V26.0605C141.757 26.5586 141.344 26.9555 140.841 26.947M77.2204 15.2487V14.2144C73.7671 14.2144 70.1195 14.949 70.1195 19.0229C70.1195 21.0831 71.1876 22.4847 73.0198 22.4847C74.3623 22.4847 75.5655 21.6572 76.3212 20.3147C77.2626 18.6641 77.2162 17.1105 77.2162 15.2487H77.2204ZM82.0331 26.8879C81.7165 27.1581 81.2648 27.2003 80.9017 27.0019C79.3186 25.6847 79.0357 25.0768 78.1618 23.8187C75.5444 26.4911 73.6869 27.289 70.2884 27.289C66.2736 27.289 63.1411 24.8108 63.1411 19.8461C63.1411 15.9706 65.2435 13.3321 68.2324 12.0445C70.8246 10.9004 74.4425 10.702 77.212 10.3853V9.76898C77.212 8.63335 77.3006 7.29085 76.6336 6.30719C76.051 5.42908 74.9365 5.06602 73.9528 5.06602C72.1333 5.06602 70.5037 5.99479 70.1111 7.93255C70.0309 8.35894 69.7142 8.78533 69.2879 8.80644L64.6525 8.30827C64.2641 8.21961 63.8334 7.90721 63.9432 7.30773C65.0071 1.69289 70.0815 0 74.6198 0C76.946 0 79.9771 0.616368 81.8136 2.37681C84.1355 4.54675 83.916 7.44282 83.916 10.5922V18.0308C83.916 20.2683 84.8447 21.252 85.7186 22.4594C86.0268 22.89 86.0944 23.4092 85.7018 23.7301C84.7266 24.5449 82.9957 26.0562 82.0416 26.9006L82.0289 26.8879M14.6171 15.2487V14.2144C11.168 14.2144 7.52043 14.949 7.52043 19.0229C7.52043 21.0831 8.58852 22.4847 10.4207 22.4847C11.7632 22.4847 12.9664 21.6572 13.7221 20.3147C14.6635 18.6641 14.6171 17.1105 14.6171 15.2487ZM19.434 26.8879C19.1174 27.1581 18.6657 27.2003 18.3026 27.0019C16.7195 25.6847 16.4366 25.0768 15.5627 23.8187C12.9453 26.4911 11.0878 27.289 7.6893 27.289C3.67448 27.289 0.541992 24.8108 0.541992 19.8461C0.541992 15.9706 2.64439 13.3321 5.63334 12.0445C8.22545 10.9004 11.8434 10.702 14.6129 10.3853V9.76898C14.6129 8.63335 14.7015 7.29085 14.0345 6.30719C13.4519 5.42908 12.3374 5.06602 11.3537 5.06602C9.53417 5.06602 7.90883 5.99479 7.51199 7.93255C7.43178 8.35894 7.11515 8.78533 6.68876 8.80644L2.05336 8.30827C1.66496 8.21961 1.23435 7.90721 1.34411 7.30773C2.41642 1.69712 7.48666 0.00422581 12.025 0.00422581C14.3511 0.00422581 17.3823 0.620591 19.2187 2.38525C21.5406 4.5552 21.3211 7.45128 21.3211 10.6007V18.0393C21.3211 20.2767 22.2499 21.2562 23.1238 22.4636C23.432 22.8942 23.4995 23.4135 23.1069 23.7343C22.1317 24.5491 20.4008 26.0605 19.4467 26.9048L19.434 26.8921V26.8879Z" fill="#1498D5"/>
<path d="M99.9913 32.1026C98.8473 30.6377 92.4176 31.4103 89.53 31.7522C88.6477 31.8578 88.5168 31.0936 89.3063 30.5406C94.4314 26.9353 102.837 27.9738 103.82 29.1854C104.8 30.4013 103.563 38.832 98.7502 42.8552C98.0156 43.4716 97.3063 43.1423 97.6356 42.3233C98.7164 39.6257 101.144 33.576 99.9913 32.1026Z" fill="#1498D5"/>
</svg>
