<svg width="199" height="52" viewBox="0 0 199 52" fill="none" xmlns="http://www.w3.org/2000/svg">
<path d="M8.80639 48.745C3.59786 49.8687 0.737558 47.2127 0.882183 42.9081C0.897825 40.342 2.14963 37.8715 3.98483 35.5722C6.65555 32.2261 11.6941 29.3669 16.5586 28.0604C19.9319 27.1535 25.0418 26.8437 30.4058 28.6144C33.734 24.8277 38.4179 18.7671 46.1965 15.339C55.1878 11.0559 59.1465 11.9501 60.8155 13.5204L60.8487 13.5497C62.165 14.6892 62.3321 16.6709 61.2269 18.0155C60.2986 19.2234 58.6168 19.7678 57.1109 19.0563C56.8188 18.9175 56.5491 18.7397 56.3154 18.5228C54.1333 16.4883 50.7551 14.5768 46.5776 16.2762C39.0247 19.3485 31.6887 28.6223 31.4132 28.9741C34.078 30.132 38.5781 33.2395 38.708 33.3705L41.6123 40.2687C41.3622 39.8592 39.2025 35.7882 35.2155 32.5799C34.4005 31.9242 31.7367 30.133 30.7429 29.8075C30.7429 29.8075 18.3058 46.1935 8.80737 48.747L8.80639 48.745ZM11.096 45.7479C17.3844 43.5061 26.8242 32.9415 29.7109 29.4616C27.5611 28.8069 25.3691 28.5079 23.2134 28.5079C16.0358 28.5079 10.408 31.251 6.83438 35.7275C6.44349 36.2171 6.11124 36.7155 5.83372 37.2158C5.18484 38.3845 4.82132 39.6892 4.73338 41.023C4.50862 44.4413 6.11418 47.2127 11.096 45.7479Z" fill="#BC9968"/>
<path d="M16.6667 13.1382L18.2214 11.5699C21.0535 8.71242 25.8506 9.45811 27.6828 13.0395L44.8378 46.5726C45.6254 48.1126 47.2104 49.082 48.9401 49.082H53.5339L31.6845 5.86871C29.5796 1.70587 23.7339 1.44109 21.2616 5.39676L16.5035 13.0093C16.4371 13.1158 16.5788 13.2272 16.6667 13.1382Z" fill="#BC9968"/>
<path d="M92.7698 50.0913V45.2896H93.4484C93.5672 45.2896 93.6493 45.3116 93.6967 45.3548C93.744 45.399 93.7745 45.4737 93.7902 45.5799L93.8607 46.1606C94.0323 45.864 94.2332 45.6305 94.4646 45.4589C94.6961 45.2875 94.9549 45.2012 95.2421 45.2012C95.4789 45.2012 95.6757 45.2559 95.8325 45.3653L95.6831 46.2311C95.6736 46.287 95.6535 46.3269 95.622 46.35C95.5904 46.3733 95.5483 46.3858 95.4958 46.3858C95.4495 46.3858 95.3853 46.3754 95.3043 46.3532C95.2232 46.3312 95.1159 46.3206 94.9812 46.3206C94.7414 46.3206 94.5351 46.3869 94.3637 46.5195C94.1922 46.652 94.0469 46.8467 93.9281 47.1023V50.0935H92.7719L92.7698 50.0913Z" fill="#323232"/>
<path d="M98.582 45.2188C98.885 45.2188 99.1628 45.2672 99.4174 45.3639C99.672 45.4607 99.8908 45.6018 100.075 45.788C100.259 45.9742 100.402 46.2013 100.505 46.4717C100.608 46.7411 100.66 47.0494 100.66 47.3965C100.66 47.4839 100.656 47.5565 100.648 47.6143C100.641 47.6722 100.626 47.7175 100.606 47.7501C100.586 47.7827 100.559 47.8068 100.524 47.8206C100.489 47.8343 100.446 47.8415 100.393 47.8415H97.4257C97.4604 48.335 97.5931 48.6969 97.8235 48.9273C98.0538 49.1588 98.36 49.2735 98.7409 49.2735C98.9282 49.2735 99.0892 49.2515 99.2248 49.2083C99.3605 49.1641 99.4794 49.1157 99.5804 49.0631C99.6815 49.0105 99.7708 48.962 99.8476 48.9178C99.9245 48.8737 99.9981 48.8526 100.07 48.8526C100.117 48.8526 100.157 48.8621 100.192 48.881C100.226 48.9 100.256 48.9263 100.281 48.961L100.618 49.3819C100.489 49.5313 100.346 49.6576 100.187 49.7585C100.029 49.8595 99.8624 49.9405 99.6889 50.0015C99.5152 50.0626 99.3395 50.1047 99.1596 50.1299C98.9798 50.1551 98.8061 50.1678 98.6378 50.1678C98.3043 50.1678 97.9939 50.112 97.7067 50.0015C97.4194 49.891 97.1701 49.727 96.9576 49.5103C96.7451 49.2934 96.5788 49.0253 96.4567 48.7053C96.3348 48.3856 96.2737 48.0152 96.2737 47.5933C96.2737 47.2661 96.3263 46.9578 96.4326 46.6685C96.5388 46.3803 96.6903 46.1287 96.8892 45.9152C97.0869 45.7017 97.329 45.5322 97.6151 45.4071C97.9014 45.2818 98.2233 45.2188 98.582 45.2188ZM98.6052 46.0468C98.2685 46.0468 98.0044 46.1425 97.814 46.3319C97.6236 46.5223 97.5015 46.7917 97.4489 47.1419H99.6204C99.6204 46.9925 99.6005 46.8516 99.5594 46.718C99.5184 46.5854 99.4563 46.4696 99.3721 46.3697C99.2879 46.2698 99.1817 46.1909 99.0534 46.133C98.925 46.0752 98.7766 46.0468 98.6052 46.0468Z" fill="#323232"/>
<path d="M105.362 50.0935H104.842C104.733 50.0935 104.647 50.0766 104.584 50.044C104.521 50.0114 104.475 49.9451 104.444 49.8451L104.341 49.5033C104.219 49.6127 104.1 49.7083 103.983 49.7904C103.867 49.8736 103.746 49.943 103.621 49.9987C103.495 50.0545 103.363 50.0966 103.223 50.125C103.083 50.1534 102.926 50.1671 102.755 50.1671C102.552 50.1671 102.364 50.1396 102.193 50.085C102.021 50.0302 101.874 49.9483 101.751 49.8389C101.628 49.7293 101.532 49.5926 101.463 49.4305C101.394 49.2675 101.36 49.0782 101.36 48.8625C101.36 48.6805 101.407 48.5015 101.503 48.3248C101.597 48.1481 101.756 47.9881 101.978 47.8461C102.2 47.7041 102.495 47.5852 102.863 47.4916C103.231 47.3979 103.688 47.3506 104.234 47.3506V47.0676C104.234 46.7436 104.167 46.5037 104.03 46.3479C103.894 46.1922 103.696 46.1145 103.437 46.1145C103.25 46.1145 103.094 46.1365 102.969 46.1797C102.844 46.2239 102.736 46.2722 102.644 46.3269C102.553 46.3816 102.467 46.4311 102.39 46.4742C102.312 46.5184 102.226 46.5394 102.132 46.5394C102.054 46.5394 101.987 46.5195 101.931 46.4785C101.875 46.4374 101.83 46.3879 101.795 46.3291L101.585 45.9598C102.137 45.4547 102.803 45.2012 103.584 45.2012C103.865 45.2012 104.115 45.2475 104.335 45.339C104.555 45.4316 104.741 45.5588 104.895 45.723C105.048 45.8872 105.164 46.0828 105.243 46.31C105.323 46.5373 105.362 46.7877 105.362 47.0592V50.0935ZM103.115 49.3727C103.233 49.3727 103.342 49.3622 103.442 49.3401C103.542 49.319 103.636 49.2864 103.725 49.2434C103.813 49.2002 103.899 49.1476 103.983 49.0845C104.066 49.0213 104.149 48.9476 104.233 48.8614V48.0576C103.896 48.0576 103.614 48.0787 103.388 48.1218C103.162 48.1638 102.98 48.2186 102.843 48.2848C102.705 48.3512 102.608 48.4279 102.551 48.5163C102.493 48.6037 102.464 48.7004 102.464 48.8035C102.464 49.0077 102.524 49.1539 102.644 49.2423C102.764 49.3296 102.921 49.3727 103.115 49.3727Z" fill="#323232"/>
<path d="M107.731 43.1387V50.094H106.574V43.1387H107.731Z" fill="#323232"/>
<path d="M112.832 45.2188C113.135 45.2188 113.413 45.2672 113.667 45.3639C113.922 45.4607 114.141 45.6018 114.325 45.788C114.509 45.9742 114.652 46.2013 114.755 46.4717C114.858 46.7411 114.91 47.0494 114.91 47.3965C114.91 47.4839 114.906 47.5565 114.898 47.6143C114.891 47.6722 114.876 47.7175 114.856 47.7501C114.836 47.7827 114.809 47.8068 114.774 47.8206C114.739 47.8343 114.696 47.8415 114.643 47.8415H111.676C111.71 48.335 111.843 48.6969 112.073 48.9273C112.304 49.1588 112.61 49.2735 112.991 49.2735C113.178 49.2735 113.339 49.2515 113.475 49.2083C113.611 49.1641 113.729 49.1157 113.83 49.0631C113.931 49.0105 114.021 48.962 114.098 48.9178C114.174 48.8737 114.248 48.8526 114.32 48.8526C114.367 48.8526 114.407 48.8621 114.442 48.881C114.476 48.9 114.506 48.9263 114.531 48.961L114.868 49.3819C114.739 49.5313 114.596 49.6576 114.437 49.7585C114.279 49.8595 114.112 49.9405 113.939 50.0015C113.765 50.0626 113.589 50.1047 113.41 50.1299C113.23 50.1551 113.056 50.1678 112.888 50.1678C112.554 50.1678 112.244 50.112 111.957 50.0015C111.669 49.891 111.42 49.727 111.207 49.5103C110.995 49.2934 110.829 49.0253 110.707 48.7053C110.585 48.3856 110.524 48.0152 110.524 47.5933C110.524 47.2661 110.576 46.9578 110.682 46.6685C110.789 46.3803 110.94 46.1287 111.139 45.9152C111.337 45.7017 111.579 45.5322 111.865 45.4071C112.151 45.2818 112.473 45.2188 112.832 45.2188ZM112.855 46.0468C112.518 46.0468 112.254 46.1425 112.064 46.3319C111.873 46.5223 111.751 46.7917 111.699 47.1419H113.87C113.87 46.9925 113.85 46.8516 113.809 46.718C113.768 46.5854 113.706 46.4696 113.622 46.3697C113.538 46.2698 113.432 46.1909 113.303 46.133C113.175 46.0752 113.027 46.0468 112.855 46.0468Z" fill="#323232"/>
<path d="M118.705 46.2298C118.673 46.2792 118.641 46.315 118.607 46.335C118.572 46.3549 118.529 46.3655 118.475 46.3655C118.42 46.3655 118.359 46.3497 118.296 46.3192C118.231 46.2887 118.158 46.2529 118.074 46.214C117.989 46.1751 117.894 46.1404 117.785 46.1088C117.678 46.0783 117.551 46.0625 117.403 46.0625C117.175 46.0625 116.996 46.1109 116.865 46.2077C116.733 46.3045 116.668 46.4307 116.668 46.5864C116.668 46.6895 116.702 46.7758 116.769 46.8463C116.836 46.9168 116.925 46.9779 117.036 47.0315C117.147 47.0841 117.273 47.1324 117.413 47.1745C117.554 47.2166 117.697 47.263 117.843 47.3124C117.989 47.3618 118.133 47.4197 118.273 47.4828C118.414 47.547 118.54 47.628 118.65 47.7258C118.761 47.8237 118.85 47.9426 118.917 48.0794C118.985 48.2161 119.018 48.3824 119.018 48.5749C119.018 48.8054 118.976 49.0189 118.892 49.2136C118.808 49.4081 118.685 49.5776 118.523 49.7196C118.361 49.8616 118.16 49.9721 117.921 50.052C117.682 50.132 117.409 50.171 117.099 50.171C116.934 50.171 116.772 50.1562 116.615 50.1267C116.457 50.0973 116.306 50.0563 116.162 50.0026C116.017 49.95 115.883 49.8868 115.759 49.8153C115.636 49.7437 115.527 49.6659 115.434 49.5808L115.701 49.141C115.736 49.0883 115.776 49.0473 115.823 49.0189C115.869 48.9905 115.929 48.9768 116.001 48.9768C116.072 48.9768 116.141 48.9968 116.205 49.0378C116.269 49.0788 116.343 49.122 116.427 49.1694C116.511 49.2166 116.61 49.2598 116.724 49.3008C116.837 49.3419 116.981 49.3619 117.156 49.3619C117.294 49.3619 117.412 49.345 117.51 49.3124C117.608 49.2798 117.689 49.2367 117.753 49.184C117.816 49.1315 117.863 49.0693 117.894 48.9989C117.923 48.9284 117.938 48.8558 117.938 48.7811C117.938 48.6685 117.904 48.5771 117.837 48.5045C117.769 48.4319 117.681 48.3697 117.57 48.3172C117.459 48.2645 117.333 48.2161 117.191 48.174C117.049 48.132 116.904 48.0857 116.755 48.0362C116.607 47.9867 116.462 47.9279 116.32 47.8606C116.178 47.7932 116.051 47.708 115.941 47.6049C115.83 47.5017 115.741 47.3755 115.674 47.2261C115.606 47.0767 115.573 46.8958 115.573 46.6833C115.573 46.4865 115.612 46.2993 115.689 46.1215C115.767 45.9436 115.882 45.788 116.034 45.6553C116.185 45.5228 116.373 45.4166 116.6 45.3377C116.826 45.2577 117.087 45.2188 117.383 45.2188C117.714 45.2188 118.016 45.2734 118.287 45.3828C118.559 45.4922 118.785 45.6354 118.966 45.8132L118.705 46.2298Z" fill="#323232"/>
<path d="M121.513 50.1656C121.098 50.1656 120.779 50.0479 120.553 49.8121C120.328 49.5764 120.217 49.2514 120.217 48.8358V46.154H119.73C119.668 46.154 119.614 46.134 119.569 46.093C119.523 46.052 119.5 45.992 119.5 45.9099V45.4512L120.272 45.3249L120.516 44.0151C120.528 43.953 120.557 43.9047 120.602 43.87C120.647 43.8351 120.704 43.8184 120.772 43.8184H121.372V45.3302H122.636V46.154H121.372V48.7558C121.372 48.9052 121.41 49.023 121.485 49.1072C121.559 49.1914 121.659 49.2334 121.784 49.2334C121.856 49.2334 121.916 49.2251 121.964 49.2072C122.013 49.1893 122.055 49.1724 122.091 49.1536C122.126 49.1346 122.158 49.1167 122.186 49.0999C122.215 49.0831 122.242 49.0736 122.27 49.0736C122.305 49.0736 122.332 49.082 122.355 49.0999C122.377 49.1167 122.4 49.143 122.425 49.1777L122.771 49.7396C122.603 49.8794 122.409 49.9857 122.19 50.0572C121.972 50.1288 121.745 50.1645 121.512 50.1645L121.513 50.1656Z" fill="#323232"/>
<path d="M127.323 50.0935H126.803C126.694 50.0935 126.608 50.0766 126.545 50.044C126.482 50.0114 126.436 49.9451 126.405 49.8451L126.302 49.5033C126.18 49.6127 126.061 49.7083 125.944 49.7904C125.828 49.8736 125.707 49.943 125.581 49.9987C125.456 50.0545 125.324 50.0966 125.184 50.125C125.044 50.1534 124.887 50.1671 124.716 50.1671C124.513 50.1671 124.325 50.1396 124.154 50.085C123.982 50.0302 123.835 49.9483 123.712 49.8389C123.589 49.7293 123.493 49.5926 123.424 49.4305C123.355 49.2675 123.321 49.0782 123.321 48.8625C123.321 48.6805 123.368 48.5015 123.464 48.3248C123.558 48.1481 123.717 47.9881 123.939 47.8461C124.161 47.7041 124.456 47.5852 124.824 47.4916C125.192 47.3979 125.649 47.3506 126.195 47.3506V47.0676C126.195 46.7436 126.127 46.5037 125.991 46.3479C125.855 46.1922 125.657 46.1145 125.398 46.1145C125.211 46.1145 125.055 46.1365 124.93 46.1797C124.805 46.2239 124.697 46.2722 124.605 46.3269C124.514 46.3816 124.428 46.4311 124.351 46.4742C124.273 46.5184 124.186 46.5394 124.093 46.5394C124.015 46.5394 123.948 46.5195 123.892 46.4785C123.836 46.4374 123.791 46.3879 123.756 46.3291L123.546 45.9598C124.098 45.4547 124.764 45.2012 125.545 45.2012C125.825 45.2012 126.076 45.2475 126.296 45.339C126.516 45.4316 126.702 45.5588 126.856 45.723C127.009 45.8872 127.125 46.0828 127.204 46.31C127.284 46.5373 127.323 46.7877 127.323 47.0592V50.0935ZM125.077 49.3727C125.195 49.3727 125.304 49.3622 125.404 49.3401C125.504 49.319 125.598 49.2864 125.687 49.2434C125.775 49.2002 125.861 49.1476 125.944 49.0845C126.028 49.0213 126.111 48.9476 126.195 48.8614V48.0576C125.858 48.0576 125.576 48.0787 125.35 48.1218C125.124 48.1638 124.942 48.2186 124.805 48.2848C124.667 48.3512 124.57 48.4279 124.513 48.5163C124.455 48.6037 124.426 48.7004 124.426 48.8035C124.426 49.0077 124.486 49.1539 124.606 49.2423C124.726 49.3296 124.883 49.3727 125.077 49.3727Z" fill="#323232"/>
<path d="M130.044 50.1656C129.63 50.1656 129.31 50.0479 129.085 49.8121C128.86 49.5764 128.748 49.2514 128.748 48.8358V46.154H128.261C128.199 46.154 128.145 46.134 128.1 46.093C128.055 46.052 128.031 45.992 128.031 45.9099V45.4512L128.804 45.3249L129.047 44.0151C129.059 43.953 129.088 43.9047 129.133 43.87C129.178 43.8351 129.235 43.8184 129.303 43.8184H129.903V45.3302H131.167V46.154H129.903V48.7558C129.903 48.9052 129.941 49.023 130.016 49.1072C130.09 49.1914 130.19 49.2334 130.316 49.2334C130.387 49.2334 130.447 49.2251 130.496 49.2072C130.544 49.1893 130.586 49.1724 130.622 49.1536C130.658 49.1346 130.689 49.1167 130.718 49.0999C130.746 49.0831 130.773 49.0736 130.802 49.0736C130.836 49.0736 130.864 49.082 130.886 49.0999C130.908 49.1167 130.931 49.143 130.956 49.1777L131.302 49.7396C131.134 49.8794 130.941 49.9857 130.722 50.0572C130.503 50.1288 130.277 50.1645 130.043 50.1645L130.044 50.1656Z" fill="#323232"/>
<path d="M134.066 45.2188C134.369 45.2188 134.647 45.2672 134.902 45.3639C135.156 45.4607 135.375 45.6018 135.559 45.788C135.744 45.9742 135.886 46.2013 135.989 46.4717C136.092 46.7411 136.145 47.0494 136.145 47.3965C136.145 47.4839 136.14 47.5565 136.133 47.6143C136.125 47.6722 136.111 47.7175 136.091 47.7501C136.071 47.7827 136.043 47.8068 136.009 47.8206C135.973 47.8343 135.931 47.8415 135.877 47.8415H132.91C132.945 48.335 133.077 48.6969 133.308 48.9273C133.538 49.1588 133.844 49.2735 134.225 49.2735C134.413 49.2735 134.573 49.2515 134.709 49.2083C134.845 49.1641 134.964 49.1157 135.065 49.0631C135.166 49.0105 135.255 48.962 135.332 48.9178C135.408 48.8737 135.482 48.8526 135.554 48.8526C135.601 48.8526 135.641 48.8621 135.676 48.881C135.711 48.9 135.74 48.9263 135.766 48.961L136.103 49.3819C135.973 49.5313 135.831 49.6576 135.672 49.7585C135.513 49.8595 135.346 49.9405 135.174 50.0015C134.999 50.0626 134.824 50.1047 134.644 50.1299C134.464 50.1551 134.29 50.1678 134.122 50.1678C133.789 50.1678 133.478 50.112 133.191 50.0015C132.904 49.891 132.654 49.727 132.442 49.5103C132.229 49.2934 132.063 49.0253 131.941 48.7053C131.819 48.3856 131.758 48.0152 131.758 47.5933C131.758 47.2661 131.811 46.9578 131.917 46.6685C132.023 46.3803 132.175 46.1287 132.373 45.9152C132.571 45.7017 132.813 45.5322 133.099 45.4071C133.385 45.2818 133.708 45.2188 134.066 45.2188ZM134.089 46.0468C133.753 46.0468 133.489 46.1425 133.298 46.3319C133.108 46.5223 132.986 46.7917 132.933 47.1419H135.105C135.105 46.9925 135.085 46.8516 135.044 46.718C135.003 46.5854 134.941 46.4696 134.857 46.3697C134.772 46.2698 134.665 46.1909 134.538 46.133C134.409 46.0752 134.261 46.0468 134.089 46.0468Z" fill="#323232"/>
<path d="M142.278 50.094C142.129 50.094 142.03 50.0236 141.984 49.8837L141.89 49.4207C141.79 49.5333 141.684 49.6344 141.576 49.7248C141.466 49.8153 141.349 49.8932 141.222 49.9584C141.097 50.0236 140.961 50.0752 140.816 50.1109C140.67 50.1467 140.513 50.1645 140.346 50.1645C140.083 50.1645 139.843 50.1099 139.625 50.0005C139.406 49.8911 139.219 49.7332 139.06 49.5249C138.903 49.3166 138.782 49.0609 138.696 48.7547C138.609 48.4496 138.567 48.0993 138.567 47.7068C138.567 47.3513 138.615 47.0199 138.712 46.7147C138.809 46.4086 138.948 46.1434 139.129 45.9193C139.31 45.6942 139.526 45.5185 139.78 45.3923C140.032 45.266 140.315 45.2029 140.631 45.2029C140.9 45.2029 141.13 45.2461 141.32 45.3312C141.51 45.4175 141.679 45.5322 141.829 45.6753V43.1387H142.987V50.094H142.278ZM140.738 49.2461C140.978 49.2461 141.181 49.1966 141.351 49.0967C141.52 48.9968 141.679 48.8548 141.829 48.6707V46.518C141.698 46.3592 141.555 46.2466 141.4 46.1813C141.246 46.1161 141.081 46.0835 140.901 46.0835C140.723 46.0835 140.569 46.1161 140.426 46.1813C140.284 46.2466 140.165 46.3455 140.066 46.478C139.968 46.6106 139.893 46.7789 139.839 46.9831C139.786 47.1871 139.76 47.4281 139.76 47.7058C139.76 47.9836 139.782 48.2246 139.827 48.4191C139.873 48.6138 139.938 48.7727 140.022 48.8967C140.107 49.0199 140.21 49.1094 140.331 49.164C140.454 49.2188 140.589 49.2461 140.738 49.2461Z" fill="#323232"/>
<path d="M146.208 45.2188C146.512 45.2188 146.789 45.2672 147.044 45.3639C147.298 45.4607 147.518 45.6018 147.701 45.788C147.886 45.9742 148.028 46.2013 148.131 46.4717C148.234 46.7411 148.287 47.0494 148.287 47.3965C148.287 47.4839 148.282 47.5565 148.275 47.6143C148.267 47.6722 148.253 47.7175 148.233 47.7501C148.213 47.7827 148.185 47.8068 148.151 47.8206C148.115 47.8343 148.073 47.8415 148.019 47.8415H145.051C145.086 48.335 145.218 48.6969 145.449 48.9273C145.679 49.1588 145.985 49.2735 146.367 49.2735C146.554 49.2735 146.715 49.2515 146.85 49.2083C146.986 49.1641 147.104 49.1157 147.206 49.0631C147.306 49.0105 147.396 48.962 147.473 48.9178C147.549 48.8737 147.623 48.8526 147.696 48.8526C147.742 48.8526 147.783 48.8621 147.817 48.881C147.851 48.9 147.882 48.9263 147.907 48.961L148.243 49.3819C148.115 49.5313 147.972 49.6576 147.813 49.7585C147.653 49.8595 147.487 49.9405 147.314 50.0015C147.141 50.0626 146.965 50.1047 146.785 50.1299C146.606 50.1551 146.431 50.1678 146.264 50.1678C145.93 50.1678 145.618 50.112 145.332 50.0015C145.044 49.891 144.795 49.727 144.582 49.5103C144.37 49.2934 144.204 49.0253 144.082 48.7053C143.961 48.3856 143.899 48.0152 143.899 47.5933C143.899 47.2661 143.951 46.9578 144.058 46.6685C144.164 46.3803 144.316 46.1287 144.515 45.9152C144.713 45.7017 144.955 45.5322 145.241 45.4071C145.527 45.2818 145.848 45.2198 146.206 45.2198L146.208 45.2188ZM146.232 46.0468C145.896 46.0468 145.63 46.1425 145.44 46.3319C145.25 46.5223 145.127 46.7917 145.076 47.1419H147.247C147.247 46.9925 147.227 46.8516 147.186 46.718C147.145 46.5843 147.083 46.4696 146.999 46.3697C146.914 46.2698 146.807 46.1909 146.681 46.133C146.553 46.0752 146.404 46.0468 146.232 46.0468Z" fill="#323232"/>
<path d="M151.487 50.0908H150.437L148.528 45.2891H149.487C149.572 45.2891 149.641 45.309 149.7 45.35C149.758 45.3911 149.797 45.4427 149.818 45.5047L150.746 48.0697C150.799 48.2191 150.844 48.3664 150.879 48.5095C150.915 48.6525 150.947 48.7966 150.974 48.9398C151.003 48.7966 151.035 48.6525 151.071 48.5095C151.106 48.3664 151.153 48.2191 151.208 48.0697L152.158 45.5047C152.181 45.4427 152.22 45.3911 152.276 45.35C152.333 45.31 152.399 45.2891 152.476 45.2891H153.388L151.484 50.0908H151.487Z" fill="#323232"/>
<path d="M155.9 45.2188C156.202 45.2188 156.48 45.2672 156.735 45.3639C156.99 45.4607 157.209 45.6018 157.392 45.788C157.577 45.9742 157.72 46.2013 157.823 46.4717C157.926 46.7411 157.977 47.0494 157.977 47.3965C157.977 47.4839 157.973 47.5565 157.966 47.6143C157.959 47.6722 157.944 47.7175 157.924 47.7501C157.904 47.7827 157.877 47.8068 157.841 47.8206C157.807 47.8343 157.763 47.8415 157.71 47.8415H154.742C154.777 48.335 154.91 48.6969 155.14 48.9273C155.37 49.1588 155.677 49.2735 156.057 49.2735C156.244 49.2735 156.405 49.2515 156.541 49.2083C156.677 49.1641 156.796 49.1157 156.897 49.0631C156.998 49.0105 157.088 48.962 157.164 48.9178C157.241 48.8737 157.315 48.8526 157.386 48.8526C157.432 48.8526 157.473 48.8621 157.509 48.881C157.543 48.9 157.572 48.9263 157.598 48.961L157.935 49.3819C157.805 49.5313 157.663 49.6576 157.505 49.7585C157.345 49.8595 157.179 49.9405 157.006 50.0015C156.833 50.0626 156.656 50.1047 156.476 50.1299C156.296 50.1551 156.123 50.1678 155.954 50.1678C155.621 50.1678 155.31 50.112 155.023 50.0015C154.736 49.891 154.486 49.727 154.274 49.5103C154.061 49.2934 153.895 49.0253 153.774 48.7053C153.651 48.3856 153.59 48.0152 153.59 47.5933C153.59 47.2661 153.643 46.9578 153.748 46.6685C153.855 46.3803 154.007 46.1287 154.205 45.9152C154.403 45.7017 154.646 45.5322 154.932 45.4071C155.217 45.2818 155.538 45.2198 155.897 45.2198L155.9 45.2188ZM155.922 46.0468C155.586 46.0468 155.322 46.1425 155.132 46.3319C154.942 46.5223 154.819 46.7917 154.766 47.1419H156.938C156.938 46.9925 156.919 46.8516 156.876 46.718C156.835 46.5843 156.773 46.4696 156.69 46.3697C156.606 46.2698 156.499 46.1909 156.372 46.133C156.244 46.0752 156.094 46.0468 155.922 46.0468Z" fill="#323232"/>
<path d="M160.149 43.1387V50.094H158.992V43.1387H160.149Z" fill="#323232"/>
<path d="M163.507 45.2188C163.866 45.2188 164.191 45.2766 164.484 45.3912C164.776 45.507 165.024 45.6701 165.23 45.8826C165.434 46.0951 165.595 46.3539 165.708 46.6601C165.82 46.9663 165.875 47.3072 165.875 47.6849C165.875 48.0625 165.818 48.4087 165.708 48.7148C165.595 49.021 165.436 49.2809 165.23 49.4965C165.024 49.7122 164.776 49.8774 164.484 49.9932C164.192 50.1088 163.866 50.1657 163.507 50.1657C163.148 50.1657 162.822 50.1079 162.529 49.9932C162.235 49.8774 161.984 49.7122 161.777 49.4965C161.57 49.2809 161.409 49.021 161.295 48.7148C161.182 48.4087 161.125 48.0656 161.125 47.6849C161.125 47.304 161.182 46.9652 161.295 46.6601C161.409 46.3539 161.57 46.0951 161.777 45.8826C161.984 45.6701 162.235 45.507 162.529 45.3912C162.822 45.2755 163.148 45.2188 163.507 45.2188ZM163.507 49.2767C163.907 49.2767 164.202 49.1419 164.394 48.8737C164.586 48.6054 164.682 48.2119 164.682 47.6943C164.682 47.1766 164.587 46.7811 164.394 46.5096C164.203 46.2381 163.907 46.1025 163.507 46.1025C163.108 46.1025 162.803 46.2392 162.609 46.5117C162.415 46.7853 162.318 47.1788 162.318 47.6932C162.318 48.2078 162.415 48.6002 162.609 48.8706C162.803 49.1409 163.102 49.2767 163.507 49.2767Z" fill="#323232"/>
<path d="M166.787 51.66V45.2907H167.494C167.568 45.2907 167.633 45.3074 167.685 45.3421C167.738 45.3768 167.773 45.4295 167.788 45.501L167.882 45.9461C168.076 45.7241 168.298 45.5452 168.549 45.4075C168.801 45.2706 169.094 45.2012 169.432 45.2012C169.694 45.2012 169.933 45.2559 170.151 45.3653C170.367 45.4748 170.555 45.6326 170.712 45.8409C170.87 46.0481 170.992 46.3037 171.077 46.6088C171.163 46.9129 171.205 47.2623 171.205 47.6546C171.205 48.0135 171.158 48.3459 171.06 48.652C170.964 48.9582 170.825 49.2233 170.646 49.4474C170.466 49.6726 170.25 49.8482 169.995 49.9745C169.74 50.1009 169.457 50.1639 169.14 50.1639C168.869 50.1639 168.638 50.1229 168.45 50.0397C168.262 49.9566 168.092 49.8419 167.942 49.6957V51.6611H166.785L166.787 51.66ZM169.033 46.1134C168.793 46.1134 168.588 46.1638 168.418 46.2658C168.248 46.3669 168.089 46.51 167.942 46.6941V48.8467C168.074 49.0087 168.216 49.1224 168.37 49.1855C168.525 49.2496 168.691 49.2813 168.869 49.2813C169.046 49.2813 169.202 49.2485 169.344 49.1833C169.487 49.1181 169.607 49.0182 169.705 48.8835C169.804 48.7499 169.879 48.5805 169.933 48.3754C169.986 48.1712 170.012 47.9303 170.012 47.6525C170.012 47.3748 169.99 47.1339 169.945 46.9392C169.9 46.7447 169.835 46.5857 169.751 46.4637C169.666 46.3416 169.565 46.2533 169.445 46.1964C169.325 46.1407 169.187 46.1123 169.036 46.1123L169.033 46.1134Z" fill="#323232"/>
<path d="M174.064 45.2188C174.366 45.2188 174.644 45.2672 174.899 45.3639C175.154 45.4607 175.372 45.6018 175.556 45.788C175.74 45.9742 175.884 46.2013 175.987 46.4717C176.09 46.7411 176.141 47.0494 176.141 47.3965C176.141 47.4839 176.137 47.5565 176.129 47.6143C176.123 47.6722 176.108 47.7175 176.088 47.7501C176.067 47.7827 176.041 47.8068 176.005 47.8206C175.971 47.8343 175.927 47.8415 175.874 47.8415H172.906C172.941 48.335 173.074 48.6969 173.304 48.9273C173.535 49.1588 173.841 49.2735 174.221 49.2735C174.408 49.2735 174.569 49.2515 174.705 49.2083C174.841 49.1641 174.96 49.1157 175.06 49.0631C175.162 49.0105 175.252 48.962 175.328 48.9178C175.405 48.8737 175.479 48.8526 175.55 48.8526C175.596 48.8526 175.637 48.8621 175.673 48.881C175.707 48.9 175.736 48.9263 175.761 48.961L176.098 49.3819C175.97 49.5313 175.827 49.6576 175.667 49.7585C175.509 49.8595 175.343 49.9405 175.17 50.0015C174.997 50.0626 174.82 50.1047 174.641 50.1299C174.46 50.1551 174.287 50.1678 174.118 50.1678C173.784 50.1678 173.474 50.112 173.187 50.0015C172.9 49.891 172.65 49.727 172.438 49.5103C172.225 49.2934 172.059 49.0253 171.938 48.7053C171.815 48.3856 171.754 48.0152 171.754 47.5933C171.754 47.2661 171.807 46.9578 171.913 46.6685C172.019 46.3803 172.171 46.1287 172.369 45.9152C172.567 45.7017 172.81 45.5322 173.095 45.4071C173.381 45.2818 173.702 45.2198 174.061 45.2198L174.064 45.2188ZM174.086 46.0468C173.75 46.0468 173.486 46.1425 173.296 46.3319C173.106 46.5223 172.983 46.7917 172.93 47.1419H175.102C175.102 46.9925 175.081 46.8516 175.04 46.718C174.999 46.5843 174.937 46.4696 174.853 46.3697C174.77 46.2698 174.663 46.1909 174.536 46.133C174.407 46.0752 174.258 46.0468 174.086 46.0468Z" fill="#323232"/>
<path d="M177.074 50.0913V45.2896H177.753C177.872 45.2896 177.953 45.3116 178.001 45.3548C178.048 45.3979 178.079 45.4737 178.095 45.5799L178.166 46.1606C178.338 45.864 178.538 45.6305 178.769 45.4589C179 45.2875 179.26 45.2012 179.546 45.2012C179.784 45.2012 179.979 45.2559 180.136 45.3653L179.987 46.2311C179.977 46.287 179.957 46.3269 179.925 46.35C179.894 46.3733 179.853 46.3858 179.8 46.3858C179.754 46.3858 179.689 46.3754 179.608 46.3532C179.527 46.3312 179.42 46.3206 179.285 46.3206C179.045 46.3206 178.839 46.3869 178.667 46.5195C178.496 46.652 178.351 46.8467 178.232 47.1023V50.0935H177.076L177.074 50.0913Z" fill="#323232"/>
<path d="M183.756 46.2298C183.725 46.2792 183.693 46.315 183.659 46.335C183.624 46.3549 183.581 46.3655 183.528 46.3655C183.471 46.3655 183.412 46.3497 183.347 46.3192C183.284 46.2887 183.21 46.2529 183.126 46.214C183.041 46.1751 182.946 46.1404 182.838 46.1088C182.73 46.0783 182.603 46.0625 182.455 46.0625C182.228 46.0625 182.049 46.1109 181.917 46.2077C181.785 46.3045 181.72 46.4307 181.72 46.5864C181.72 46.6895 181.754 46.7758 181.822 46.8463C181.889 46.9168 181.977 46.9779 182.088 47.0315C182.2 47.0852 182.324 47.1324 182.464 47.1745C182.604 47.2166 182.749 47.263 182.896 47.3124C183.041 47.3618 183.186 47.4197 183.326 47.4828C183.466 47.5459 183.591 47.628 183.702 47.7258C183.813 47.8237 183.902 47.9426 183.969 48.0794C184.036 48.2161 184.07 48.3824 184.07 48.5749C184.07 48.8054 184.028 49.0189 183.944 49.2136C183.861 49.4081 183.737 49.5776 183.574 49.7196C183.413 49.8616 183.211 49.9721 182.972 50.052C182.735 50.132 182.46 50.171 182.152 50.171C181.987 50.171 181.824 50.1562 181.667 50.1267C181.51 50.0973 181.358 50.0563 181.213 50.0026C181.068 49.95 180.935 49.8868 180.811 49.8153C180.687 49.7437 180.578 49.6659 180.485 49.5808L180.753 49.141C180.787 49.0883 180.826 49.0473 180.874 49.0189C180.92 48.9905 180.981 48.9768 181.052 48.9768C181.123 48.9768 181.192 48.9968 181.257 49.0378C181.32 49.0788 181.394 49.122 181.478 49.1694C181.562 49.2166 181.661 49.2598 181.775 49.3008C181.889 49.3419 182.033 49.3619 182.208 49.3619C182.346 49.3619 182.463 49.345 182.562 49.3124C182.661 49.2798 182.741 49.2367 182.805 49.184C182.869 49.1315 182.916 49.0693 182.945 48.9989C182.974 48.9284 182.988 48.8558 182.988 48.7811C182.988 48.6685 182.955 48.5771 182.888 48.5045C182.821 48.4319 182.732 48.3697 182.621 48.3172C182.512 48.2645 182.384 48.2161 182.243 48.174C182.101 48.132 181.956 48.0857 181.807 48.0362C181.659 47.9867 181.514 47.9279 181.372 47.8606C181.23 47.7932 181.104 47.708 180.993 47.6049C180.883 47.5017 180.793 47.3755 180.726 47.2261C180.659 47.0767 180.625 46.8958 180.625 46.6833C180.625 46.4865 180.664 46.2993 180.742 46.1215C180.82 45.9436 180.935 45.788 181.085 45.6553C181.237 45.5228 181.426 45.4166 181.651 45.3377C181.878 45.2577 182.138 45.2188 182.435 45.2188C182.765 45.2188 183.067 45.2734 183.339 45.3828C183.611 45.4922 183.837 45.6354 184.018 45.8132L183.756 46.2298Z" fill="#323232"/>
<path d="M94.5153 33.6524C91.54 33.6524 91.5821 30.635 91.5821 29.3778V18.6917C91.5821 18.618 91.6158 17.507 91.5821 17.5722C89.5126 24.172 81.9354 22.4613 81.4462 26.8611C81.202 29.3052 83.0748 31.0959 85.9671 31.0959C88.3142 31.0959 89.4873 30.1741 90.7867 28.2036C90.2417 30.2994 87.7272 33.6514 83.8302 33.6514C81.3188 33.6514 78.5193 32.6298 78.0248 29.06C77.9943 28.8359 77.1758 25.2147 82.1752 22.9526C82.9148 22.618 83.6914 22.3719 84.4804 22.1825C87.7208 21.405 89.5873 20.2056 90.6267 18.5844C91.198 17.6932 91.5074 16.6464 91.4821 15.5879C91.4338 13.5816 90.3143 11.7583 88.249 11.3491C88.1669 11.3332 88.0839 11.3186 87.9997 11.307C87.6893 11.2649 87.3632 11.2291 87.0149 11.1891C92.672 11.0208 95.983 13.7037 95.983 18.6906V30.2983C95.983 31.2631 96.2765 31.7239 96.8215 31.7239C97.115 31.7239 97.3243 31.4304 97.4496 31.1789C97.3664 32.4773 96.1502 33.6514 94.5164 33.6514L94.5153 33.6524ZM79.4704 14.0825C79.4903 12.4391 81.5662 11.1902 86.511 11.1902C83.8292 11.6931 83.9964 16.2192 81.5662 16.2192C80.393 16.2192 79.4704 15.2544 79.4704 14.0825Z" fill="#323232"/>
<path d="M175.175 33.6524C172.199 33.6524 172.242 30.635 172.242 29.3778V18.6917C172.242 18.618 172.276 17.507 172.242 17.5722C170.172 24.172 162.595 22.4613 162.106 26.8611C161.862 29.3052 163.734 31.0959 166.627 31.0959C168.974 31.0959 170.147 30.1741 171.447 28.2036C170.902 30.2994 168.387 33.6514 164.491 33.6514C161.979 33.6514 159.18 32.6298 158.685 29.06C158.654 28.8359 157.836 25.2147 162.836 22.9526C163.575 22.618 164.351 22.3719 165.14 22.1825C168.381 21.405 170.247 20.2056 171.286 18.5844C171.858 17.6932 172.168 16.6464 172.143 15.5879C172.094 13.5816 170.975 11.7583 168.909 11.3491C168.827 11.3332 168.744 11.3186 168.66 11.307C168.35 11.2649 168.024 11.2291 167.675 11.1891C173.332 11.0208 176.643 13.7037 176.643 18.6906V30.2983C176.643 31.2631 176.936 31.7239 177.481 31.7239C177.775 31.7239 177.984 31.4304 178.109 31.1789C178.026 32.4773 176.811 33.6514 175.177 33.6514L175.175 33.6524Z" fill="#323232"/>
<path d="M109.932 33.6583C103.185 33.6583 100.797 30.4736 100 28.5041L102.263 26.2411C103.479 29.0911 105.323 33.0712 109.932 33.6583ZM119.696 27.9591C119.696 31.815 115.506 33.6583 111.441 33.6583C113.368 33.4068 115.255 32.5683 115.255 29.2995C115.255 22.4693 100.419 25.9054 100.419 17.2309C100.419 12.9983 105.657 11.3223 108.297 11.3223C106.537 11.8252 104.903 13.4181 104.903 15.9736C104.903 22.8038 119.696 19.1583 119.696 27.9591ZM109.849 11.3223C116.554 11.3223 119.153 14.6753 119.153 16.2672C119.153 17.4402 118.398 18.1946 117.225 18.1946C114.292 18.1946 115.423 12.4533 109.849 11.3223Z" fill="#323232"/>
<path d="M122.254 0.00195312H126.654V33.2754H122.254V0.00195312ZM142.201 18.6924V33.2765H137.843V18.6924C137.843 14.0832 135.622 13.0774 133.15 13.0774C131.767 13.0774 130.049 13.7055 127.493 15.3394C129.882 13.2436 133.109 11.1909 136.46 11.1909C140.442 11.1909 142.201 13.7055 142.201 18.6924Z" fill="#323232"/>
<path d="M150.619 11.7383H146.219V33.2789H150.619V11.7383Z" fill="#323232"/>
<path d="M151.246 23.4293C153.09 16.2213 157.575 11.2344 161.849 11.2344C163.023 11.2344 163.945 12.1981 163.945 13.3712C163.945 17.1009 154.432 14.4612 151.248 23.4282L151.246 23.4293Z" fill="#323232"/>
<path d="M185.836 32.7722L180.473 11.6925H185L190.363 32.7722H185.836ZM195.349 11.6925H198.576C197.571 15.6315 190.572 41.7813 183.155 41.7813C181.981 41.7813 181.228 41.0269 181.228 39.8539C181.228 36.9206 189.525 38.0937 190.741 32.7712L195.351 11.6914L195.349 11.6925Z" fill="#323232"/>
</svg>
