<svg width="207" height="47" viewBox="0 0 207 47" fill="none" xmlns="http://www.w3.org/2000/svg">
<g clip-path="url(#clip0_837_1383)">
<path fill-rule="evenodd" clip-rule="evenodd" d="M32.7206 26.3934V26.7705C31.4639 28.2786 29.8301 29.284 28.0706 29.7867C26.1855 28.2786 24.3004 26.8961 22.1639 25.5137C21.5355 25.1367 21.0328 24.7596 20.2788 24.2569C19.1477 23.5029 17.7652 22.6232 16.3828 21.6178C16.3828 21.6178 16.3828 21.4921 16.3828 21.3664C16.3828 21.3664 16.3828 21.1151 16.3828 20.9894C16.3828 15.8367 20.4044 12.0664 25.6828 12.0664C28.4477 12.0664 30.9612 13.3232 32.7206 15.334V15.711L29.5788 18.3502H29.2017C28.322 17.3448 26.9396 16.7164 25.5571 16.7164C24.4261 16.7164 23.4207 17.0934 22.6666 17.9732C21.9125 18.7272 21.5355 19.8583 21.5355 20.9894C21.5355 22.1205 21.9125 23.1259 22.6666 24.0056C23.4207 24.7596 24.4261 25.2624 25.5571 25.2624C26.9396 25.2624 28.1963 24.634 29.2017 23.6286H29.5788L32.7206 26.3934ZM23.295 29.7867C21.2842 29.4096 19.5247 28.2786 18.2679 26.6448C18.3936 26.6448 18.5193 26.7705 18.645 26.8961C18.8963 27.0218 19.022 27.1475 19.2734 27.2732C20.5301 28.1529 21.9125 28.9069 23.295 29.661V29.7867Z" fill="#323232"/>
<path fill-rule="evenodd" clip-rule="evenodd" d="M50.8221 25.263L51.5761 28.6562V29.0332C50.8221 29.5359 50.068 29.7873 49.1883 29.7873C47.0518 29.7873 45.9207 29.2846 44.4126 27.0224C43.6586 25.8913 42.2761 23.5035 41.0194 23.5035H40.5167V29.5359H35.2383V12.3184H43.2815C47.9315 12.3184 50.445 14.5805 50.445 18.0994C50.445 20.2359 49.1883 22.1211 47.1775 22.8751C47.6802 23.2521 48.1829 23.7548 48.5599 24.2575C48.9369 24.7603 49.1883 25.3886 49.8167 25.3886C50.068 25.3886 50.3194 25.3886 50.5707 25.263H50.8221ZM44.9153 18.2251C44.9153 18.7278 44.7896 19.1048 44.4126 19.4819C44.0356 19.8589 43.5329 19.9846 43.0302 19.9846H40.5167V16.4657H43.0302C43.5329 16.4657 44.0356 16.5913 44.4126 16.9684C44.7896 17.3454 44.9153 17.8481 44.9153 18.2251Z" fill="#323232"/>
<path fill-rule="evenodd" clip-rule="evenodd" d="M60.9999 12.1953C66.404 12.1953 70.4256 15.9656 70.4256 20.9926C70.4256 26.0196 66.404 29.7899 60.9999 29.7899C55.5958 29.7899 51.5742 26.0196 51.5742 20.9926C51.5742 15.9656 55.5958 12.1953 60.9999 12.1953ZM63.1364 24.7629C64.3931 24.0088 65.2729 22.6264 65.1472 20.9926C65.1472 19.4845 64.3931 18.1021 63.1364 17.2223C61.8796 16.4683 60.2458 16.4683 58.8634 17.2223C57.6067 17.9764 56.7269 19.3588 56.8526 20.9926C56.8526 22.5007 57.6067 23.8832 58.8634 24.7629C60.1202 25.5169 61.754 25.5169 63.1364 24.7629Z" fill="#323232"/>
<path d="M95.3132 12.1875H90.5376L87.647 21.9902L84.5051 12.1875H81.4889L78.347 21.8645L75.4565 12.1875H70.6808L70.4294 12.5645L76.5876 29.7821H79.6038L82.997 20.2307L86.5159 29.7821H89.5321L95.6903 12.5645L95.4389 12.1875H95.3132Z" fill="#323232"/>
<path fill-rule="evenodd" clip-rule="evenodd" d="M105.74 12.1875C111.144 12.1875 114.412 15.7064 114.412 20.9848C114.412 26.2632 111.144 29.7821 105.74 29.7821H98.074V12.1875H105.74ZM105.489 25.5091C107.625 25.5091 109.259 23.8753 109.259 20.9848C109.259 18.0943 107.625 16.4605 105.489 16.4605H102.975V25.3834H105.489V25.5091Z" fill="#323232"/>
<path d="M142.945 16.5894H148.349V12.3164H132.011V16.5894H137.416V29.911H142.82V16.5894H142.945Z" fill="#323232"/>
<path fill-rule="evenodd" clip-rule="evenodd" d="M157.393 12.1875C161.918 12.1875 164.305 14.4497 164.305 18.0943C164.305 20.3564 163.049 21.9902 161.163 22.8699L164.682 29.4051L164.431 29.7821H159.278L156.011 23.624H154.754V29.7821H149.601V12.1875H157.393ZM159.027 18.3456C159.027 18.8483 158.901 19.351 158.524 19.6024C158.147 19.9794 157.645 20.1051 157.268 20.1051H154.88V16.5861H157.268C157.77 16.5861 158.273 16.7118 158.524 17.0889C158.901 17.4659 159.027 17.9686 159.027 18.4713V18.3456Z" fill="#323232"/>
<path d="M167.191 12.1875H172.218V29.7821H167.191V12.1875Z" fill="#323232"/>
<path d="M184.663 20.1083L190.57 12.6934L190.319 12.3164H184.789L179.888 18.6002V12.3164H174.609V29.911H179.888V24.5069L180.893 23.3759L185.292 29.911H190.821L191.073 29.534L184.663 20.234V20.1083Z" fill="#323232"/>
<path d="M206.035 16.5894V12.3164H193.594V29.911H206.161V25.638H198.621V23.2502H204.276V19.2286H198.621V16.8407H206.161L206.035 16.5894Z" fill="#323232"/>
<path d="M123.456 29.7821C127.352 29.7821 130.745 27.897 130.745 24.378C130.745 20.8591 127.352 19.6024 124.335 18.7226C123.204 18.3456 121.948 17.9686 121.948 17.2145C121.948 16.4605 122.576 16.2091 123.707 16.2091C125.467 16.2091 126.975 17.2145 127.729 17.9686H128.106L130.619 15.078V14.701C129.237 13.3186 126.598 12.1875 123.581 12.1875C120.565 12.1875 116.544 14.324 116.544 17.4659C116.544 20.6078 119.685 22.2416 122.45 22.9956C124.21 23.4983 125.341 23.4983 125.341 24.5037C125.341 25.5091 124.461 25.5091 123.204 25.5091C121.948 25.5091 119.56 24.5037 118.554 23.624H118.177L115.664 26.6402V27.0172C117.298 28.7767 120.062 29.9078 123.456 29.9078" fill="#323232"/>
<path d="M35.2418 46.1234C33.9851 43.3585 31.4716 39.714 21.6689 34.5613C17.1445 32.0477 9.47832 28.2775 2.56616 20.9883C3.19454 23.6275 6.46211 29.4086 20.2864 36.5721C24.0567 38.5829 30.5918 40.5937 35.2418 46.1234Z" fill="#323232"/>
<path d="M33.9791 41.0927C32.848 37.6995 30.8372 33.4265 21.0345 27.1427C16.2588 24.0009 9.22096 19.9792 0.0466309 9.67383C0.675009 12.4387 3.56555 19.6022 18.2696 28.9022C23.0453 32.2955 29.3291 34.3063 33.9791 41.0927Z" fill="#323232"/>
</g>
<defs>
<clipPath id="clip0_837_1383">
<rect width="206.108" height="46.5" fill="white" transform="translate(0.0463867)"/>
</clipPath>
</defs>
</svg>
