<svg width="220" height="51" viewBox="0 0 220 51" fill="none" xmlns="http://www.w3.org/2000/svg">
<path d="M205.94 39.9296C205.94 36.7689 208.516 34.3105 211.559 34.3105C214.72 34.3105 217.178 36.8859 217.178 39.9296C217.178 42.9732 214.603 45.5486 211.559 45.5486C208.516 45.5486 205.94 43.0902 205.94 39.9296Z" fill="#86BC25"/>
<path d="M37.1443 24.8394C37.1443 31.3949 35.5054 36.3115 31.9935 39.8234C28.4816 43.3353 23.565 45.0913 17.2436 45.0913H4.83496V6.10938H17.946C24.1503 6.10938 28.8328 7.63119 32.1106 10.9089C35.5054 14.0696 37.1443 18.7521 37.1443 24.8394ZM26.3745 25.1906C26.3745 21.5616 25.6721 18.9863 24.2674 17.2303C22.9797 15.5915 20.7555 14.655 17.946 14.655H15.1365V36.4286H17.4777C20.6384 36.4286 22.8626 35.4921 24.3844 33.6191C25.6721 31.7461 26.3745 28.9366 26.3745 25.1906Z" fill="#323232"/>
<path d="M80.9262 5.98633H71.21V45.0853H80.9262V5.98633Z" fill="#323232"/>
<path d="M113.004 30.4567C113.004 35.1392 111.833 38.8852 109.258 41.5776C106.682 44.2701 103.171 45.5578 98.7222 45.5578C94.3909 45.5578 90.9961 44.2701 88.4207 41.4606C85.8453 38.6511 84.5576 35.0221 84.5576 30.4567C84.5576 25.7742 85.7282 22.0282 88.3036 19.4528C90.879 16.7603 94.3909 15.4727 98.8393 15.4727C101.649 15.4727 104.107 16.058 106.214 17.2286C108.438 18.3992 109.96 20.1552 111.131 22.3794C112.536 24.8377 113.004 27.413 113.004 30.4567ZM94.625 30.4567C94.625 33.0321 94.9762 34.788 95.5615 36.0757C96.1468 37.3634 97.2004 37.9487 98.8393 37.9487C100.478 37.9487 101.415 37.3634 102.117 36.0757C102.702 34.788 103.054 32.7979 103.054 30.4567C103.054 27.8813 102.702 26.1254 102.117 24.8377C101.532 23.667 100.478 22.9647 98.8393 22.9647C97.4345 22.9647 96.2639 23.55 95.5615 24.8377C94.9762 26.1254 94.625 27.8813 94.625 30.4567Z" fill="#323232"/>
<path d="M126.688 15.9355H116.972V44.9671H126.688V15.9355Z" fill="#323232"/>
<path d="M126.688 5.98633H116.972V12.5418H126.688V5.98633Z" fill="#323232"/>
<path d="M146.474 37.5944C147.762 37.5944 149.401 37.2432 151.157 36.6579V44.0328C149.869 44.6181 148.581 44.9693 147.411 45.2034C146.24 45.4376 144.835 45.5546 143.196 45.5546C139.919 45.5546 137.577 44.7352 136.056 42.9793C134.651 41.3404 133.831 38.765 133.831 35.3702V23.4298H130.437V15.9378H133.831V8.67989L143.665 7.04102V16.1719H149.986V23.5469H143.665V34.7849C143.899 36.7749 144.718 37.5944 146.474 37.5944Z" fill="#323232"/>
<path d="M169.197 37.5944C170.484 37.5944 172.123 37.2432 173.879 36.6579V44.0328C172.592 44.6181 171.304 44.9693 170.133 45.2034C168.963 45.4376 167.558 45.5546 165.919 45.5546C162.641 45.5546 160.3 44.7352 158.778 42.9793C157.373 41.3404 156.554 38.765 156.554 35.3702V23.4298H153.159V15.9378H156.554V8.56283L166.387 7.04102V16.1719H172.709V23.5469H166.387V34.7849C166.504 36.7749 167.441 37.5944 169.197 37.5944Z" fill="#323232"/>
<path d="M200.091 18.8675C197.75 16.5262 194.472 15.4727 190.257 15.4727C185.809 15.4727 182.297 16.7603 179.839 19.4528C177.381 22.1452 176.21 25.8912 176.21 30.8079C176.21 35.4904 177.498 39.2364 180.073 41.8118C182.765 44.3871 186.394 45.6748 191.077 45.6748C193.418 45.6748 195.291 45.5578 196.93 45.2066C198.452 44.8554 200.208 44.3871 201.613 43.5677L200.208 37.0122C199.154 37.4804 197.984 37.8316 197.047 38.0658C195.642 38.4169 194.003 38.534 192.365 38.534C190.492 38.534 188.97 38.0658 187.916 37.2463C186.863 36.3098 186.277 35.0221 186.277 33.3832H203.72V28.8178C203.603 24.4865 202.315 21.2087 200.091 18.8675ZM186.277 26.9448C186.394 25.423 186.863 24.1353 187.565 23.4329C188.267 22.7305 189.204 22.3794 190.492 22.3794C191.662 22.3794 192.833 22.7305 193.535 23.55C194.238 24.3694 194.589 25.423 194.706 26.9448H186.277Z" fill="#323232"/>
<path d="M63.954 18.8675C61.4957 16.5262 58.335 15.4727 54.1208 15.4727C49.6724 15.4727 46.1605 16.7603 43.7022 19.4528C41.2439 22.1452 40.0732 25.8912 40.0732 30.8079C40.0732 35.4904 41.3609 39.2364 43.9363 41.8118C46.6288 44.3871 50.2577 45.6748 54.9402 45.6748C57.2815 45.6748 59.1545 45.5578 60.7933 45.2066C62.3151 44.8554 64.0711 44.3871 65.4758 43.5677L64.0711 36.8951C63.0175 37.3634 61.8469 37.7146 60.9104 37.9487C59.5056 38.2999 57.8668 38.4169 56.2279 38.4169C54.3549 38.4169 52.8331 37.9487 51.7795 37.1293C50.7259 36.1928 50.1406 34.9051 50.1406 33.2662H67.583V28.8178C67.4659 24.4865 66.1782 21.2087 63.954 18.8675ZM50.0236 26.9448C50.1406 25.423 50.6089 24.1353 51.3113 23.4329C52.0136 22.7305 52.9501 22.3794 54.2378 22.3794C55.5255 22.3794 56.5791 22.7305 57.2815 23.55C57.9838 24.3694 58.335 25.423 58.4521 26.9448H50.0236Z" fill="#323232"/>
</svg>
