<svg width="242" height="48" viewBox="0 0 242 48" fill="none" xmlns="http://www.w3.org/2000/svg">
<path d="M24.0403 13.0557H17.4985V6.51394C17.4985 3.23614 20.1526 0.582031 23.4304 0.582031H29.9722V7.12376C29.9791 10.4016 27.3181 13.0557 24.0403 13.0557Z" fill="#323232"/>
<path d="M41.1848 13.0557H34.6431V6.51394C34.6431 3.23614 37.2972 0.582031 40.575 0.582031H47.1167V7.12376C47.1236 10.4016 44.4626 13.0557 41.1848 13.0557Z" fill="#323232"/>
<path d="M6.88401 13.0557H0.342285V6.51394C0.342285 3.23614 2.99639 0.582031 6.27419 0.582031H12.8159V7.12376C12.8228 10.4016 10.1618 13.0557 6.88401 13.0557Z" fill="#323232"/>
<path d="M24.0403 30.0713H17.4985V23.5296C17.4985 20.2518 20.1526 17.5977 23.4304 17.5977H29.9722V24.1394C29.9791 27.4172 27.3181 30.0713 24.0403 30.0713Z" fill="#323232"/>
<path d="M6.88401 30.0713H0.342285V23.5296C0.342285 20.2518 2.99639 17.5977 6.27419 17.5977H12.8159V24.1394C12.8228 27.4172 10.1618 30.0713 6.88401 30.0713Z" fill="#323232"/>
<path d="M6.88401 47.0811H0.342285V40.5393C0.342285 37.2615 2.99639 34.6074 6.27419 34.6074H12.8159V41.1491C12.8228 44.4269 10.1618 47.0811 6.88401 47.0811Z" fill="#323232"/>
<path d="M60.9032 16.7916V22.9948H70.7512V26.1988H60.9032V34.0079H57.1167V13.6191H72.0029V16.7916H60.9032Z" fill="#323232"/>
<path d="M88.0238 29.2867H77.8294L75.8221 34.0021H71.9175L81.0964 13.6133H84.8278L94.0303 34.0021H90.0706L88.0238 29.2867ZM86.7722 26.3189L82.9306 17.4076L79.1126 26.3189H86.7722Z" fill="#323232"/>
<path d="M109.952 34.0079L105.788 28.033C105.615 28.0487 105.347 28.0645 105.001 28.0645H100.395V34.0079H96.6089V13.6191H105.001C106.764 13.6191 108.307 13.9104 109.622 14.4929C110.936 15.0755 111.936 15.9099 112.637 16.9963C113.337 18.0826 113.684 19.3737 113.684 20.8694C113.684 22.4044 113.306 23.7269 112.566 24.829C111.826 25.9311 110.747 26.7656 109.346 27.3088L114.038 34.0079H109.952ZM108.59 17.8701C107.732 17.1695 106.481 16.8231 104.835 16.8231H100.411V24.9471H104.835C106.488 24.9471 107.74 24.5929 108.59 23.8844C109.44 23.1759 109.873 22.1683 109.873 20.8694C109.873 19.5705 109.44 18.5707 108.59 17.8701Z" fill="#323232"/>
<path d="M131.245 34.0079L127.081 28.033C126.908 28.0487 126.64 28.0645 126.294 28.0645H121.688V34.0079H117.902V13.6191H126.294C128.057 13.6191 129.6 13.9104 130.914 14.4929C132.229 15.0755 133.229 15.9099 133.929 16.9963C134.63 18.0826 134.976 19.3737 134.976 20.8694C134.976 22.4044 134.606 23.7269 133.859 24.829C133.111 25.939 132.04 26.7656 130.639 27.3088L135.331 34.0079H131.245ZM129.875 17.8701C129.017 17.1695 127.766 16.8231 126.12 16.8231H121.696V24.9471H126.12C127.773 24.9471 129.025 24.5929 129.875 23.8844C130.726 23.1759 131.159 22.1683 131.159 20.8694C131.159 19.5705 130.733 18.5707 129.875 17.8701Z" fill="#323232"/>
<path d="M143.103 32.9494C141.434 32.0441 140.119 30.7924 139.167 29.1944C138.214 27.5884 137.742 25.8015 137.742 23.8177C137.742 21.8339 138.214 20.0469 139.167 18.441C140.119 16.8351 141.426 15.5835 143.103 14.686C144.772 13.7807 146.645 13.332 148.723 13.332C150.802 13.332 152.675 13.7807 154.344 14.686C156.013 15.5913 157.328 16.8351 158.28 18.4253C159.233 20.0155 159.705 21.8182 159.705 23.8177C159.705 25.8172 159.225 27.6121 158.28 29.2101C157.328 30.8003 156.021 32.0519 154.344 32.9494C152.675 33.8546 150.802 34.3034 148.723 34.3034C146.645 34.3034 144.779 33.8546 143.103 32.9494ZM152.4 30.0682C153.486 29.4541 154.344 28.6039 154.966 27.5018C155.588 26.4076 155.895 25.1796 155.895 23.8177C155.895 22.4558 155.58 21.2278 154.966 20.1335C154.344 19.0393 153.486 18.1813 152.4 17.5672C151.313 16.9532 150.085 16.6462 148.731 16.6462C147.377 16.6462 146.149 16.9532 145.063 17.5672C143.976 18.1813 143.118 19.0314 142.496 20.1335C141.875 21.2278 141.568 22.4558 141.568 23.8177C141.568 25.1796 141.875 26.4076 142.496 27.5018C143.118 28.5961 143.969 29.4541 145.063 30.0682C146.149 30.6822 147.377 30.9892 148.731 30.9892C150.085 30.9892 151.313 30.6743 152.4 30.0682Z" fill="#323232"/>
<path d="M187.319 34.3305L184.752 31.8507C182.847 33.4803 180.564 34.299 177.903 34.299C176.486 34.299 175.211 34.0628 174.085 33.5984C172.96 33.1339 172.078 32.4884 171.433 31.6618C170.795 30.8352 170.472 29.8985 170.472 28.8515C170.472 27.5919 170.842 26.4741 171.582 25.5137C172.322 24.5533 173.527 23.6086 175.195 22.6719C174.377 21.8532 173.794 21.0974 173.448 20.3889C173.101 19.6804 172.92 18.9483 172.92 18.1926C172.92 16.752 173.456 15.5948 174.534 14.7131C175.613 13.8315 177.045 13.3906 178.832 13.3906C180.486 13.3906 181.8 13.7921 182.792 14.6029C183.784 15.4059 184.28 16.5001 184.28 17.8777C184.28 18.9247 183.957 19.8615 183.304 20.6723C182.65 21.491 181.588 22.3097 180.116 23.1521L184.516 27.3479C185.004 26.3954 185.382 25.2539 185.65 23.9078L188.594 24.8682C188.208 26.6709 187.594 28.2296 186.76 29.5285L189.326 31.9767L187.319 34.3305ZM182.603 29.7804L177.211 24.6241C176.046 25.2618 175.227 25.8837 174.747 26.4741C174.267 27.0645 174.03 27.7336 174.03 28.4657C174.03 29.3238 174.408 30.0087 175.164 30.5361C175.92 31.0635 176.919 31.3233 178.163 31.3233C179.864 31.3312 181.336 30.8116 182.603 29.7804ZM176.951 16.571C176.486 16.9724 176.25 17.492 176.25 18.1296C176.25 18.5941 176.376 19.0349 176.628 19.4522C176.88 19.8694 177.368 20.4362 178.085 21.1525C179.25 20.5149 180.06 19.956 180.517 19.4758C180.974 18.9956 181.202 18.4839 181.202 17.9171C181.202 17.3188 180.989 16.8386 180.572 16.4922C180.155 16.1459 179.58 15.9648 178.84 15.9648C178.045 15.9727 177.415 16.1774 176.951 16.571Z" fill="#323232"/>
<path d="M204.497 32.9494C202.836 32.0441 201.537 30.8003 200.592 29.2101C199.648 27.6199 199.183 25.8251 199.183 23.8177C199.183 21.8182 199.655 20.0233 200.608 18.4253C201.56 16.8351 202.867 15.5835 204.528 14.686C206.189 13.7807 208.047 13.332 210.11 13.332C211.779 13.332 213.306 13.6233 214.683 14.2058C216.061 14.7884 217.226 15.6307 218.179 16.7407L215.73 19.0393C214.25 17.4491 212.44 16.6541 210.283 16.6541C208.882 16.6541 207.63 16.9611 206.528 17.5751C205.418 18.1891 204.56 19.0393 203.938 20.1257C203.316 21.212 203.009 22.4479 203.009 23.8256C203.009 25.2032 203.316 26.4391 203.938 27.5255C204.56 28.6118 205.426 29.462 206.528 30.076C207.638 30.6901 208.889 30.9971 210.283 30.9971C212.44 30.9971 214.25 30.1941 215.73 28.5803L218.179 30.9105C217.226 32.0204 216.053 32.8628 214.668 33.4453C213.282 34.0278 211.747 34.3191 210.078 34.3191C208.016 34.3034 206.15 33.8546 204.497 32.9494Z" fill="#323232"/>
<path d="M225.274 32.9494C223.606 32.0441 222.291 30.7924 221.338 29.1944C220.386 27.5884 219.914 25.8015 219.914 23.8177C219.914 21.8339 220.386 20.0469 221.338 18.441C222.291 16.8351 223.598 15.5835 225.274 14.686C226.943 13.7807 228.817 13.332 230.895 13.332C232.973 13.332 234.847 13.7807 236.516 14.686C238.185 15.5913 239.499 16.8351 240.452 18.4253C241.404 20.0155 241.877 21.8182 241.877 23.8177C241.877 25.8172 241.397 27.6121 240.452 29.2101C239.499 30.8003 238.193 32.0519 236.516 32.9494C234.847 33.8546 232.973 34.3034 230.895 34.3034C228.817 34.3034 226.943 33.8546 225.274 32.9494ZM234.564 30.0682C235.65 29.4541 236.508 28.6039 237.13 27.5018C237.752 26.4076 238.059 25.1796 238.059 23.8177C238.059 22.4558 237.744 21.2278 237.13 20.1335C236.508 19.0393 235.65 18.1813 234.564 17.5672C233.477 16.9532 232.249 16.6462 230.895 16.6462C229.541 16.6462 228.313 16.9532 227.227 17.5672C226.14 18.1813 225.282 19.0314 224.66 20.1335C224.039 21.2278 223.732 22.4558 223.732 23.8177C223.732 25.1796 224.039 26.4076 224.66 27.5018C225.282 28.5961 226.133 29.4541 227.227 30.0682C228.313 30.6822 229.541 30.9892 230.895 30.9892C232.249 30.9892 233.477 30.6743 234.564 30.0682Z" fill="#323232"/>
</svg>
