<svg width="180" height="47" viewBox="0 0 180 47" fill="none" xmlns="http://www.w3.org/2000/svg">
<g clip-path="url(#clip0_0_1)">
<path d="M37.517 11.1011C37.5012 11.0485 37.4854 10.9959 37.4644 10.9434C25.0115 10.9486 12.5639 10.9434 0.116302 10.9486C0.0847622 10.9854 0.0637358 11.0222 0.0584792 11.0695C0.0584792 20.7259 0.0584792 30.377 0.0532227 40.0333C0.132072 40.5485 0.415928 41.0163 0.794402 41.3685C0.810172 41.3738 0.846968 41.379 0.862738 41.3843C1.05723 41.5893 1.33583 41.6892 1.59866 41.7838C1.79315 41.7733 1.98239 41.8574 2.17689 41.8363H17.6313C17.7785 41.8311 17.9309 41.8574 18.0728 41.7996C18.0781 41.7785 18.0833 41.7417 18.0886 41.7207C18.0938 41.6944 18.0991 41.6366 18.1044 41.6051C18.4355 39.7547 18.7562 37.8992 19.1084 36.0488L19.1399 35.8123C17.7101 35.807 16.2751 35.8123 14.8453 35.807C14.4983 35.7965 14.1409 35.807 13.794 35.765C13.2 35.7387 12.6007 35.7597 12.0067 35.7019C11.2708 35.7019 10.5401 35.6336 9.8042 35.6336C9.22598 35.5757 8.64249 35.5968 8.05901 35.5705C7.68054 35.5232 7.29155 35.5442 6.90782 35.5284C6.28228 35.4601 5.64624 35.5074 5.0207 35.4391C4.35837 35.4443 3.69604 35.3865 3.03371 35.3707C3.03897 35.3655 3.04422 35.3445 3.04422 35.3392C3.265 35.3445 3.48052 35.3287 3.7013 35.3234C4.19016 35.2604 4.68428 35.3024 5.17314 35.2341C5.68303 35.2341 6.18767 35.1657 6.69755 35.1657C7.14962 35.1027 7.60695 35.1395 8.05901 35.0764C8.58993 35.0764 9.11033 35.008 9.64125 35.0028C10.0775 34.945 10.5191 34.9765 10.9554 34.9187C11.4653 34.9239 11.9699 34.8451 12.4798 34.8503C12.9792 34.7925 13.4891 34.8083 13.9884 34.7557C13.9411 34.5612 13.9043 34.3667 13.8623 34.1722C13.8255 34.0513 13.6783 34.0776 13.5837 34.0619C12.443 33.8989 11.3076 33.7359 10.1722 33.5782C10.2458 33.5204 10.3456 33.5467 10.4297 33.5362C11.3128 33.4679 12.1907 33.389 13.0738 33.3259C13.2736 33.3154 13.468 33.2786 13.6678 33.2734C13.5784 33 13.5259 32.7004 13.405 32.4481C11.5178 32.159 9.63073 31.9014 7.74887 31.5913C8.23774 31.5124 8.73186 31.4756 9.22072 31.423L9.26277 31.4073C10.824 31.2443 12.3904 31.0603 13.9517 30.9079C15.9334 30.8974 17.9099 30.9026 19.8916 30.9079C19.9547 30.8974 20.0651 30.9289 20.0756 30.8396C20.2385 29.988 20.3962 29.1364 20.5592 28.2849C20.7852 27.1021 21.1427 25.9352 21.6946 24.8576C22.5619 23.1229 23.9339 21.651 25.6055 20.6733C27.1667 19.7587 28.975 19.3171 30.7727 19.233C31.3562 19.1804 31.945 19.1962 32.5232 19.2698C32.9017 19.3592 33.2907 19.4643 33.5903 19.7219C33.8373 19.9216 33.9845 20.216 34.0949 20.5104C34.3367 21.2095 34.4734 21.9349 34.589 22.6656C34.5943 22.9599 34.6469 23.2911 34.4892 23.5592C34.342 23.822 34.0476 23.9482 33.769 24.027C32.7545 24.2898 31.6926 24.0428 30.6781 24.2898C29.8423 24.4686 29.0644 24.9312 28.5334 25.5987C27.9079 26.3767 27.5767 27.3439 27.3928 28.3111C27.2508 29.1732 27.0721 30.0353 26.9302 30.9026C27.9289 30.9079 28.9329 30.8974 29.9369 30.9079C30.3364 30.9079 30.7465 31.1287 30.9094 31.5071C31.1197 31.9908 31.0724 32.5374 31.004 33.0473C30.9199 33.6203 30.7833 34.188 30.5257 34.7137C30.3102 35.1605 29.9527 35.5705 29.4639 35.7282C29.2115 35.8281 28.9382 35.807 28.6701 35.807C27.787 35.807 26.9039 35.8176 26.0208 35.807C25.8789 36.4536 25.7842 37.1159 25.6581 37.773C25.4268 39.0504 25.2008 40.333 24.9695 41.6156C24.9642 41.6576 24.959 41.747 24.959 41.7943C25.3742 41.8153 25.7895 41.7943 26.2048 41.8048C29.2851 41.8048 32.3708 41.7996 35.4564 41.8048C35.7875 41.8153 36.124 41.7365 36.4131 41.5735C36.5865 41.5104 36.6917 41.358 36.8441 41.2739C36.9913 41.1898 37.0333 41.0163 37.1595 40.9059C37.2962 40.6641 37.4381 40.4118 37.4486 40.128C37.4644 40.128 37.5064 40.1227 37.5275 40.1174C37.5117 30.4453 37.5275 20.7732 37.517 11.1011Z" fill="url(#paint0_linear_0_1)" stroke="#FCD109" stroke-width="0.0049412"/>
<path d="M4.96402 4.74313C5.41083 4.6012 5.87866 4.69582 6.33599 4.66428C14.92 4.66953 23.504 4.66428 32.088 4.66428C32.5979 4.64325 33.0447 4.93236 33.5178 5.07955C33.8963 5.23199 34.2905 5.35289 34.669 5.51585C34.7479 5.54739 34.8057 5.61572 34.8635 5.67354C34.8583 6.36741 34.8635 7.06654 34.8635 7.76567C34.8688 7.94965 34.8372 8.13888 34.9003 8.31761C35.0107 8.33338 35.0685 8.41748 35.1421 8.48582C35.489 8.64352 35.7834 8.90109 36.0988 9.11135C36.5719 9.44778 37.0765 9.74215 37.5391 10.0891C37.5601 10.2258 37.5444 10.3677 37.5023 10.4938C37.455 10.641 37.4865 10.7987 37.4708 10.9459C25.0179 10.9512 12.5703 10.9459 0.122696 10.9512C0.0964128 10.7777 0.143722 10.6042 0.0701298 10.4413C0.0596166 10.3046 0.0123073 10.1259 0.143722 10.0313C0.669381 9.6633 1.22658 9.33213 1.74173 8.94314C2.06238 8.73814 2.37252 8.52787 2.68266 8.31761C2.74573 8.21248 2.72471 8.08106 2.72471 7.96542C2.72471 7.20321 2.72471 6.44101 2.72997 5.6788C2.90869 5.44751 3.21883 5.42123 3.46589 5.30558C3.96526 5.11634 4.4699 4.93236 4.96402 4.74313ZM4.99556 4.83249C4.32271 5.09006 3.64461 5.33712 2.97177 5.59469C2.88241 5.61046 2.8351 5.68931 2.78779 5.75765C2.79304 5.7997 2.7983 5.87329 2.7983 5.91535C2.79304 6.54614 2.7983 7.17693 2.79304 7.80772C2.7983 7.96542 2.77727 8.12311 2.8351 8.26504C2.76676 8.33338 2.69317 8.40171 2.60906 8.45428C1.84686 8.9484 1.11093 9.48457 0.348729 9.97343C0.217314 10.0523 0.0701298 10.1574 0.112183 10.3309C0.0858996 10.4255 0.133209 10.5044 0.233084 10.4781C1.88365 10.4676 3.52897 10.4886 5.17954 10.4623C7.63437 10.4623 10.0839 10.4676 12.5388 10.4623L12.5756 10.4465C12.686 10.4728 12.7963 10.4623 12.912 10.4623C17.3591 10.4623 21.8061 10.4676 26.2585 10.4623C27.6567 10.4676 29.0602 10.4623 30.4637 10.4623C32.7766 10.4623 35.0948 10.4833 37.4077 10.4728C37.476 10.457 37.4971 10.4097 37.4708 10.3256C37.4655 10.2415 37.4971 10.1259 37.4077 10.0733C37.0397 9.89984 36.7243 9.63176 36.3722 9.42149C36.246 9.31636 36.083 9.25854 35.9884 9.11661C35.6257 8.9116 35.2893 8.65929 34.9318 8.43325C34.8635 8.3912 34.8109 8.32287 34.7531 8.26504C34.7847 8.15465 34.7952 8.03375 34.7952 7.91811C34.7899 7.25052 34.7952 6.58293 34.7899 5.91535C34.8057 5.81021 34.8004 5.68931 34.7058 5.62098C34.075 5.39494 33.4495 5.15314 32.824 4.92185C32.6295 4.82723 32.4139 4.77467 32.2037 4.74313H5.33723C5.22159 4.74838 5.1112 4.80621 4.99556 4.83249Z" fill="#F8F3B5" stroke="#F8F3B5" stroke-width="0.0049412"/>
<path d="M2.80067 5.91602C3.26325 6.11051 3.75737 6.2209 4.2252 6.41014C4.47752 6.51001 4.55637 6.78335 4.66676 7.00413C4.55637 7.11452 4.42495 7.20388 4.29354 7.28799C3.80993 7.61389 3.31581 7.92929 2.83746 8.26571C2.77964 8.12378 2.80067 7.96609 2.79541 7.80839C2.80067 7.1776 2.79541 6.54681 2.80067 5.91602ZM33.3677 6.41014C33.8356 6.22615 34.3244 6.1 34.7923 5.91602C34.7975 6.5836 34.7923 7.25119 34.7975 7.91878C34.7975 8.03442 34.787 8.15532 34.7555 8.26571C34.3455 7.98186 33.9302 7.71377 33.5202 7.43517C33.3204 7.28799 33.0997 7.1776 32.9209 6.99887C33.0313 6.7781 33.1154 6.51001 33.3677 6.41014Z" fill="#F7B402" stroke="#F7B402" stroke-width="0.0049412"/>
<path d="M10.8151 6.62448C11.3933 6.48781 12.0399 7.00296 11.9926 7.60747C11.9978 8.20146 11.3723 8.68507 10.7993 8.5484C10.568 8.46955 10.3472 8.34865 10.2053 8.14364C10.0213 7.86504 9.97928 7.49182 10.1265 7.18694C10.2316 6.89257 10.5155 6.69282 10.8151 6.62448ZM25.8121 6.95565C26.0539 6.68756 26.4377 6.53512 26.7951 6.62974C27.0632 6.70859 27.326 6.88206 27.4417 7.14489C27.673 7.59695 27.4942 8.20672 27.0422 8.44327C26.6427 8.66404 26.138 8.55891 25.8332 8.23826C25.523 7.88607 25.502 7.30784 25.8121 6.95565Z" fill="#BDA727" stroke="#BDA727" stroke-width="0.0049412"/>
<path d="M4.28641 7.28911C4.41782 7.20501 4.54924 7.11564 4.65962 7.00526L4.69642 7.04205C4.73322 7.3154 4.70693 7.59399 4.71745 7.86734C4.70168 8.68737 4.73322 9.51265 4.69642 10.3327C3.16675 10.3327 1.63708 10.3222 0.107417 10.3327C0.0653639 10.1592 0.212548 10.0541 0.343963 9.97523C1.10617 9.48637 1.84209 8.9502 2.6043 8.45608C2.6884 8.40351 2.762 8.33517 2.83033 8.26684C3.30868 7.93042 3.8028 7.61502 4.28641 7.28911ZM32.8612 7.18398C32.8612 7.11565 32.877 7.05782 32.9138 7C33.0925 7.17872 33.3133 7.28911 33.5131 7.4363C33.9231 7.7149 34.3383 7.98298 34.7484 8.26684C34.8062 8.32466 34.8587 8.393 34.9271 8.43505C35.2845 8.66108 35.6209 8.9134 35.9837 9.11841C36.0783 9.26033 36.2412 9.31816 36.3674 9.42329C36.7196 9.63355 37.035 9.90164 37.4029 10.0751C37.4923 10.1277 37.4608 10.2433 37.466 10.3274C35.9363 10.3327 34.4119 10.3222 32.8823 10.3327C32.856 10.1224 32.8718 9.91215 32.8665 9.70714C32.8665 8.86609 32.856 8.02504 32.8612 7.18398Z" fill="#F7E62D" stroke="#F7E62D" stroke-width="0.0049412"/>
<path d="M37.4659 10.3266C35.9362 10.3319 34.4118 10.3214 32.8821 10.3319C32.8558 10.1216 32.8716 9.91137 32.8663 9.70636C32.8663 8.86531 32.8558 8.02425 32.8611 7.1832C32.8611 7.11486 32.8769 7.05704 32.9137 6.99922C33.024 6.77844 33.1081 6.51036 33.3605 6.41048C33.8283 6.2265 34.3172 6.10034 34.785 5.91636C34.8008 5.81123 34.7955 5.69033 34.7009 5.62199C34.0701 5.39596 33.4446 5.15415 32.819 4.92286C32.6245 4.82825 32.409 4.77568 32.1988 4.74414H5.33231C5.21667 4.7494 5.10628 4.80722 4.99064 4.8335C4.31779 5.09108 3.63969 5.33814 2.96685 5.59571C2.87749 5.61148 2.83018 5.69033 2.78287 5.75866C2.78812 5.80072 2.79338 5.87431 2.79338 5.91636C3.25596 6.11085 3.75008 6.22124 4.21792 6.41048C4.47023 6.51036 4.54908 6.7837 4.65947 7.00447L4.69627 7.04127C4.73306 7.31461 4.70678 7.59321 4.71729 7.86656C4.70152 8.68658 4.73306 9.51187 4.69627 10.3319C3.1666 10.3319 1.63693 10.3214 0.107262 10.3319C0.0809793 10.4265 0.128289 10.5054 0.228164 10.4791C1.87873 10.4686 3.52405 10.4896 5.17462 10.4633C7.62945 10.4633 10.079 10.4686 12.5338 10.4633L12.5706 10.4475C12.681 10.4738 12.7914 10.4633 12.9071 10.4633C17.3541 10.4633 21.8012 10.4686 26.2535 10.4633C27.6518 10.4686 29.0553 10.4633 30.4588 10.4633C32.7717 10.4633 35.0899 10.4843 37.4028 10.4738C37.4711 10.4581 37.4921 10.4107 37.4659 10.3266ZM10.1263 7.18846C10.2315 6.89409 10.5153 6.69434 10.8149 6.626C11.3932 6.48933 12.0397 7.00447 11.9924 7.60898C11.9977 8.20298 11.3721 8.68658 10.7992 8.54991C10.5679 8.47106 10.3471 8.35016 10.2052 8.14516C10.0212 7.86656 9.97914 7.49334 10.1263 7.18846ZM25.812 6.95717C26.0538 6.68908 26.4375 6.53664 26.795 6.63126C27.0631 6.71011 27.3259 6.88357 27.4415 7.1464C27.6728 7.59847 27.4941 8.20823 27.042 8.44478C26.6425 8.66556 26.1379 8.56043 25.833 8.23977C25.5229 7.88758 25.5019 7.30936 25.812 6.95717Z" fill="url(#paint1_radial_0_1)" stroke="#FCD109" stroke-width="0.0049412"/>
<path d="M27.1595 12.6371C27.2331 12.6529 26.7763 12.1982 26.8656 12.1772C26.9498 12.1877 27.2688 11.9401 27.6541 12.142C28.0394 12.3438 27.9438 12.8164 27.9001 12.992C27.8481 13.2007 27.7151 13.3336 27.61 13.4388C27.5522 13.4861 27.4223 13.5597 27.3435 13.5544C27.3908 13.2968 27.2383 13.2548 27.2278 12.992L27.1595 12.6371Z" fill="url(#paint2_linear_0_1)" stroke="#FCD109" stroke-width="0.0049412"/>
<path d="M10.3542 12.9219C10.3437 13.1847 10.1912 13.2268 10.2385 13.4843C10.1597 13.4896 10.0298 13.416 9.97202 13.3687C9.86689 13.2636 9.73442 13.1306 9.68238 12.9219C9.63875 12.7468 9.54308 12.2743 9.92839 12.0719C10.3137 11.8695 10.6328 12.1176 10.7169 12.1071C10.8062 12.1281 10.3494 12.5828 10.423 12.5671L10.3542 12.9219Z" fill="url(#paint3_linear_0_1)" stroke="#FCD109" stroke-width="0.0049412"/>
<path d="M26.4635 16.0044C26.5423 15.9355 26.5949 15.9355 26.7 15.9355C26.0692 17.3023 25.3333 18.669 24.2268 19.7329C24.1085 19.8386 23.9834 19.9363 23.8525 20.0262C23.7258 20.1187 23.6018 20.206 23.4783 20.2943C23.3574 20.3784 23.237 20.4625 23.1203 20.5508C22.8207 20.7138 22.5578 20.9398 22.2267 21.0397C21.6222 21.3288 20.9703 21.5233 20.3133 21.66C20.0557 21.702 19.7929 21.7651 19.53 21.7704C19.2041 21.865 18.8572 21.7966 18.526 21.8177C18.342 21.8492 18.1791 21.7441 18.0004 21.7651C17.8453 21.743 17.6907 21.7167 17.5367 21.6863C17.3806 21.6542 17.2255 21.6174 17.072 21.5759C14.6624 20.8242 12.297 18.9844 11.6078 16.4959C11.5768 16.3282 11.561 16.1584 11.561 15.9876C11.6346 16.1348 11.7108 16.2809 11.7897 16.4255C12.7701 18.5633 14.715 20.2454 17.0126 20.7527C17.1993 20.8378 17.4011 20.8079 17.5798 20.8815C17.7428 20.8815 17.9005 20.8762 18.0582 20.9288C18.5996 20.9393 19.141 20.934 19.6825 20.934C19.7561 20.9393 19.8244 20.9025 19.898 20.8867C20.8005 20.8562 21.6847 20.6102 22.5079 20.237C22.6724 20.1624 22.8348 20.0825 22.9941 19.9984C23.1334 19.9248 23.2701 19.8454 23.4026 19.7597C23.5329 19.6756 23.6591 19.5863 23.7821 19.4916C24.7551 18.721 25.5961 17.7223 26.1675 16.5737C26.2758 16.3682 26.3757 16.1768 26.4635 16.0044Z" fill="#BDA727" stroke="#BDA727" stroke-width="0.0049412"/>
<path d="M25.6138 20.6763C27.175 19.7617 28.9833 19.3201 30.781 19.236C31.3645 19.1835 31.9532 19.1992 32.5315 19.2728C32.9099 19.3622 33.2989 19.4673 33.5986 19.7249C33.4461 19.7354 33.2989 19.6671 33.1465 19.646C32.7155 19.5619 32.2686 19.5935 31.8323 19.583C30.5655 19.583 29.2882 19.6828 28.0634 20.0298C27.4221 20.2243 26.7808 20.4503 26.1973 20.7867C25.188 21.3439 24.2786 22.0798 23.5427 22.963C22.2286 24.4716 21.4558 26.385 21.0826 28.3352C20.9039 29.3813 20.6989 30.4221 20.5359 31.4734C20.2731 31.4997 20.005 31.4839 19.7422 31.4839C18.5857 31.4786 17.4293 31.4734 16.2728 31.4629C16.0258 31.4734 15.784 31.4156 15.5369 31.4313C13.4343 31.4418 11.3316 31.4261 9.229 31.4261L9.27106 31.4103C10.8323 31.2473 12.3987 31.0634 13.9599 30.9109C15.9417 30.9004 17.9181 30.9057 19.8999 30.9109C19.963 30.9004 20.0734 30.9319 20.0839 30.8426C20.2468 29.991 20.4045 29.1394 20.5675 28.2879C20.7935 27.1051 21.151 25.9382 21.7029 24.8606C22.5702 23.1259 23.9422 21.6541 25.6138 20.6763Z" fill="#0D69B3" stroke="#0D69B3" stroke-width="0.0049412"/>
<path d="M28.0629 20.0269C29.2877 19.68 30.565 19.5801 31.8319 19.5801C32.2682 19.5906 32.715 19.5591 33.146 19.6432C33.2984 19.6642 33.4456 19.7325 33.5981 19.722C33.8451 19.9218 33.9923 20.2161 34.1027 20.5105C34.3445 21.2096 34.4812 21.935 34.5968 22.6657C34.6021 22.9601 34.6546 23.2912 34.4969 23.5593C34.3498 23.8221 34.0554 23.9483 33.7768 24.0272C32.7623 24.29 31.7004 24.0429 30.6859 24.29C29.8501 24.4687 29.0721 24.9313 28.5412 25.5989C27.9157 26.3769 27.5845 27.3441 27.4005 28.3113C27.2586 29.1734 27.0799 30.0354 26.938 30.9028C26.8749 31.0973 26.8381 31.3075 26.8013 31.5125C27.7948 31.5283 28.7883 31.5125 29.7818 31.5231C30.1603 31.5125 30.5387 31.5336 30.9172 31.5073C31.1275 31.9909 31.0802 32.5376 31.0118 33.0475C30.9277 33.6204 30.791 34.1881 30.5335 34.7138C30.318 35.1606 29.9605 35.5706 29.4716 35.7283C29.2193 35.8282 28.946 35.8072 28.6779 35.8072C27.7948 35.8072 26.9117 35.8177 26.0286 35.8072C25.8867 36.4537 25.792 37.1161 25.6659 37.7731C25.4346 39.0505 25.2086 40.3331 24.9773 41.6157C24.972 41.6578 24.9667 41.7471 24.9667 41.7944V41.7997C22.6696 41.7997 20.3777 41.8049 18.0806 41.7997C18.0859 41.7787 18.0911 41.7419 18.0964 41.7208C18.1016 41.6946 18.1069 41.6367 18.1122 41.6052C18.1174 41.6472 18.1227 41.7261 18.1279 41.7629C18.2698 41.7787 18.5274 41.8523 18.5642 41.6472C18.9217 39.7128 19.2528 37.7679 19.6208 35.8335C19.4789 35.8019 19.3317 35.8019 19.1845 35.8282C19.1635 35.9018 19.1424 35.9754 19.1162 36.049L19.1477 35.8124C17.7179 35.8072 16.2829 35.8124 14.8531 35.8072C14.5061 35.7967 14.1487 35.8072 13.8017 35.7651C13.2078 35.7388 12.6085 35.7599 12.0145 35.702C11.2786 35.702 10.5479 35.6337 9.81199 35.6337C9.23377 35.5759 8.65029 35.5969 8.06681 35.5706C7.68833 35.5233 7.29934 35.5443 6.91561 35.5286C6.29008 35.4602 5.65403 35.5076 5.0285 35.4392C4.36616 35.4445 3.70383 35.3866 3.0415 35.3709C3.04676 35.3656 3.05202 35.3446 3.05202 35.3393C3.27279 35.3446 3.48831 35.3288 3.70909 35.3236C4.19795 35.2605 4.69207 35.3025 5.18094 35.2342C5.69083 35.2342 6.19546 35.1659 6.70535 35.1659C7.15741 35.1028 7.61474 35.1396 8.06681 35.0765C8.59772 35.0765 9.11812 35.0082 9.64904 35.0029C10.0853 34.9451 10.5269 34.9766 10.9632 34.9188C11.4731 34.9241 11.9777 34.8452 12.4876 34.8505C12.987 34.7927 13.4969 34.8084 13.9962 34.7559C13.9489 34.5614 13.9121 34.3669 13.8701 34.1724C13.8333 34.0515 13.6861 34.0778 13.5915 34.062C12.4508 33.899 11.3154 33.7361 10.18 33.5784C10.2535 33.5206 10.3534 33.5468 10.4375 33.5363C11.3206 33.468 12.1985 33.3891 13.0816 33.3261C13.2813 33.3156 13.4758 33.2788 13.6756 33.2735C13.5862 33.0002 13.5337 32.7005 13.4128 32.4482C11.5256 32.1591 9.63853 31.9015 7.75667 31.5914C8.24553 31.5125 8.73965 31.4757 9.22851 31.4232C11.3311 31.4232 13.4338 31.4389 15.5364 31.4284C15.7835 31.4127 16.0253 31.4705 16.2723 31.46C17.4288 31.4705 18.5852 31.4757 19.7417 31.481C20.0045 31.481 20.2726 31.4968 20.5354 31.4705C20.6984 30.4192 20.9034 29.3784 21.0821 28.3323C21.4553 26.3821 22.2281 24.4687 23.5422 22.9601C24.2781 22.077 25.1875 21.341 26.1968 20.7838C26.7803 20.4474 27.4216 20.2214 28.0629 20.0269Z" fill="#107BD4" stroke="#107BD4" stroke-width="0.0049412"/>
<path d="M26.9376 30.9062C27.9364 30.9115 28.9404 30.901 29.9444 30.9115C30.3439 30.9115 30.7539 31.1323 30.9169 31.5108C30.5384 31.537 30.1599 31.516 29.7815 31.5265C28.788 31.516 27.7945 31.5318 26.801 31.516C26.8378 31.311 26.8746 31.1007 26.9376 30.9062ZM19.1842 35.8317C19.3313 35.8054 19.4785 35.8054 19.6205 35.8369C19.2525 37.7714 18.9213 39.7163 18.5639 41.6507C18.5271 41.8557 18.2695 41.7821 18.1276 41.7664C18.1223 41.7296 18.1171 41.6507 18.1118 41.6087C18.443 39.7584 18.7636 37.9028 19.1158 36.0525C19.1421 35.9789 19.1631 35.9053 19.1842 35.8317Z" fill="#0D69B3" stroke="#0D69B3" stroke-width="0.0049412"/>
<path d="M27.3909 12.7825C27.3488 12.7037 27.3436 12.6091 27.3436 12.5197L27.3015 12.525C27.2384 12.2937 27.0439 12.0729 26.7916 12.0624C26.6024 12.0466 26.3658 12.0519 26.2554 12.2306C26.0452 12.5144 26.145 12.8772 26.1345 13.1978C26.1345 13.2188 26.1398 13.2556 26.1398 13.2767C26.1398 13.4922 26.1135 13.7024 26.0767 13.9127C26.0452 13.9758 26.0294 14.0441 26.0294 14.1177C25.94 14.6118 25.7613 15.1007 25.5195 15.5475C25.4722 15.6106 25.4354 15.6789 25.4196 15.7525C25.2619 16.0259 25.0727 16.2782 24.8782 16.5305C24.8467 16.5568 24.8204 16.5883 24.7941 16.6198C24.6574 16.7881 24.5102 16.93 24.3578 17.0772C24.321 17.0982 24.2947 17.1245 24.2632 17.1455C24.0845 17.319 23.8847 17.4819 23.6692 17.6133C23.6429 17.6291 23.6166 17.6501 23.5851 17.6712C22.2394 18.5595 20.6046 18.9275 19.0119 18.9433C17.6609 18.9853 16.2995 18.6962 15.0799 18.1127C15.0589 18.1022 15.0063 18.0812 14.9853 18.0707C14.7803 17.9603 14.57 17.8657 14.3808 17.729C14.3387 17.708 14.2967 17.6817 14.2494 17.6607C14.0549 17.545 13.8709 17.4188 13.6974 17.2717C13.6396 17.2191 13.5765 17.177 13.5135 17.1297C13.3242 16.9773 13.1297 16.8143 12.9668 16.6304C12.9247 16.5831 12.8827 16.541 12.8406 16.4989C12.2676 15.905 11.8208 15.1795 11.5843 14.3911C11.3583 13.7655 11.3898 13.0822 11.3635 12.4251C11.1743 12.136 10.7748 11.973 10.4594 12.1517C10.328 12.2464 10.3122 12.4198 10.2123 12.5407C10.0494 14.2754 10.7905 16.0048 11.9733 17.2559C11.9733 17.2979 11.9943 17.3242 12.0311 17.34C12.2414 17.5345 12.4464 17.7342 12.6566 17.9235C12.6934 17.9603 12.7355 17.9971 12.7828 18.0286C12.9931 18.2021 13.2191 18.3598 13.4399 18.5227C13.4819 18.5543 13.524 18.5806 13.5713 18.6068C13.8604 18.775 14.1337 18.9748 14.4439 19.0904C14.4649 19.1062 14.5017 19.1325 14.5227 19.143C15.5215 19.6214 16.5991 19.9473 17.703 20.0524C17.8239 20.0524 17.9448 20.0629 18.0657 20.0892C18.5913 20.1207 19.117 20.105 19.6426 20.0945C21.2669 19.9525 22.9438 19.5583 24.3 18.6016L24.3158 18.6226C24.3578 18.5858 24.3946 18.5543 24.4367 18.5227C24.6522 18.365 24.8624 18.1968 25.0727 18.0234C25.12 17.9866 25.1726 17.9445 25.2199 17.8972C25.4512 17.6449 25.7193 17.4136 25.9138 17.1245L25.9453 17.1402C25.9611 17.114 25.9874 17.0614 26.0031 17.0351C26.1818 16.7933 26.3448 16.541 26.5025 16.2887C26.513 16.2729 26.5393 16.2466 26.5498 16.2309L26.5288 16.2098C26.5445 16.1888 26.5813 16.1468 26.5971 16.1257C26.8862 15.537 27.1438 14.922 27.2332 14.2702C27.27 14.2544 27.291 14.2228 27.291 14.186C27.2962 13.9758 27.3698 13.776 27.3488 13.5658C27.3961 13.3082 27.4014 13.0454 27.3909 12.7825Z" fill="white" stroke="white" stroke-width="0.0049412"/>
<mask id="mask0_0_1" style="mask-type:luminance" maskUnits="userSpaceOnUse" x="10" y="12" width="18" height="9">
<path d="M27.3909 12.7825C27.3488 12.7037 27.3436 12.6091 27.3436 12.5197L27.3015 12.525C27.2384 12.2937 27.0439 12.0729 26.7916 12.0624C26.6024 12.0466 26.3658 12.0519 26.2554 12.2306C26.0452 12.5144 26.145 12.8772 26.1345 13.1978C26.1345 13.2188 26.1398 13.2556 26.1398 13.2767C26.1398 13.4922 26.1135 13.7024 26.0767 13.9127C26.0452 13.9758 26.0294 14.0441 26.0294 14.1177C25.94 14.6118 25.7613 15.1007 25.5195 15.5475C25.4722 15.6106 25.4354 15.6789 25.4196 15.7525C25.2619 16.0259 25.0727 16.2782 24.8782 16.5305C24.8467 16.5568 24.8204 16.5883 24.7941 16.6198C24.6574 16.7881 24.5102 16.93 24.3578 17.0772C24.321 17.0982 24.2947 17.1245 24.2632 17.1455C24.0845 17.319 23.8847 17.4819 23.6692 17.6133C23.6429 17.6291 23.6166 17.6501 23.5851 17.6712C22.2394 18.5595 20.6046 18.9275 19.0119 18.9433C17.6609 18.9853 16.2995 18.6962 15.0799 18.1127C15.0589 18.1022 15.0063 18.0812 14.9853 18.0707C14.7803 17.9603 14.57 17.8657 14.3808 17.729C14.3387 17.708 14.2967 17.6817 14.2494 17.6607C14.0549 17.545 13.8709 17.4188 13.6974 17.2717C13.6396 17.2191 13.5765 17.177 13.5135 17.1297C13.3242 16.9773 13.1297 16.8143 12.9668 16.6304C12.9247 16.5831 12.8827 16.541 12.8406 16.4989C12.2676 15.905 11.8208 15.1795 11.5843 14.3911C11.3583 13.7655 11.3898 13.0822 11.3635 12.4251C11.1743 12.136 10.7748 11.973 10.4594 12.1517C10.328 12.2464 10.3122 12.4198 10.2123 12.5407C10.0494 14.2754 10.7905 16.0048 11.9733 17.2559C11.9733 17.2979 11.9943 17.3242 12.0311 17.34C12.2414 17.5345 12.4464 17.7342 12.6566 17.9235C12.6934 17.9603 12.7355 17.9971 12.7828 18.0286C12.9931 18.2021 13.2191 18.3598 13.4399 18.5227C13.4819 18.5543 13.524 18.5806 13.5713 18.6068C13.8604 18.775 14.1337 18.9748 14.4439 19.0904C14.4649 19.1062 14.5017 19.1325 14.5227 19.143C15.5215 19.6214 16.5991 19.9473 17.703 20.0524C17.8239 20.0524 17.9448 20.0629 18.0657 20.0892C18.5913 20.1207 19.117 20.105 19.6426 20.0945C21.2669 19.9525 22.9438 19.5583 24.3 18.6016L24.3158 18.6226C24.3578 18.5858 24.3946 18.5543 24.4367 18.5227C24.6522 18.365 24.8624 18.1968 25.0727 18.0234C25.12 17.9866 25.1726 17.9445 25.2199 17.8972C25.4512 17.6449 25.7193 17.4136 25.9138 17.1245L25.9453 17.1402C25.9611 17.114 25.9874 17.0614 26.0031 17.0351C26.1818 16.7933 26.3448 16.541 26.5025 16.2887C26.513 16.2729 26.5393 16.2466 26.5498 16.2309L26.5288 16.2098C26.5445 16.1888 26.5813 16.1468 26.5971 16.1257C26.8862 15.537 27.1438 14.922 27.2332 14.2702C27.27 14.2544 27.291 14.2228 27.291 14.186C27.2962 13.9758 27.3698 13.776 27.3488 13.5658C27.3961 13.3082 27.4014 13.0454 27.3909 12.7825Z" fill="white"/>
</mask>
<g mask="url(#mask0_0_1)">
<path d="M9.81494 12.6053C10.2413 12.7389 11.22 12.403 11.4971 12.7105M10.0599 13.9016C10.4683 13.7597 11.3441 13.4233 11.7068 13.6214M10.4804 15.1984C10.6781 15.2625 11.0671 14.9156 11.26 14.8142C11.5475 14.6628 11.8424 14.5471 12.1625 14.4977M11.1112 16.5651C11.3146 16.276 11.5586 16.0353 11.8524 15.8303C12.1441 15.6268 12.9416 15.0822 13.2838 15.2689M11.7073 17.5465C11.9386 17.3631 12.0327 17.0377 12.275 16.8448C12.5683 16.6114 13.0183 16.5693 13.319 16.4253M12.6971 18.2735C12.7665 17.7652 13.2822 17.1523 13.7747 17.1959M13.4593 18.9832C13.7195 18.9569 13.9398 18.3744 14.1159 18.1773C14.3798 17.8819 14.6526 17.7904 15.0016 17.6864M14.9664 19.614C14.9496 19.246 15.3296 18.192 15.7722 18.2472M16.0876 19.9646C16.0692 19.5298 16.2937 18.2225 16.8236 18.1773M17.2441 20.6653C17.1437 20.0576 17.15 19.1782 17.6294 18.7377M18.6807 20.8056C18.6271 20.2989 18.124 19.2749 18.6807 18.878M20.223 20.455C19.9828 20.1764 19.8429 19.0773 19.9428 18.7729M21.6948 20.2095C21.5093 19.8731 21.2796 19.5567 21.2097 19.1661C21.1676 18.9327 21.2412 18.6 21.2044 18.4223M22.9212 19.6839C22.5191 19.421 22.4076 18.4543 22.5359 18.037M24.1129 19.1582C23.8269 18.5448 23.522 18.069 23.5173 17.371M25.2693 18.037C24.8251 17.7379 24.258 17.1949 24.3231 16.6003M26.4957 17.0908C25.8207 16.941 25.0102 16.337 24.6033 15.794M27.0566 15.9343C26.5693 15.8297 24.9602 15.2021 25.0591 14.5676M27.5822 14.708C26.9036 14.4593 25.9164 14.2354 25.3745 13.7618M27.9323 13.5862C27.505 13.623 26.8926 13.4159 26.4578 13.3407C25.9753 13.2577 25.5279 13.0947 25.0585 12.9901M27.5118 12.5002C26.6876 12.5496 25.9138 12.2673 25.1637 12.0098" stroke="#D1D1D1" stroke-width="0.105132"/>
</g>
</g>
<path d="M68.1761 14.9864L68.5435 12.5949C68.606 12.2197 68.4965 11.8444 68.2465 11.5552C68.0041 11.266 67.6445 11.1018 67.2616 11.1018H52.7383C52.0973 11.1018 51.5581 11.5629 51.4564 12.1961L47.5559 36.8573C47.5012 37.2325 47.6029 37.6157 47.8529 37.9049C48.0953 38.1941 48.4549 38.366 48.83 38.366H52.1833C52.8244 38.366 53.3558 37.9049 53.4653 37.2718L54.9739 27.704H63.283C63.9161 27.704 64.4554 27.2429 64.5571 26.6098L64.901 24.5228C64.9556 24.1477 64.8541 23.7647 64.6039 23.4755C64.3538 23.1785 63.9943 23.0141 63.6112 23.0141H55.7711L56.7952 16.0887H66.8864C67.543 16.0809 68.0824 15.6274 68.1761 14.9864ZM144.302 23.2175L144.2 23.1782C143.302 22.9046 142.255 22.7565 141.106 22.7565C139.237 22.7565 137.815 23.5144 136.885 25.0153C135.977 26.4926 135.508 28.1578 135.508 29.9555C135.508 31.0889 135.704 32.0423 136.094 32.7848C136.501 33.5508 137.08 33.9497 137.815 33.9497C138.635 33.9497 139.58 33.4179 140.636 32.3783C141.668 31.3622 142.613 30.1432 143.426 28.7674L144.302 23.2175ZM150.4 20.3802L147.734 37.295C147.632 37.936 147.092 38.3897 146.452 38.3897H144.475C144.122 38.3897 143.786 38.2487 143.543 37.9909C143.302 37.7407 143.168 37.3969 143.185 37.0451L143.263 34.9501L143.029 35.2081C143.02 35.2159 142.262 36.0601 141.386 36.7402C140.081 37.7563 138.635 38.3035 138.479 38.366C137.674 38.663 136.807 38.8114 135.899 38.8114C133.906 38.8114 132.421 38.1001 131.335 36.6463C130.256 35.2001 129.716 33.2776 129.716 30.9482C129.716 29.7367 129.841 28.5407 130.076 27.3995C130.318 26.2583 130.741 25.1014 131.342 23.9522C131.944 22.811 132.703 21.7948 133.594 20.9428C134.477 20.0908 135.649 19.395 137.063 18.8634C138.479 18.3397 140.096 18.0742 141.856 18.0742C144.02 18.0742 146.546 18.3478 149.36 18.9028C150.055 19.0435 150.509 19.6845 150.4 20.3802ZM164.563 18.2696C163.234 18.5822 161.936 19.3952 161.077 20.0283C160.1 20.7474 158.701 22.2718 158.677 22.2874L158.443 22.5454L158.567 19.8562C158.584 19.5044 158.458 19.1527 158.207 18.8947C157.966 18.6368 157.622 18.4963 157.27 18.4963H155.276C154.636 18.4963 154.096 18.9496 153.995 19.5905L151.267 36.8885C151.213 37.2638 151.321 37.639 151.564 37.9283C151.807 38.2175 152.165 38.3816 152.549 38.3816H155.629C156.269 38.3816 156.809 37.9205 156.91 37.2874L158.348 28.0793C159.169 26.9224 160.232 25.9297 161.522 25.1167C162.484 24.5149 163.468 24.1241 164.453 23.9756C164.993 23.8895 165.422 23.4757 165.524 22.9363L166.118 19.7703C166.204 19.3404 166.064 18.9026 165.743 18.5978C165.446 18.293 164.993 18.1758 164.563 18.2696ZM102.764 26.9305C102.764 25.7893 102.562 24.8354 102.17 24.1007C101.764 23.3347 101.194 22.9439 100.459 22.9439C99.638 22.9439 98.684 23.4679 97.637 24.5152C96.5975 25.5392 95.6585 26.7505 94.838 28.1263L93.9631 33.6685L94.073 33.6997C94.9715 33.9811 96.011 34.1215 97.1675 34.1215C99.044 34.1215 100.466 33.3635 101.389 31.8628C102.296 30.3932 102.764 28.736 102.764 26.9305ZM106.931 20.247C108.002 21.6931 108.55 23.6162 108.55 25.9378C108.55 27.4697 108.338 28.9703 107.924 30.3929C107.509 31.8155 106.853 33.1991 105.97 34.5124C105.094 35.8099 103.828 36.8729 102.202 37.6546C100.568 38.444 98.63 38.8508 96.449 38.8508C95.5895 38.8508 94.502 38.7649 93.2204 38.5852L93.0877 38.5694L92.8531 40.9144C92.8453 40.9379 92.8453 40.961 92.8453 40.9924L92.1653 45.1117C92.0558 45.737 91.5242 46.1906 90.8911 46.1906H87.8348C87.4519 46.1906 87.1001 46.0264 86.8577 45.7372C86.6077 45.448 86.4982 45.0725 86.5607 44.6896L90.5473 19.5905C90.6488 18.9574 91.1882 18.5039 91.8292 18.5039H93.8068C94.1585 18.5039 94.502 18.6446 94.745 18.8947C94.9865 19.1527 95.12 19.4966 95.105 19.8405L95.0255 21.9668L95.261 21.6699C95.2835 21.6464 97.1675 19.3561 100.052 18.4493C100.85 18.1992 101.615 18.0742 102.389 18.0742C104.351 18.082 105.845 18.7853 106.931 20.247ZM178.241 18.4963H175.834L176.366 15.0571C176.42 14.6819 176.311 14.2988 176.069 14.0174C175.826 13.7282 175.459 13.564 175.084 13.564H172.652C172.082 13.564 171.574 13.9391 171.41 14.4941L170.23 18.4963H168.901C168.26 18.4963 167.729 18.9497 167.627 19.5829L167.323 21.4432C167.267 21.8183 167.362 22.2012 167.62 22.4905C167.861 22.7797 168.221 22.9439 168.604 22.9439H169.409L167.971 32.1517C167.869 32.7301 167.815 33.3322 167.815 33.9653C167.815 35.599 168.244 36.7871 169.136 37.6C170.011 38.3974 171.347 38.8114 173.122 38.8114C174.185 38.8114 175.685 38.366 175.865 38.3035C176.006 38.2487 176.272 38.1629 176.303 38.1473C176.359 38.1239 176.413 38.1002 176.459 38.0767C176.834 37.8734 177.077 37.5062 177.124 37.0921L177.35 35.1848C177.389 34.7861 177.25 34.3795 176.953 34.1059C176.866 34.0277 176.78 33.9577 176.678 33.8951C176.608 33.8639 176.546 33.8323 176.476 33.8089C176.428 33.7933 176.311 33.7697 175.85 33.7775C175.741 33.7775 175.624 33.7856 175.507 33.7856C175.295 33.7856 175.162 33.7775 175.091 33.7619C174.911 33.7307 174.466 33.6369 174.239 33.4337C174.13 33.34 173.794 33.043 173.794 31.9486C173.794 31.8392 173.803 31.6751 173.833 31.4407L175.154 22.9519H177.883C178.499 22.9519 179.039 22.5141 179.156 21.9122L179.516 20.0516C179.594 19.6686 179.492 19.278 179.242 18.981C179 18.6683 178.633 18.4963 178.241 18.4963ZM129.247 19.0199C129.005 18.6916 128.614 18.4963 128.207 18.4963H124.987C124.417 18.4963 123.908 18.8794 123.745 19.4188C123.47 20.3568 122.956 21.4352 122.197 22.6389C121.142 24.3352 120.274 25.3828 119.539 25.8518L119.422 25.9064C119.164 26.0393 118.757 26.2345 117.335 26.4847L117.155 26.5159L119.383 12.5949C119.438 12.2197 119.336 11.8366 119.086 11.5552C118.844 11.266 118.484 11.0938 118.109 11.0938H115.03C114.388 11.0938 113.849 11.5553 113.747 12.1884L109.831 36.8966C109.768 37.2718 109.877 37.6471 110.12 37.9363C110.363 38.2255 110.729 38.3974 111.106 38.3974H114.185C114.826 38.3974 115.366 37.9363 115.466 37.3031L116.476 30.862H118.406L121.063 37.5767C121.259 38.077 121.736 38.3974 122.267 38.3974H125.612C126.323 38.3974 126.91 37.8188 126.91 37.0996C126.91 36.9277 126.871 36.7481 126.8 36.584L123.76 28.7438L123.823 28.6892C125.081 27.5558 126.371 25.9454 127.661 23.921C128.497 22.6078 129.091 21.3414 129.443 20.1768C129.568 19.7703 129.49 19.3482 129.247 19.0199ZM84.6535 16.7921C85.9354 16.7921 86.8969 16.4638 87.5065 15.7994C88.124 15.1272 88.429 14.2988 88.429 13.2514C88.429 12.4384 88.2022 11.8289 87.7411 11.4224C87.2876 11.0159 86.5843 10.8125 85.6462 10.8125C84.3643 10.8125 83.4028 11.1486 82.801 11.8052C82.1756 12.4775 81.8708 13.3138 81.8708 14.3613C81.8708 15.1742 82.1053 15.784 82.5587 16.1826C83.0276 16.5969 83.7077 16.7921 84.6535 16.7921ZM85.6931 18.4963H82.6447C82.0037 18.4963 81.4721 18.9497 81.3628 19.5829L78.6347 36.8885C78.58 37.2638 78.6817 37.6469 78.9317 37.9283C79.1741 38.2175 79.5337 38.3816 79.9088 38.3816H82.9573C83.5982 38.3816 84.1298 37.9205 84.2392 37.2874L86.9672 19.9894C87.022 19.6142 86.9203 19.2311 86.6702 18.9497C86.4278 18.6683 86.0761 18.4963 85.6931 18.4963ZM76.876 11.5552C77.1184 11.8444 77.2355 12.2197 77.173 12.5949L74.1715 31.7456C74.1401 32.0738 74.1323 32.2768 74.1323 32.4097C74.1323 33.0506 74.2574 33.4963 74.4997 33.7231C74.7265 33.9341 75.2267 34.0513 75.3127 34.0669C75.5863 34.106 75.8441 34.2469 76.0396 34.4501C76.2976 34.7237 76.4305 35.0986 76.3991 35.4737L76.2272 37.1935C76.1881 37.561 76.0318 37.8656 75.8051 38.0297C75.5941 38.1704 75.3361 38.3036 75.0079 38.4286C74.6795 38.5537 73.7572 38.8195 73.1162 38.8195C71.4982 38.8195 70.2475 38.4442 69.3955 37.7015C68.5513 36.9668 68.1214 35.8958 68.1214 34.5124C68.1214 34.1371 68.1605 33.7232 68.2387 33.2776C68.2621 33.0901 71.4982 12.4307 71.5372 12.2041C71.6389 11.5709 72.1783 11.1094 72.8192 11.1094H75.8989C76.2742 11.1016 76.6259 11.266 76.876 11.5552Z" fill="#2A55E5"/>
<defs>
<linearGradient id="paint0_linear_0_1" x1="18.7904" y1="10.9433" x2="18.7904" y2="41.8396" gradientUnits="userSpaceOnUse">
<stop stop-color="#F7E830"/>
<stop offset="1" stop-color="#FDCB06"/>
</linearGradient>
<radialGradient id="paint1_radial_0_1" cx="0" cy="0" r="1" gradientUnits="userSpaceOnUse" gradientTransform="translate(18.6307 25.0386) scale(25.1307 25.1307)">
<stop offset="0.596" stop-color="#F29405"/>
<stop offset="0.736" stop-color="#F7D01E"/>
<stop offset="1" stop-color="#FDCB06"/>
</radialGradient>
<linearGradient id="paint2_linear_0_1" x1="27.3966" y1="12.0626" x2="27.4053" y2="13.5257" gradientUnits="userSpaceOnUse">
<stop stop-color="#FADA1C"/>
<stop offset="1" stop-color="#FDCB06"/>
</linearGradient>
<linearGradient id="paint3_linear_0_1" x1="10.1858" y1="11.9919" x2="10.177" y2="13.4549" gradientUnits="userSpaceOnUse">
<stop stop-color="#FADA1C"/>
<stop offset="1" stop-color="#FDCB06"/>
</linearGradient>
<clipPath id="clip0_0_1">
<rect width="37.5" height="37.1851" fill="white" transform="translate(0.0415039 4.6582)"/>
</clipPath>
</defs>
</svg>
