<svg width="247" height="47" viewBox="0 0 247 47" fill="none" xmlns="http://www.w3.org/2000/svg">
<path d="M57.0372 24.5365L30.6765 15.959V25.35L54.6483 33.1552L57.0372 24.5365Z" fill="#648DC5"/>
<path d="M30.6765 37.5012V46.5009L54.6689 34.7004L57.0372 24.5371L30.6765 37.5012Z" fill="#A8C2E2"/>
<path d="M60.4066 9.59499L56.7202 19.5111L46.6805 16.319L30.6787 11.0469V-0.00195312L60.4066 9.59499Z" fill="#648DC5"/>
<path d="M60.4066 9.5957L58.0588 19.6869L30.6787 33.1556V24.1559L46.6805 16.3197L60.4066 9.5957Z" fill="#A8C2E2"/>
<path d="M4.29761 24.5365L30.6686 15.959V25.35L6.68655 33.1552L4.29761 24.5365Z" fill="#3165A2"/>
<path d="M30.6686 37.5012L30.6583 46.5009L6.66595 34.7004L4.29761 24.5371L30.6686 37.5012Z" fill="#648DC5"/>
<path d="M0.936523 9.59499L4.6229 19.5111L14.6626 16.319L30.6747 11.0469V-0.00195312L0.936523 9.59499Z" fill="#3165A2"/>
<path d="M0.936523 9.5957L3.29457 19.6869L30.6747 33.1556V24.1559L14.6626 16.3197L0.936523 9.5957Z" fill="#648DC5"/>
<path d="M74.2018 29.5363C74.2018 33.7908 74.769 36.6407 75.8901 38.0994C76.7275 39.1934 78.3482 40.0578 80.7793 40.7196L78.7399 43.5694C75.0797 42.597 72.6756 40.8546 71.5275 38.356C70.7847 36.7217 70.4065 33.9259 70.4065 29.9685V3.02344H74.2018V29.5363Z" fill="#1A1A1A"/>
<path d="M91.9821 11.3594H92.2927C92.941 11.3594 93.6164 11.4675 94.2917 11.6836C94.0486 9.91424 93.3732 8.60413 92.2927 7.75323C91.4553 7.10493 89.9291 6.47013 87.7141 5.83533L89.7806 2.91797C93.9405 4.07951 96.3716 5.7678 97.0605 7.99635C97.8303 10.414 98.2085 13.1963 98.2085 16.3162V39.0204V38.9934C98.141 39.6822 98.2625 40.5331 98.5867 41.5325C98.9784 42.7346 99.4781 43.4099 100.072 43.572H96.142C95.7369 43.3424 95.4802 43.0858 95.3992 42.8021C94.3592 43.3154 93.3192 43.572 92.2792 43.572H91.9686C90.4964 43.572 89.1728 43.1398 87.9707 42.2754C86.6876 41.3705 86.0393 40.3035 86.0393 39.0609V15.884C86.0393 14.6415 86.6876 13.5745 87.9707 12.6695C89.1728 11.8051 90.4964 11.3729 91.9686 11.3729L91.9821 11.3594ZM92.1442 14.8846C90.6044 14.8846 89.8346 15.5599 89.8346 16.924V38.3586C89.8346 39.7227 90.6044 40.398 92.1442 40.398C93.6839 40.398 94.4132 39.7227 94.4132 38.3586V16.924C94.4132 15.5599 93.6569 14.8846 92.1442 14.8846Z" fill="#1A1A1A"/>
<path d="M110.923 3.02344V18.3801H116.758V21.6487H110.923V32.1971C110.923 32.8319 110.977 33.6423 111.099 34.6417C111.328 36.4651 111.963 37.8157 113.03 38.6801C113.908 39.4095 115.461 40.0713 117.676 40.652L115.61 43.5694C111.963 42.5699 109.559 40.8952 108.411 38.5586C107.627 36.9513 107.222 34.2095 107.222 30.3332C107.195 30.2927 107.182 30.2387 107.182 30.1846V21.6351H104.778V18.3666H107.182V3.02344H110.909H110.923Z" fill="#1A1A1A"/>
<path d="M128.811 3.02344H129.148C130.62 3.02344 131.944 3.44213 133.146 4.27953C134.416 5.19796 135.037 6.26495 135.037 7.48052V30.2252C135.037 31.4542 134.402 32.5212 133.146 33.4262C131.944 34.2636 130.62 34.6823 129.148 34.6823H128.811C128.135 34.6823 127.46 34.5742 126.812 34.3581C127.041 36.2085 127.717 37.6131 128.851 38.5856C129.824 39.396 131.404 40.1118 133.592 40.7061L131.525 43.5559C127.838 42.5835 125.393 40.8681 124.178 38.3965C123.313 36.6677 122.895 33.8719 122.895 30.0091V7.48052C122.895 6.25145 123.543 5.19796 124.826 4.30654C126.028 3.45564 127.352 3.02344 128.824 3.02344H128.811ZM128.973 6.49456C127.433 6.49456 126.663 7.16988 126.663 8.507V29.5363C126.663 30.8735 127.433 31.5488 128.973 31.5488C130.512 31.5488 131.242 30.8735 131.242 29.5363V8.507C131.242 7.16988 130.485 6.49456 128.973 6.49456Z" fill="#1A1A1A"/>
<path d="M147.117 3.02344C148.697 3.02344 150.102 3.42863 151.317 4.2255C152.668 5.0899 153.357 6.17041 153.357 7.50754V43.5829H149.562V8.4935C149.562 7.14286 148.805 6.48106 147.293 6.48106C145.78 6.48106 144.983 7.15637 144.983 8.4935V43.5694H141.188V7.49403C141.188 6.26495 141.836 5.19796 143.119 4.30654C144.321 3.44213 145.645 3.02344 147.117 3.02344Z" fill="#1A1A1A"/>
<path d="M165.859 3.02344V18.3801H171.68V21.6487H165.859V32.1971C165.859 32.8319 165.913 33.6423 166.034 34.6417C166.264 36.4651 166.899 37.8157 167.966 38.6801C168.844 39.4095 170.397 40.0713 172.612 40.652L170.545 43.5694C166.899 42.5699 164.495 40.8952 163.346 38.5586C162.563 36.9513 162.158 34.2095 162.158 30.3332C162.131 30.2927 162.131 30.2387 162.131 30.1846V21.6351H159.727V18.3666H162.131V3.02344H165.859Z" fill="#1A1A1A"/>
<path d="M181.604 30.1036C181.604 33.5612 181.861 36.0329 182.374 37.5321C182.658 38.383 183.171 39.0988 183.914 39.6796C185.143 38.6396 185.872 37.0594 186.115 34.9389C186.25 33.7773 186.318 32.1701 186.318 30.1036V3.02344H190.113V30.5493C190.113 33.048 190.005 34.9119 189.802 36.1544C189.195 39.8282 187.236 42.2998 183.941 43.5829C180.659 42.4079 178.714 39.9227 178.079 36.1274C177.903 35.0469 177.809 33.1966 177.809 30.5628V3.02344H181.604V30.1036Z" fill="#2B67AD"/>
<path d="M196.752 43.5694V11.0057H200.547V43.5694H196.752ZM196.535 5.11692C196.535 6.27846 197.467 7.2104 198.629 7.2104C199.79 7.2104 200.722 6.27846 200.722 5.11692C200.722 3.95537 199.79 3.02344 198.629 3.02344C197.467 3.02344 196.535 3.95537 196.535 5.11692Z" fill="#2B67AD"/>
<path d="M212.881 3.02344H213.219C214.691 3.02344 216.014 3.44213 217.216 4.26602C218.486 5.17094 219.107 6.23794 219.107 7.46702V30.2657C219.107 31.4813 218.472 32.5483 217.216 33.4667C216.014 34.3041 214.691 34.7093 213.219 34.7093H212.881C212.206 34.7093 211.53 34.6012 210.882 34.3851C211.112 36.222 211.787 37.6266 212.921 38.5991C213.894 39.4095 215.474 40.1253 217.662 40.7196L215.596 43.5694C211.908 42.597 209.464 40.8817 208.248 38.4235C207.384 36.6947 206.965 33.9124 206.965 30.0631V7.46702C206.965 6.25145 207.613 5.19796 208.897 4.30654C210.099 3.45564 211.422 3.02344 212.894 3.02344H212.881ZM213.056 6.48106C211.517 6.48106 210.747 7.14286 210.747 8.47999V29.5634C210.747 30.9005 211.517 31.5623 213.056 31.5623C214.596 31.5623 215.326 30.9005 215.326 29.5634V8.47999C215.326 7.14286 214.569 6.48106 213.056 6.48106Z" fill="#2B67AD"/>
<path d="M229.042 30.1036C229.042 33.5612 229.298 36.0329 229.811 37.5321C230.109 38.383 230.622 39.0988 231.365 39.6796C232.58 38.6531 233.31 37.0729 233.58 34.9389C233.688 34.0339 233.742 32.8454 233.742 31.3732V3.02344H237.537V31.3732C237.537 33.9799 237.794 36.0329 238.307 37.5321C238.591 38.383 239.104 39.0988 239.847 39.6796C241.076 38.6396 241.805 37.0594 242.048 34.9389C242.183 33.7773 242.251 32.1701 242.251 30.1036V3.02344H246.046V30.5493C246.046 33.048 245.938 34.9119 245.735 36.1544C245.128 39.8282 243.183 42.2998 239.914 43.5829C238.131 42.9751 236.7 41.8946 235.646 40.3414C235.538 40.517 235.295 40.8276 234.93 41.2598C233.985 42.2863 232.796 43.0562 231.378 43.5829C228.096 42.4079 226.151 39.9227 225.516 36.1274C225.341 35.0469 225.246 33.1966 225.246 30.5628V3.02344H229.042V30.1036Z" fill="#2B67AD"/>
</svg>
