<svg width="101" height="47" viewBox="0 0 101 47" fill="none" xmlns="http://www.w3.org/2000/svg">
<path d="M28.1865 4.08642C26.7749 3.55499 24.8152 3.32249 22.3574 3.32249H12.3101V4.08642H13.3231C14.3693 4.08642 15.1499 4.36874 15.6813 4.9832C16.0467 5.38177 16.246 6.47785 16.246 8.18838V25.8916C16.246 27.4361 16.0799 28.4491 15.7976 28.8477C15.316 29.6116 14.5022 29.977 13.3231 29.977H12.3101V30.7409H24.0679V29.977H23.0051C21.9588 29.977 21.1783 29.6946 20.6967 29.0802C20.2981 28.6816 20.132 27.5855 20.132 25.875V17.887C20.979 18.0862 21.826 18.2191 22.6065 18.2855C23.3704 18.3686 24.1011 18.4018 24.7488 18.4018C27.4558 18.4018 29.5317 17.7209 30.9931 16.2927C32.4545 14.8811 33.2185 13.0875 33.2185 10.8289C33.2185 9.1682 32.7368 7.7566 31.757 6.57749C30.7772 5.41499 29.6147 4.56802 28.1865 4.08642ZM27.0572 15.5121C26.0442 16.6082 24.8318 17.1396 23.4036 17.1396C23.0051 17.1396 22.5567 17.1064 21.992 17.0566C21.4274 16.9736 20.8129 16.8905 20.0822 16.7743V5.33195C21.1783 5.08285 22.0751 4.9666 22.756 4.9666C23.8852 4.9666 24.8983 5.2157 25.7618 5.73052C26.6586 6.21213 27.3395 6.99267 27.8211 8.0057C28.3027 9.01874 28.5518 10.1148 28.5518 11.2939C28.6017 13.0377 28.0702 14.4161 27.0572 15.5121ZM46.8695 11.377C49.2942 8.86927 50.6726 7.49088 51.0047 7.24177C52.0177 6.26195 52.9145 5.58106 53.5954 5.18249C54.2763 4.78392 54.8908 4.5016 55.3724 4.33552C55.854 4.16945 56.3854 4.08642 56.9999 4.08642V3.32249H46.9193V4.08642H47.567C48.2479 4.08642 48.6963 4.20267 48.9786 4.45177C49.2609 4.70088 49.427 4.9832 49.427 5.26552C49.427 5.6641 49.2277 6.16231 48.8624 6.67713C48.0154 7.88945 45.624 10.3639 41.6051 14.0175C40.0274 15.4789 39.0974 16.3259 38.8483 16.6082V8.2216C38.8483 6.87642 38.9313 5.94642 39.0974 5.54785C39.2634 5.09945 39.5458 4.78392 39.9443 4.56802C40.5588 4.23588 41.1567 4.08642 41.8043 4.08642H42.7343V3.32249H31.0263V4.08642H32.0061C32.6538 4.08642 33.2683 4.25249 33.8661 4.56802C34.2647 4.81713 34.547 5.09945 34.6799 5.38177C34.8792 5.86338 34.9622 6.79338 34.9622 8.17177V30.0102C34.9954 30.0102 38.8483 28.8311 38.8483 28.8311V17.04L48.331 26.4064L52.6654 25.4764L42.7011 15.5453L46.8695 11.377ZM75.1183 2.6582H74.3876C74.2713 3.30588 74.0222 3.83731 73.6568 4.20267C73.3745 4.45177 73.0922 4.56802 72.677 4.56802C72.4279 4.56802 72.0293 4.40195 71.4647 4.11963C69.5217 3.15642 67.5786 2.6582 65.5858 2.6582C63.0283 2.6582 60.6867 3.30588 58.5277 4.56802C56.3854 5.83017 54.6749 7.60713 53.4626 9.91552C52.2502 12.2239 51.6358 14.7316 51.6358 17.4552C51.6358 20.3282 52.2835 22.8525 53.6286 25.1111L57.714 24.4966C57.631 24.3305 57.5479 24.1312 57.4649 23.9652C56.6511 22.1384 56.2858 19.9961 56.2858 17.5216C56.2858 14.5157 56.6843 11.9748 57.5479 9.98195C58.3949 7.95588 59.5408 6.49445 61.0354 5.56445C62.4968 4.63445 64.1576 4.18606 65.9843 4.18606C68.1765 4.18606 70.0365 4.80052 71.581 6.04606C73.1254 7.25838 74.3377 9.28445 75.1515 12.0911H75.7992L75.1183 2.6582Z" fill="#012677"/>
<path d="M98.4972 25.446C83.5009 22.5232 69.8 22.573 57.7266 24.1839C57.7266 24.1839 57.7266 24.1507 57.6934 24.1507L53.6413 24.7651L53.6745 24.7984C22.752 30.0296 3.78662 45.3414 3.78662 45.3414C22.835 35.7425 40.9036 30.5444 56.0659 27.7876C58.4241 29.9798 61.3802 31.0759 65.0172 31.0759C67.5248 31.0759 69.717 30.5112 71.5438 29.3819C73.0384 28.4519 74.3836 27.1068 75.5627 25.3298C89.7452 24.3168 98.4972 25.446 98.4972 25.446ZM71.2614 28.153C69.9163 28.9169 68.3386 29.2823 66.5118 29.2823C64.4857 29.2823 62.6589 28.8007 61.0481 27.8209C60.6827 27.6216 60.3672 27.3725 60.035 27.0901C65.2164 26.2764 69.9993 25.7118 74.3006 25.3962C73.2543 26.6916 72.1914 27.5884 71.2614 28.153Z" fill="#EABD1A"/>
<path d="M44.159 34.4808C44.1258 34.3147 44.076 34.2317 44.0428 34.1486C44.0096 34.0656 43.9265 34.0656 43.7106 34.0656H43.5446V35.5602C43.5446 35.8093 43.5778 35.8426 43.8767 35.8426V35.9588H42.8969V35.8426C43.1792 35.8426 43.1792 35.8093 43.1792 35.5602V34.0656H43.0131C42.764 34.0656 42.7308 34.0988 42.681 34.1486C42.6478 34.1818 42.598 34.3147 42.5647 34.4309H42.4485C42.4485 34.2317 42.4817 33.9826 42.4817 33.8165H42.5647C42.598 33.8995 42.6478 33.8995 42.7308 33.8995H43.9431C44.0262 33.8995 44.0594 33.8995 44.1092 33.8165H44.1922C44.1922 33.9327 44.1922 34.2151 44.2254 34.4309L44.159 34.4808ZM45.9028 36.0252V35.909C46.1021 35.8758 46.1021 35.8758 46.0688 35.7097C46.0356 35.6267 45.9858 35.4606 45.9526 35.3111H45.3381C45.3049 35.3942 45.2551 35.5104 45.2219 35.6433C45.1887 35.8093 45.1887 35.8426 45.4212 35.8924V36.0086H44.7403V35.8924C44.9396 35.8592 44.9894 35.8592 45.1056 35.5602L45.7533 33.9327L45.9194 33.8995C46.1187 34.431 46.318 35.0288 46.5338 35.5602C46.6169 35.8426 46.6501 35.8426 46.8992 35.8924V36.0086H45.9194V36.0252H45.9028ZM45.6038 34.3977C45.5208 34.6468 45.4046 34.8793 45.3215 35.1284H45.853L45.6038 34.3977ZM48.4437 36.0252V35.909C48.643 35.8758 48.6429 35.8259 48.5599 35.7429C48.5267 35.6599 48.3938 35.4938 48.1946 35.1284C48.0783 35.3277 47.9122 35.5768 47.8292 35.6931C47.7462 35.8093 47.796 35.8592 47.9953 35.8592V35.9754H47.2313V35.8592C47.3974 35.8592 47.5137 35.7761 47.5967 35.6931C47.6797 35.5768 47.879 35.2945 48.0783 34.9624C47.9122 34.7133 47.796 34.4808 47.6797 34.2815C47.5635 34.1154 47.5137 34.0822 47.2812 34.0324V33.9161H48.178V34.0324C48.0119 34.0656 48.0119 34.0656 48.0617 34.1486C48.1447 34.2649 48.2278 34.4808 48.3938 34.6801C48.4769 34.514 48.5931 34.3479 48.6762 34.2317C48.7094 34.1154 48.7094 34.0656 48.5599 34.0656V33.9493H49.2906V34.0656C49.0913 34.0988 49.0083 34.0988 48.8921 34.2649C48.809 34.3811 48.6928 34.5472 48.5267 34.7963C48.6928 35.0786 48.8588 35.3277 49.0083 35.6101C49.1246 35.8093 49.2076 35.8592 49.4069 35.8924V36.0086H48.4437V36.0252ZM51.3333 36.7892V33.584H51.5824V36.7892H51.3333ZM54.854 36.0252V35.909C55.0533 35.8758 55.0533 35.8758 55.0201 35.7097C54.9869 35.6267 54.9371 35.4606 54.9038 35.3111H54.2894C54.2562 35.3942 54.2063 35.5104 54.1731 35.6433C54.1399 35.8093 54.1399 35.8426 54.3724 35.8924V36.0086H53.6915V35.8924C53.8908 35.8592 53.9406 35.8592 54.0569 35.5602L54.7046 33.9327L54.8706 33.8995C55.0699 34.431 55.2692 35.0288 55.4851 35.5602C55.5681 35.8426 55.6013 35.8426 55.8504 35.8924V36.0086H54.8706V36.0252H54.854ZM54.5717 34.3977C54.4887 34.6468 54.3724 34.8793 54.2894 35.1284H54.8208L54.5717 34.3977ZM58.2917 34.0324C58.1256 34.0324 58.0426 34.0656 58.0094 34.1984C58.0094 34.2815 57.9762 34.3977 57.9762 34.6801V34.9624C57.9762 35.3277 57.943 35.5768 57.7271 35.7761C57.6108 35.9422 57.3617 36.0252 57.1624 36.0252C56.9631 36.0252 56.7638 35.992 56.631 35.8592C56.4649 35.7429 56.3487 35.4938 56.3487 35.1284V34.3645C56.3487 34.0822 56.3155 34.0822 56.0663 34.0324V33.9161H56.9631V34.0324C56.714 34.0324 56.6808 34.0656 56.6808 34.3645V35.0952C56.6808 35.5768 56.8801 35.8592 57.2122 35.8592C57.6108 35.8592 57.7437 35.527 57.7437 35.0122V34.7299C57.7437 34.4808 57.7437 34.3645 57.7105 34.2483C57.7105 34.132 57.6274 34.0822 57.3783 34.0822V33.9659H58.1422V34.049H58.2917V34.0324ZM59.8362 33.9493C60.2347 33.9493 60.5171 34.0324 60.733 34.2317C60.899 34.3977 61.0153 34.597 61.0153 34.9126C61.0153 35.3111 60.8492 35.5602 60.6167 35.7595C60.3676 35.9588 60.0853 36.0418 59.6867 36.0418H58.9228V35.9256C59.1719 35.9256 59.2051 35.8924 59.2051 35.6433V34.4309C59.2051 34.1486 59.1719 34.1486 58.956 34.1486V34.0324H59.8528V33.9493H59.8362ZM59.5871 35.5768C59.5871 35.8259 59.6701 35.8592 59.8694 35.8592C60.351 35.8592 60.6333 35.4938 60.6333 34.9292C60.6333 34.597 60.5503 34.3645 60.351 34.2483C60.2347 34.132 60.0687 34.0822 59.8694 34.0822C59.7531 34.0822 59.6701 34.0822 59.6701 34.1154C59.6369 34.1486 59.6369 34.1984 59.6369 34.2815V35.5768H59.5871ZM61.746 36.0252V35.909C61.9951 35.909 62.0283 35.8758 62.0283 35.6267V34.4143C62.0283 34.132 61.9951 34.132 61.746 34.132V34.0158H62.6428V34.132C62.3937 34.132 62.3604 34.1652 62.3604 34.4143V35.6267C62.3604 35.909 62.3937 35.909 62.6428 35.909V36.0252H61.746ZM65.0176 34.4808C64.9844 34.3147 64.9346 34.2317 64.9013 34.1486C64.8681 34.0656 64.7851 34.0656 64.5692 34.0656H64.4031V35.5602C64.4031 35.8093 64.4363 35.8426 64.7353 35.8426V35.9588H63.7554V35.8426C64.0378 35.8426 64.0378 35.8093 64.0378 35.5602V34.0656H63.8717C63.6226 34.0656 63.5894 34.0988 63.5396 34.1486C63.5063 34.1818 63.4565 34.3147 63.4233 34.4309H63.3071C63.3071 34.2317 63.3403 33.9826 63.3403 33.8165H63.4233C63.4565 33.8995 63.5063 33.8995 63.5894 33.8995H64.8017C64.8847 33.8995 64.918 33.8995 64.9678 33.8165H65.0508C65.0508 33.9327 65.0508 34.2151 65.084 34.4309L65.0176 34.4808ZM67.1765 36.7892V33.584H67.4256V36.7892H67.1765ZM71.4279 35.4606C71.3947 35.6267 71.3117 35.8259 71.2619 35.9422C71.1788 35.9422 70.8965 36.0252 70.6972 36.0252C69.8835 36.0252 69.5679 35.4938 69.5679 34.979C69.5679 34.3313 70.0496 33.8829 70.7803 33.8829C71.0294 33.8829 71.2287 33.9161 71.3449 33.9659C71.3781 34.132 71.3781 34.2981 71.4279 34.4476L71.3117 34.4808C71.2287 34.1154 71.0294 33.9992 70.7471 33.9992C70.2987 33.9992 70.0163 34.3977 70.0163 34.896C70.0163 35.4606 70.3485 35.8758 70.7471 35.8758C71.0294 35.8758 71.1955 35.7097 71.3615 35.3942L71.4279 35.4606ZM73.1717 33.9161C73.7031 33.9161 74.1847 34.3147 74.1847 34.9624C74.1847 35.6433 73.7031 36.0585 73.1385 36.0585C72.524 36.0585 72.1254 35.6101 72.1254 35.0122C72.1088 34.4476 72.524 33.9161 73.1717 33.9161ZM73.1219 34.0324C72.7897 34.0324 72.5572 34.3645 72.5572 34.9292C72.5572 35.4938 72.8063 35.9422 73.2049 35.9422C73.5371 35.9422 73.7696 35.6599 73.7696 35.0454C73.7696 34.3977 73.4872 34.0324 73.1219 34.0324ZM77.0578 34.0324C76.8917 34.0324 76.8087 34.0656 76.8087 34.1984C76.8087 34.2815 76.7754 34.4476 76.7754 34.7299V35.992H76.6094L75.3472 34.4143V35.1451C75.3472 35.4274 75.3472 35.5436 75.3804 35.6765C75.3804 35.7927 75.4635 35.8758 75.6628 35.8758V35.992H74.8988V35.8758C75.0649 35.8758 75.148 35.8426 75.1812 35.6765C75.1812 35.5934 75.2144 35.4274 75.2144 35.1451V34.4642C75.2144 34.2649 75.2144 34.2151 75.1812 34.132C75.148 34.049 75.0649 34.049 74.8988 34.0158V33.8995H75.4303L76.6426 35.3609V34.7133C76.6426 34.4309 76.6426 34.2649 76.6094 34.1818C76.6094 34.0656 76.5263 34.0158 76.2772 33.9826V33.8663H77.0412V34.0324H77.0578ZM78.8347 34.4476C78.7517 34.2483 78.6687 34.049 78.4362 34.049C78.2369 34.049 78.104 34.2151 78.104 34.3811C78.104 34.5804 78.2203 34.6634 78.5026 34.8295C78.7849 34.9956 79.0672 35.1617 79.0672 35.4772C79.0672 35.8426 78.7849 36.0917 78.3365 36.0917C78.2203 36.0917 78.0874 36.0585 78.0044 36.0585C77.9213 36.0252 77.8881 36.0252 77.8383 35.9754C77.8051 35.8924 77.7553 35.6433 77.7553 35.444L77.8715 35.4108C77.9047 35.6101 78.0708 35.9422 78.403 35.9422C78.6022 35.9422 78.7351 35.8259 78.7351 35.5768C78.7351 35.3776 78.569 35.2447 78.3365 35.1284C78.0542 35.0122 77.8051 34.7963 77.8051 34.4808C77.8051 34.1652 78.0542 33.8663 78.486 33.8663C78.6521 33.8663 78.8181 33.8995 78.8846 33.9493C78.8846 34.0656 78.9178 34.1985 78.9676 34.3977L78.8347 34.4476ZM81.8406 34.0324C81.6746 34.0324 81.5915 34.0656 81.5583 34.1984C81.5583 34.2815 81.5251 34.3977 81.5251 34.6801V34.9624C81.5251 35.3277 81.4919 35.5768 81.276 35.7761C81.1597 35.9422 80.9106 36.0252 80.7113 36.0252C80.5121 36.0252 80.3128 35.992 80.1799 35.8592C80.0138 35.7429 79.8976 35.4938 79.8976 35.1284V34.3645C79.8976 34.0822 79.8644 34.0822 79.6153 34.0324V33.9161H80.5121V34.0324C80.2629 34.0324 80.2297 34.0656 80.2297 34.3645V35.0952C80.2297 35.5768 80.429 35.8592 80.7612 35.8592C81.1597 35.8592 81.2926 35.527 81.2926 35.0122V34.7299C81.2926 34.4808 81.2926 34.3645 81.2594 34.2483C81.2594 34.132 81.1763 34.0822 80.9272 34.0822V33.9659H81.6912V34.049H81.8406V34.0324ZM84.066 35.4938C84.0328 35.6101 83.9829 35.9422 83.9497 36.0252H82.4551V35.909C82.7042 35.909 82.7374 35.8758 82.7374 35.6267V34.4143C82.7374 34.132 82.7042 34.132 82.4551 34.132V34.0158H83.3519V34.132C83.1028 34.132 83.0696 34.1652 83.0696 34.4143V35.6267C83.0696 35.7927 83.0696 35.8259 83.1526 35.8758C83.1858 35.909 83.3187 35.909 83.4017 35.909C83.518 35.909 83.6508 35.909 83.7338 35.8259C83.7671 35.7429 83.8501 35.6599 83.8999 35.4938H84.066ZM86.1419 34.4808C86.1087 34.3147 86.0588 34.2317 86.0256 34.1486C85.9924 34.0656 85.9094 34.0656 85.6935 34.0656H85.5274V35.5602C85.5274 35.8093 85.5606 35.8426 85.8596 35.8426V35.9588H84.8797V35.8426C85.1621 35.8426 85.1621 35.8093 85.1621 35.5602V34.0656H84.996C84.7469 34.0656 84.7137 34.0988 84.6638 34.1486C84.6306 34.1818 84.5808 34.3147 84.5476 34.4309H84.4313C84.4313 34.2317 84.4646 33.9826 84.4646 33.8165H84.5476C84.5808 33.8995 84.6306 33.8995 84.7137 33.8995H85.926C86.009 33.8995 86.0422 33.8995 86.0921 33.8165H86.1751C86.1751 33.9327 86.1751 34.2151 86.2083 34.4309L86.1419 34.4808ZM86.939 36.0252V35.909C87.1881 35.909 87.2213 35.8758 87.2213 35.6267V34.4143C87.2213 34.132 87.1881 34.132 86.939 34.132V34.0158H87.8358V34.132C87.5867 34.132 87.5535 34.1652 87.5535 34.4143V35.6267C87.5535 35.909 87.5867 35.909 87.8358 35.909V36.0252H86.939ZM90.7088 34.0324C90.5428 34.0324 90.4597 34.0656 90.4597 34.1984C90.4597 34.2815 90.4265 34.4476 90.4265 34.7299V35.992H90.2604L88.9983 34.4143V35.1451C88.9983 35.4274 88.9983 35.5436 89.0315 35.6765C89.0315 35.7927 89.1146 35.8758 89.3138 35.8758V35.992H88.5499V35.8758C88.716 35.8758 88.799 35.8426 88.8322 35.6765C88.8322 35.5934 88.8654 35.4274 88.8654 35.1451V34.4642C88.8654 34.2649 88.8655 34.2151 88.8322 34.132C88.799 34.049 88.716 34.049 88.5499 34.0158V33.8995H89.0813L90.2937 35.3609V34.7133C90.2937 34.4309 90.2937 34.2649 90.2604 34.1818C90.2604 34.0656 90.1774 34.0158 89.9283 33.9826V33.8663H90.6922V34.0324H90.7088ZM93.4324 35.1284C93.2663 35.1617 93.2331 35.1617 93.2331 35.3776V35.909C93.0338 35.9422 92.7847 36.0252 92.5522 36.0252C91.8713 36.0252 91.423 35.5768 91.423 34.979C91.423 34.2483 91.9876 33.8829 92.6353 33.8829C92.8844 33.8829 93.1169 33.9161 93.2497 33.9659C93.2497 34.0822 93.283 34.2483 93.283 34.4974L93.1667 34.5306C93.0837 34.1652 92.8346 34.049 92.6021 34.049C92.2035 34.049 91.8713 34.3811 91.8713 34.979C91.8713 35.4606 92.1204 35.9588 92.6353 35.9588C92.7183 35.9588 92.8013 35.9588 92.8346 35.9256C92.8678 35.8924 92.9176 35.8426 92.9176 35.7263V35.444C92.9176 35.2447 92.9176 35.1949 92.5854 35.1617V35.0454H93.4822V35.1617H93.4324V35.1284Z" fill="#FCFCFC"/>
</svg>
