<svg width="238" height="47" viewBox="0 0 238 47" fill="none" xmlns="http://www.w3.org/2000/svg">
<path d="M66.5728 24.357C65.2993 23.4038 63.9185 22.6031 62.4587 21.9712C61.4156 21.5166 60.4165 20.9673 59.4739 20.3301C59.0878 20.1064 58.7668 19.7858 58.5425 19.4C58.3182 19.0142 58.1985 18.5766 58.1952 18.1304C58.1615 17.6916 58.2388 17.2513 58.4201 16.8502C58.6013 16.4491 58.8807 16.1001 59.2323 15.8354C59.9335 15.3134 60.7849 15.0327 61.6591 15.0353C62.231 15.014 62.7977 15.1511 63.2966 15.4316C63.7955 15.7121 64.2072 16.1249 64.4863 16.6246L64.7056 16.9806L67.6137 15.592L67.3308 15.1488C66.739 14.1791 65.9046 13.3804 64.91 12.8315C63.9155 12.2825 62.795 12.0022 61.6591 12.0182C58.3982 12.0182 54.9325 14.1607 54.9329 18.154C54.92 19.0149 55.1177 19.8659 55.5088 20.633C55.8998 21.4 56.4724 22.0599 57.1766 22.5552C58.4174 23.4759 59.764 24.2446 61.1877 24.8448C62.2725 25.3245 63.3084 25.9079 64.2811 26.5867C64.6621 26.8067 64.9795 27.1217 65.2025 27.501C65.4254 27.8804 65.5462 28.311 65.553 28.7509C65.553 30.8098 63.3193 31.9769 61.2295 32.0304C60.4426 32.0304 57.8088 31.8406 56.9732 29.3976L56.8479 29.0325L53.627 29.5047L53.7872 30.0233C54.0113 30.8468 54.3996 31.6164 54.9289 32.2858C55.4581 32.9552 56.1174 33.5106 56.867 33.9186C58.2449 34.6714 59.7883 35.07 61.3585 35.0784C62.5687 35.0676 63.7617 34.7904 64.8527 34.2667C65.9438 33.7429 66.9061 32.9853 67.6714 32.0477C68.4961 31.0295 68.9042 29.7365 68.8134 28.4294C68.7508 27.6304 68.5186 26.8539 68.1322 26.1517C67.7458 25.4494 67.2142 24.8376 66.5728 24.357Z" fill="#1A1A1A"/>
<path d="M107.501 30.6846C106.25 31.5023 104.784 31.9282 103.289 31.9079C102.18 31.893 101.085 31.6569 100.068 31.2134C99.0511 30.7699 98.1329 30.1279 97.3672 29.3251C96.6016 28.5223 96.0038 27.5747 95.609 26.5379C95.2142 25.5012 95.0302 24.396 95.0679 23.2873C95.0395 22.1587 95.2361 21.0358 95.6462 19.9841C96.0564 18.9323 96.6719 17.9728 97.4569 17.1615C98.1979 16.3576 99.1008 15.7196 100.106 15.2896C101.111 14.8596 102.196 14.6473 103.289 14.6666C104.801 14.6738 106.281 15.1076 107.557 15.9181L107.926 16.1461L109.793 13.5405L109.359 13.2807C107.537 12.1431 105.438 11.526 103.289 11.4961C100.212 11.5491 97.2819 12.8201 95.1406 15.0305C92.9993 17.2408 91.8218 20.2101 91.8665 23.2873C91.8218 26.3644 92.9993 29.3337 95.1406 31.5441C97.2819 33.7544 100.212 35.0255 103.289 35.0785C105.469 35.1066 107.606 34.4684 109.413 33.2494L109.828 32.9678L107.851 30.4748L107.501 30.6846Z" fill="#1A1A1A"/>
<path d="M124.891 26.8499C124.891 29.4646 122.497 31.7496 119.585 31.9413C118.897 31.9644 118.211 31.848 117.568 31.5988C116.926 31.3497 116.341 30.973 115.848 30.4916C115.355 30.0102 114.964 29.4339 114.7 28.7976C114.436 28.1613 114.303 27.478 114.31 26.7891V11.959H111.201V26.789C111.196 27.8936 111.412 28.988 111.836 30.0079C112.26 31.0278 112.884 31.9526 113.671 32.7279C114.457 33.5033 115.391 34.1135 116.417 34.5227C117.443 34.932 118.54 35.1319 119.645 35.1109H119.647C124.253 34.8012 128 31.0685 128 26.789V11.959H124.891V26.8499Z" fill="#1A1A1A"/>
<path d="M142.079 28.7987C141.155 27.8287 140.507 27.1003 140.073 26.54C141.719 26.3348 143.225 25.5094 144.283 24.232C145.342 22.9546 145.873 21.3215 145.769 19.6658C145.842 17.6263 145.169 15.6302 143.876 14.0513C142.682 12.8026 141.071 12.0355 139.349 11.8952C138.846 11.8952 138.406 11.8916 137.814 11.8879C136.602 11.8789 134.757 11.8652 130.448 11.8652H129.983L129.951 34.7719H133.091L133.121 15.192L138.489 15.2201C141.236 15.2201 142.628 16.705 142.628 19.6349C142.7 20.4986 142.442 21.3574 141.905 22.038C141.19 22.7587 140.235 23.1912 139.222 23.2532L138.428 23.314H134.752L135.022 23.9589C135.427 24.9243 135.742 25.5555 135.878 25.8234C136.262 26.5386 136.698 27.2246 137.183 27.8759C138.197 29.2854 139.375 30.5698 140.692 31.7022C142.354 33.2114 144.289 34.3885 146.393 35.1697L147.027 35.4158V32.0782L146.759 31.9519C145.027 31.1822 143.443 30.115 142.079 28.7987Z" fill="#1A1A1A"/>
<path d="M152.481 24.4671C152.5 23.997 152.378 23.5319 152.131 23.1315C151.884 22.731 151.523 22.4133 151.094 22.219C150.666 22.0247 150.189 21.9625 149.725 22.0406C149.261 22.1186 148.831 22.3332 148.49 22.657C148.148 22.9807 147.911 23.399 147.809 23.8582C147.706 24.3174 147.743 24.7967 147.914 25.2349C148.086 25.6731 148.384 26.0502 148.771 26.3181C149.158 26.5859 149.616 26.7323 150.086 26.7385C150.704 26.7535 151.304 26.523 151.753 26.0973C152.201 25.6716 152.463 25.0854 152.481 24.4671Z" fill="#57C4BE"/>
<path d="M182.598 20.0509C182.597 19.3018 182.743 18.5598 183.03 17.8676C183.316 17.1754 183.736 16.5466 184.266 16.0174C184.796 15.4882 185.426 15.069 186.119 14.784C186.811 14.4989 187.554 14.3537 188.303 14.3565C189.072 14.3584 189.834 14.514 190.543 14.8141C191.251 15.1142 191.893 15.5528 192.43 16.1041C192.967 16.6555 193.389 17.3085 193.67 18.0249C193.952 18.7413 194.087 19.5067 194.069 20.2761V34.7065H197.209V20.2761C197.225 19.0875 197.001 17.9077 196.551 16.8074C196.101 15.7071 195.434 14.7089 194.589 13.8724C193.783 13.0158 192.808 12.3351 191.726 11.8728C190.645 11.4106 189.479 11.1767 188.303 11.1859C186.224 11.1669 184.204 11.88 182.598 13.2003V11.769H179.428V34.7374H182.598L182.598 20.0509Z" fill="#1A1A1A"/>
<path d="M212.941 32.4242C215.722 30.1537 217.132 26.8724 217.131 22.6356C216.65 16.3572 212.105 11.8008 206.323 11.8008H199.443V34.7692H206.354C208.758 34.7908 211.092 33.9599 212.941 32.4242ZM206.323 14.9713C210.695 14.9713 213.993 18.5188 213.993 23.2232C213.993 27.9976 210.709 31.5986 206.354 31.5986H202.583V14.9713H206.323Z" fill="#1A1A1A"/>
<path d="M224.425 32.0304C223.637 32.0304 221.004 31.8406 220.168 29.3976L220.044 29.0325L216.822 29.5047L216.982 30.0233C217.206 30.8468 217.594 31.6164 218.124 32.2859C218.653 32.9553 219.312 33.5107 220.062 33.9186C221.44 34.6714 222.984 35.07 224.554 35.0784C225.764 35.0677 226.957 34.7907 228.048 34.2671C229.138 33.7435 230.101 32.986 230.866 32.0486C231.691 31.0301 232.099 29.7369 232.008 28.4294C231.945 27.6304 231.713 26.854 231.327 26.1518C230.941 25.4496 230.409 24.8378 229.768 24.357C228.494 23.4043 227.114 22.6036 225.655 21.9712C224.611 21.5171 223.612 20.9678 222.669 20.3301C222.283 20.1066 221.962 19.7861 221.737 19.4003C221.513 19.0144 221.394 18.5767 221.39 18.1304C221.357 17.6916 221.434 17.2513 221.615 16.8502C221.797 16.4491 222.076 16.1001 222.428 15.8354C223.129 15.3131 223.98 15.0324 224.854 15.0353C225.426 15.014 225.993 15.1512 226.491 15.4317C226.99 15.7122 227.402 16.125 227.681 16.6246L227.9 16.9806L230.809 15.592L230.526 15.1488C229.934 14.1791 229.1 13.3804 228.105 12.8315C227.111 12.2825 225.99 12.0022 224.854 12.0182C221.593 12.0182 218.127 14.1607 218.128 18.154C218.115 19.0149 218.313 19.8658 218.704 20.6329C219.095 21.3999 219.667 22.0598 220.371 22.5552C221.612 23.4762 222.959 24.2449 224.383 24.8448C225.468 25.3249 226.503 25.9082 227.476 26.5867C227.857 26.8068 228.175 27.1218 228.397 27.5012C228.62 27.8805 228.741 28.311 228.748 28.7509C228.748 30.8098 226.515 31.9769 224.425 32.0304Z" fill="#1A1A1A"/>
<path d="M74.1982 27.602C74.1478 27.5155 74.0998 27.4279 74.0527 27.3398C74.0993 27.4285 74.1487 27.5152 74.1982 27.602Z" fill="#1A535C"/>
<path d="M80.2334 31.9035C80.129 31.8853 80.0267 31.8617 79.9238 31.8398C80.0265 31.8628 80.1294 31.8841 80.2334 31.9035Z" fill="#1A535C"/>
<path d="M76.9622 30.5735C76.8817 30.5181 76.8038 30.4568 76.7246 30.3984C76.8046 30.4559 76.8804 30.5186 76.9622 30.5735Z" fill="#1A535C"/>
<path d="M80.498 31.9404C81.6873 32.1401 82.9057 32.0798 84.0694 31.7637C83.3362 31.9471 82.5832 32.0393 81.8274 32.0382C81.3825 32.0372 80.9383 32.0046 80.498 31.9404Z" fill="#1A535C"/>
<path d="M84.3108 14.8055C83.0324 14.4238 81.6823 14.3475 80.3691 14.5828C80.8487 14.5073 81.3334 14.4684 81.8189 14.4666C82.6613 14.4629 83.5 14.577 84.3108 14.8055Z" fill="#1A535C"/>
<path d="M73.0449 23.2501C73.0471 23.6101 73.0713 23.9697 73.1173 24.3267C73.0727 23.9675 73.0487 23.6061 73.0452 23.2441L73.0449 23.2501Z" fill="#1A535C"/>
<path d="M73.2858 25.2586C73.2545 25.1191 73.2218 24.9801 73.1973 24.8379C73.2231 24.9796 73.2533 25.1193 73.2858 25.2586Z" fill="#1A535C"/>
<path d="M84.3418 14.8125C84.7165 14.9219 85.083 15.0581 85.4383 15.2198C85.0823 15.0597 84.716 14.9236 84.3418 14.8125Z" fill="#1A535C"/>
<path d="M88.922 28.4827C88.1438 29.5379 87.1404 30.4066 85.9847 31.0258C85.5059 31.2875 85.0016 31.4995 84.4796 31.6585L84.467 31.663C84.3353 31.7031 84.1991 31.7329 84.0645 31.7665C82.9008 32.0826 81.6824 32.1429 80.4932 31.9433C80.4048 31.9306 80.3165 31.9182 80.2292 31.903C80.1253 31.8837 80.0223 31.8624 79.9197 31.8394C78.8536 31.6161 77.8426 31.1831 76.9454 30.5655C76.8681 30.5135 76.7964 30.4543 76.7209 30.4C76.6206 30.3262 76.5182 30.2571 76.4201 30.1783L76.422 30.1765C75.6377 29.5605 74.9634 28.8161 74.4275 27.9751L74.4148 27.9878C74.3336 27.864 74.2753 27.7298 74.2013 27.6027C74.1518 27.5158 74.1025 27.4292 74.0559 27.3405C73.7061 26.6857 73.4469 25.9864 73.2853 25.2619C73.2528 25.1226 73.2226 24.9829 73.1968 24.8412C73.1675 24.6724 73.1387 24.5039 73.119 24.3313C73.073 23.9742 73.0488 23.6147 73.0466 23.2547L73.0469 23.2487L73.0466 23.2442C73.0051 21.065 73.8195 18.9563 75.315 17.3707C76.419 16.136 77.8506 15.2397 79.4435 14.7859C81.0365 14.3321 82.7255 14.3395 84.3144 14.8071L84.3472 14.8155C84.7214 14.9266 85.0877 15.0627 85.4437 15.2229C85.4825 15.2404 85.5204 15.2602 85.559 15.2784C85.9073 15.4408 86.2439 15.6274 86.5661 15.8369L84.0993 18.3036L76.9533 25.4494L78.9661 27.6323L86.3715 20.2267L88.772 17.8261L90.9554 15.6426L90.604 15.2493C90.4868 15.1176 90.3637 14.9868 90.2325 14.8561C89.8924 14.5155 89.5474 14.1991 89.1976 13.907C87.4435 12.5298 85.3377 11.6733 83.1202 11.4352C80.9028 11.1971 78.6631 11.5871 76.6567 12.5605C74.6502 13.534 72.9577 15.0518 71.7723 16.9409C70.5869 18.8299 69.9562 21.014 69.9523 23.2442C69.93 24.809 70.2272 26.362 70.8257 27.808C71.4242 29.2541 72.3114 30.5628 73.433 31.6542C74.536 32.7575 75.8455 33.6328 77.2868 34.2299C78.7281 34.8271 80.2729 35.1344 81.833 35.1344C83.3931 35.1344 84.9379 34.8271 86.3792 34.2299C87.8205 33.6328 89.13 32.7575 90.233 31.6542C90.6957 31.1919 91.1213 30.6938 91.5058 30.1647L91.9404 29.5626L88.922 28.4827Z" fill="#1A1A1A"/>
<path d="M174.434 28.1956C173.656 29.2508 172.652 30.1195 171.496 30.7387C171.018 31.0004 170.513 31.2124 169.991 31.3714L169.979 31.3759C169.847 31.416 169.711 31.4458 169.576 31.4794C168.413 31.7955 167.194 31.8558 166.005 31.6561C165.917 31.6435 165.828 31.6311 165.741 31.6159C165.637 31.5965 165.534 31.5752 165.431 31.5522C164.365 31.329 163.354 30.896 162.457 30.2783C162.38 30.2264 162.308 30.1672 162.233 30.1129C162.132 30.0391 162.03 29.9699 161.932 29.8912L161.934 29.8893C161.149 29.2733 160.475 28.529 159.939 27.6879L159.927 27.7006C159.845 27.5769 159.787 27.4426 159.713 27.3155C159.664 27.2287 159.614 27.142 159.568 27.0534C159.218 26.3986 158.959 25.6993 158.797 24.9747C158.764 24.8355 158.734 24.6957 158.709 24.5541C158.679 24.3853 158.65 24.2167 158.631 24.0442C158.585 23.6871 158.561 23.3275 158.558 22.9675L158.559 22.9616L158.558 22.9571C158.517 20.7779 159.331 18.6692 160.827 17.0836C161.931 15.8488 163.362 14.9525 164.955 14.4987C166.548 14.045 168.237 14.0523 169.826 14.52L169.859 14.5284C170.233 14.6395 170.599 14.7756 170.955 14.9357C170.994 14.9533 171.032 14.9731 171.071 14.9913C171.419 15.1537 171.756 15.3403 172.078 15.5498L169.611 18.0165L162.465 25.1622L164.478 27.3451L171.883 19.9395L174.284 17.5389L176.467 15.3555L176.116 14.9622C175.999 14.8305 175.875 14.6997 175.744 14.5689C175.404 14.2284 175.059 13.912 174.709 13.6199C172.955 12.2426 170.849 11.3861 168.632 11.1481C166.415 10.91 164.175 11.2999 162.168 12.2734C160.162 13.2469 158.469 14.7647 157.284 16.6537C156.099 18.5428 155.468 20.7269 155.464 22.9571C155.442 24.5219 155.739 26.0749 156.337 27.5209C156.936 28.9669 157.823 30.2757 158.945 31.3671C160.048 32.4704 161.357 33.3457 162.799 33.9428C164.24 34.54 165.785 34.8473 167.345 34.8473C168.905 34.8473 170.45 34.54 171.891 33.9428C173.332 33.3457 174.642 32.4704 175.745 31.3671C176.207 30.9048 176.633 30.4067 177.018 29.8776L177.452 29.2755L174.434 28.1956Z" fill="#1A1A1A"/>
<path d="M26.2995 42.9389C37.173 42.9389 45.9878 34.1242 45.9878 23.2507C45.9878 12.3772 37.173 3.5625 26.2995 3.5625C15.426 3.5625 6.61133 12.3772 6.61133 23.2507C6.61133 34.1242 15.426 42.9389 26.2995 42.9389Z" fill="#1A1A1A"/>
<path fill-rule="evenodd" clip-rule="evenodd" d="M18.2746 30.3765C17.8588 29.9507 17.578 29.4116 17.4675 28.8268C17.357 28.2421 17.4217 27.6377 17.6534 27.0896C17.8851 26.5414 18.2735 26.0739 18.77 25.7457C19.2664 25.4176 19.8487 25.2433 20.4438 25.2449C21.0389 25.2464 21.6203 25.4237 22.115 25.7545C22.6098 26.0853 22.9958 26.5548 23.2246 27.1041C23.4535 27.6535 23.515 28.2582 23.4014 28.8423C23.2878 29.4265 23.0042 29.9641 22.5862 30.3877C22.0129 30.9579 21.2366 31.277 20.4281 31.2749C19.6195 31.2728 18.8449 30.9496 18.2746 30.3765ZM29.9905 20.3543C29.5638 19.9174 29.2757 19.3643 29.1623 18.7643C29.0489 18.1643 29.1152 17.5441 29.353 16.9817C29.5907 16.4192 29.9893 15.9395 30.4987 15.6028C31.0081 15.266 31.6056 15.0872 32.2162 15.0888C32.8268 15.0904 33.4234 15.2723 33.931 15.6117C34.4387 15.9511 34.8347 16.4329 35.0695 16.9966C35.3043 17.5603 35.3674 18.1808 35.2509 18.7802C35.1344 19.3796 34.8434 19.9312 34.4145 20.3659C33.8262 20.9509 33.0297 21.2783 32.2001 21.2762C31.3704 21.274 30.5756 20.9424 29.9905 20.3543ZM19.9945 34.6444C18.8247 34.647 17.6777 34.3209 16.6842 33.7034C15.6907 33.0858 14.8906 32.2016 14.3752 31.1515C13.8597 30.1014 13.6496 28.9276 13.7688 27.7639C13.888 26.6002 14.3317 25.4934 15.0494 24.5696C15.1007 24.5037 15.1761 24.4609 15.259 24.4505C15.3419 24.4401 15.4255 24.4629 15.4916 24.514L16.7499 25.4915C16.8158 25.5429 16.8586 25.6183 16.8691 25.7012C16.8795 25.7841 16.8566 25.8677 16.8055 25.9338C16.3436 26.5287 16.058 27.2415 15.9815 27.9909C15.9049 28.7402 16.0404 29.496 16.3725 30.1721C16.7046 30.8482 17.2199 31.4174 17.8597 31.8149C18.4996 32.2124 19.2382 32.4221 19.9915 32.4202L32.5807 32.4038C33.6254 32.4028 34.6288 31.9957 35.379 31.2687C36.1293 30.5417 36.5677 29.5515 36.6016 28.5074C36.6355 27.4632 36.2623 26.4467 35.5607 25.6726C34.8592 24.8984 33.8843 24.4271 32.8419 24.3583L32.778 24.3474L32.6021 24.3501L26.3447 24.3584L20.0209 24.3501C19.9281 24.35 19.8354 24.353 19.7428 24.3592C19.7307 24.3601 19.7186 24.3602 19.7064 24.3598C18.0773 24.2811 16.5433 23.5688 15.432 22.3749C14.3207 21.1809 13.72 19.5999 13.7582 17.9693C13.7964 16.3386 14.4704 14.7875 15.6363 13.6469C16.8023 12.5062 18.3679 11.8665 19.999 11.8641L32.5881 11.8477C33.7579 11.8451 34.9049 12.1711 35.8984 12.7887C36.8919 13.4062 37.692 14.2904 38.2075 15.3406C38.7229 16.3907 38.933 17.5645 38.8138 18.7282C38.6946 19.892 38.2509 20.9988 37.5333 21.9226C37.4819 21.9885 37.4065 22.0313 37.3236 22.0417C37.2408 22.0521 37.1571 22.0293 37.0911 21.9782L35.8328 21.0006C35.7669 20.9493 35.724 20.8739 35.7136 20.791C35.7032 20.7081 35.726 20.6245 35.7771 20.5584C36.2391 19.9635 36.5246 19.2507 36.6012 18.5013C36.6777 17.7519 36.5423 16.9961 36.2102 16.32C35.8781 15.6439 35.3628 15.0746 34.7229 14.6772C34.083 14.2797 33.3444 14.0699 32.5911 14.0718L20.0019 14.0883C18.9572 14.0894 17.9538 14.4964 17.2035 15.2234C16.4533 15.9505 16.0149 16.9406 15.981 17.9848C15.9472 19.029 16.3204 20.0455 17.0219 20.8196C17.7234 21.5938 18.6983 22.065 19.7408 22.1339C19.8304 22.1399 19.9202 22.1426 20.01 22.1426L26.3455 22.1342L32.613 22.1422C33.6994 22.1409 34.767 22.4265 35.7077 22.97C36.8977 23.6584 37.8275 24.7199 38.3531 25.9902C38.8786 27.2605 38.9706 28.6687 38.6148 29.9966C38.2589 31.3245 37.4751 32.4979 36.3848 33.3352C35.2944 34.1725 33.9584 34.6269 32.5837 34.6279L19.9945 34.6444Z" fill="#57C4BE"/>
</svg>
