<svg width="258" height="48" viewBox="0 0 258 48" fill="none" xmlns="http://www.w3.org/2000/svg">
<path d="M4.75814 41.5291V34.2716C8.87946 35.5783 12.5484 36.2317 15.7148 36.2317C20.1075 36.2317 22.2888 35.0757 22.2888 32.7437C22.2974 32.3331 22.2154 31.9257 22.0486 31.5504C21.8818 31.1751 21.6343 30.8412 21.3238 30.5724C20.6906 29.9392 19.0119 29.0847 16.3079 27.979C11.493 25.9887 8.3266 24.31 6.86906 22.8827C5.9376 21.9782 5.20388 20.8903 4.71424 19.6878C4.22459 18.4854 3.98968 17.1944 4.02434 15.8965C4.02434 12.2778 5.42157 9.49339 8.18587 7.60362C10.8999 5.71384 14.4784 4.78906 18.8611 4.78906C21.2736 4.78906 24.7817 5.2213 29.3654 6.12598V13.082C26.3552 11.8129 23.1323 11.124 19.8663 11.0515C15.745 11.0515 13.7044 12.1773 13.7044 14.4591C13.7044 15.3035 14.1065 15.9669 14.9509 16.5197C15.6243 16.9419 17.5342 17.8667 20.6302 19.2639C25.1134 21.2442 28.0888 22.9631 29.5866 24.4508C30.4705 25.3351 31.1625 26.3924 31.6191 27.5564C32.0757 28.7205 32.2872 29.9662 32.2403 31.2158C32.3015 33.0633 31.8479 34.8914 30.9302 36.4961C30.0125 38.1007 28.6668 39.4186 27.0434 40.3028C24.249 42.0116 20.6101 42.8761 16.1571 42.8761C12.3178 42.8747 8.49199 42.4226 4.75814 41.5291ZM38.0302 5.42234H48.2632V42.1121H38.0202L38.0302 5.42234ZM57.6618 42.1121V5.42234H83.9578V12.0567H67.5429V20.3596H81.8368V26.4109H67.5429V35.1159H84.38V42.1222L57.6618 42.1121ZM91.0847 42.1121V5.42234H104.373L113.591 28.8736L123.07 5.42234H135.706V42.1121H125.965V16.1378L115.209 42.4941H108.867L98.3121 16.1378V42.1222H91.0746L91.0847 42.1121ZM145.094 42.1121V5.42234H171.38V12.0567H154.975V20.3596H169.259V26.4109H154.975V35.1159H171.822V42.1222L145.094 42.1121ZM178.567 42.1121V5.42234H190.429L203.044 29.9995V5.43239H210.281V42.1222H198.701L185.785 17.2435V42.1322L178.567 42.1121ZM217.549 41.5291V34.2716C221.63 35.5783 225.289 36.2317 228.506 36.2317C232.888 36.2317 235.069 35.0757 235.069 32.7437C235.075 32.3383 234.996 31.9362 234.839 31.5626C234.681 31.189 234.448 30.8519 234.155 30.5724C233.491 29.9392 231.803 29.0847 229.099 27.979C224.274 26.0088 221.117 24.3201 219.65 22.8827C218.714 21.9748 217.977 20.8823 217.485 19.6745C216.994 18.4667 216.759 17.1698 216.795 15.8664C216.795 12.2577 218.182 9.49339 220.946 7.60362C223.681 5.71384 227.239 4.78906 231.612 4.78906C234.115 4.78906 237.301 5.17104 241.221 5.9551L242.126 6.12598V13.082C239.116 11.8136 235.893 11.1247 232.627 11.0515C228.516 11.0515 226.465 12.1773 226.465 14.4591C226.465 15.3035 226.867 15.9669 227.711 16.5097C228.375 16.9319 230.265 17.8466 233.441 19.2639C237.894 21.2341 240.859 22.9631 242.357 24.4508C243.24 25.3356 243.93 26.3932 244.385 27.5573C244.84 28.7214 245.05 29.9669 245.001 31.2158C245.001 35.1964 243.292 38.2321 239.874 40.3028C237.03 42.0116 233.401 42.8761 228.928 42.8761C225.098 42.8761 221.288 42.4137 217.549 41.5291Z" fill="#00C0D5"/>
</svg>
