<svg width="261" height="48" viewBox="0 0 261 48" fill="none" xmlns="http://www.w3.org/2000/svg">
<path d="M45.8279 15.7395C45.5233 17.9102 44.495 25.0699 39.2395 32.0773C33.9078 39.3132 26.9385 42.8169 24.8058 43.8832C22.7112 42.8169 15.7038 39.3132 10.3721 32.0773C5.1547 25.108 4.12645 17.9483 3.82178 15.7395L6.98271 14.0257V11.6645L10.1436 9.95076V7.58958C14.4852 5.49499 19.2837 4.16206 24.8058 3.40039C30.3279 4.12398 35.1264 5.49499 39.468 7.58958V9.95076L42.6289 11.6645V14.0257L45.8279 15.7395Z" fill="url(#paint0_linear_0_1)"/>
<path d="M45.4899 12.3498V9.98867L42.3289 8.27491V5.79948L40.7294 5.03781C36.1213 2.86704 31.0562 1.41987 25.1913 0.620115L24.8105 0.582031L24.4297 0.620115C18.6029 1.41987 13.4997 2.86704 8.92966 5.07589L7.33015 5.83756V8.31299L4.16922 9.98867V12.3498L0.741699 14.1779L1.00828 16.1201C1.92229 22.6705 4.32155 28.6115 8.12991 33.7528C11.9763 38.9702 17.1557 43.2356 23.5537 46.4346L24.8105 47.082L26.0673 46.4346C32.4653 43.2356 37.6446 38.9702 41.4911 33.7528C45.2994 28.6115 47.6987 22.6705 48.6127 16.1201L48.8793 14.1779L45.4899 12.3498ZM45.8326 15.7393C45.5279 17.91 44.4997 25.0697 39.2442 32.0771C33.9125 39.313 26.9432 42.8167 24.8105 43.883C22.7159 42.8167 15.7085 39.313 10.3768 32.0771C5.15939 25.1078 4.13113 17.9481 3.82647 15.7393L6.9874 14.0255V11.6643L10.1483 9.95058V7.5894C14.4899 5.49481 19.2884 4.16188 24.8105 3.40021C30.3326 4.1238 35.1311 5.49481 39.4727 7.5894V9.95058L42.6336 11.6643V14.0255L45.8326 15.7393Z" fill="#FFC200"/>
<path d="M20.1266 9.11032L20.279 28.3425L20.1266 28.4187C18.1082 23.2774 16.8895 16.8794 16.5087 10.4432C15.5185 10.9002 14.4522 11.4334 13.3478 12.1189C13.8048 17.9457 14.7949 23.0489 16.5849 27.9236L15.5566 28.4948C12.8527 24.7246 11.1008 20.1545 9.92025 14.7086C9.08242 15.4703 8.28266 16.3081 7.44482 17.2221C9.00625 23.7344 11.5198 28.6853 15.1377 32.684L17.9178 31.0084C19.2888 33.8646 21.193 36.6828 23.3257 38.9297V8.53906C22.2593 8.65331 21.193 8.84373 20.1266 9.11032Z" fill="#FFC200"/>
<path d="M38.0935 19.055C39.236 17.7982 39.4645 16.8842 39.4645 15.7798C39.4645 14.2184 38.1697 12.8093 36.2655 11.5906C35.123 10.867 33.3711 9.99112 30.8195 9.26753C29.3724 8.8867 27.8109 8.62011 26.2495 8.58203V39.0108C32.6475 35.7356 40.2262 26.7098 40.2643 22.1017C40.3404 20.6926 39.6168 19.7786 38.0935 19.055ZM29.4485 12.2C31.01 12.2 36.1131 13.7995 36.1131 15.856C36.1131 16.5796 35.4657 17.6459 33.4473 18.7123L29.4485 20.8449V12.2ZM33.4092 29.071C32.4952 30.0992 31.048 31.6987 29.4485 32.9174V24.1963C29.4485 24.1963 35.2372 20.9592 35.4276 20.8068C37.1414 21.2638 37.0652 22.5206 37.0652 22.6349C37.0652 24.2344 35.4276 26.7098 33.4092 29.071Z" fill="#FFC200"/>
<path d="M67.0303 21.3377L58.8794 1.33917H62.7099L67.3866 13.276L72.5087 0.804688L77.5863 13.276L82.2185 1.33917H85.9153L77.7645 21.3377L72.3751 8.46561L67.0303 21.3377Z" fill="#323232"/>
<path d="M103.461 20.5806H99.7201L97.7603 16.4384H89.5649L87.6051 20.5806H83.8638L93.6626 0.582031L103.461 20.5806ZM90.9011 13.6769H96.5132L93.6626 7.75301L90.9011 13.6769Z" fill="#323232"/>
<path d="M109.517 20.5793H105.954V1.33789H111.388C115.619 1.33789 118.648 3.52036 118.648 7.30628C118.648 9.93416 117.178 11.7158 114.862 12.562L120.83 20.5793H116.688L111.165 13.1411H109.472V20.5793H109.517ZM109.517 10.2905H111.388C113.57 10.2905 115.04 9.22151 115.04 7.30628C115.04 5.34651 113.57 4.27755 111.388 4.27755H109.517V10.2905Z" fill="#323232"/>
<path d="M165.157 20.5793H161.594V1.33789H167.028C171.259 1.33789 174.288 3.52036 174.288 7.30628C174.288 9.93416 172.818 11.7158 170.502 12.562L176.471 20.5793H172.328L166.805 13.1411H165.113V20.5793H165.157ZM165.157 10.2905H167.028C169.211 10.2905 170.68 9.22151 170.68 7.30628C170.68 5.34651 169.211 4.27755 167.028 4.27755H165.157V10.2905Z" fill="#323232"/>
<path d="M137.447 1.33922H140.921V21.2932L127.381 8.24295V20.5361H123.907V0.582031L137.447 13.6323V1.33922Z" fill="#323232"/>
<path d="M145.551 1.33789H157.399V4.27755H149.025V9.26605H156.731V12.2502H149.025V17.6396H157.444V20.5793H145.551V1.33789Z" fill="#323232"/>
<path d="M185.911 1.33789H191.434C195.709 1.33789 197.981 3.3422 197.981 6.41548C197.981 8.37525 196.778 9.80053 195.309 10.4241C197.491 11.0031 199.184 12.6511 199.184 15.1008C199.184 18.4859 196.556 20.5793 192.369 20.5793H185.911V1.33789ZM191.211 9.48875C193.215 9.48875 194.462 8.59795 194.462 6.90542C194.462 5.21289 193.215 4.27755 191.211 4.27755H189.385V9.44421H191.211V9.48875ZM192.146 17.5951C194.195 17.5951 195.531 16.5261 195.531 14.8336C195.531 13.1411 194.151 12.1166 192.146 12.1166H189.385V17.6396H192.146V17.5951Z" fill="#323232"/>
<path d="M206.443 20.5793H202.879V1.33789H208.313C212.545 1.33789 215.573 3.52036 215.573 7.30628C215.573 9.93416 214.104 11.7158 211.787 12.562L217.756 20.5793H213.614L208.135 13.1411H206.443V20.5793ZM206.443 10.2905H208.313C210.496 10.2905 211.966 9.22151 211.966 7.30628C211.966 5.34651 210.496 4.27755 208.313 4.27755H206.443V10.2905Z" fill="#323232"/>
<path d="M238.551 10.9598C238.551 16.4383 234.186 20.8923 228.707 20.8923C223.273 20.8923 218.864 16.4383 218.864 10.9598C218.864 5.48137 223.229 1.02734 228.707 1.02734C234.186 1.02734 238.551 5.48137 238.551 10.9598ZM222.472 10.9598C222.472 14.7457 225.278 17.5963 228.752 17.5963C232.226 17.5963 235.032 14.7457 235.032 10.9598C235.032 7.1739 232.226 4.32332 228.752 4.32332C225.233 4.32332 222.472 7.1739 222.472 10.9598Z" fill="#323232"/>
<path d="M246.877 17.8636C248.837 17.8636 250.218 16.9727 250.218 15.4138C250.218 14.1667 249.416 13.6322 248.169 13.0087L244.962 11.4943C242.869 10.5144 241.132 9.26729 241.132 6.55033C241.132 3.20981 243.849 1.02734 247.456 1.02734C249.639 1.02734 251.599 1.96269 252.623 2.94257V6.63941C251.153 5.16959 249.238 4.10062 247.323 4.10062C245.719 4.10062 244.517 4.90234 244.517 6.32763C244.517 7.3966 245.274 7.93108 246.343 8.46556L249.327 9.84631C252.133 11.138 253.603 12.4742 253.603 15.1466C253.603 18.7098 250.619 20.9368 246.833 20.9368C244.383 20.9368 242.245 20.0015 240.954 19.0216V15.3693C242.646 16.7055 244.695 17.8636 246.877 17.8636Z" fill="#323232"/>
<path d="M260.335 18.4887C260.335 19.7359 259.355 20.7157 258.108 20.7157H258.063C256.816 20.7157 255.836 19.7359 255.836 18.4887C255.836 17.2416 256.816 16.2617 258.063 16.2617H258.108C259.355 16.3063 260.335 17.2861 260.335 18.4887Z" fill="#323232"/>
<path d="M182.556 46.2808H178.993V27.084H184.427C188.658 27.084 191.687 29.2665 191.687 33.0524C191.687 35.6803 190.217 37.4619 187.901 38.3081L193.869 46.3254H189.727L184.204 38.8871H182.511V46.2808H182.556ZM182.556 36.0366H184.427C186.609 36.0366 188.079 34.9676 188.079 33.0524C188.079 31.0926 186.609 30.0236 184.427 30.0236H182.556V36.0366Z" fill="#323232"/>
<path d="M162.786 27.084H174.633V30.0236H166.26V35.0121H173.965V37.9963H166.26V43.3857H174.722V46.3254H162.83V27.084H162.786Z" fill="#323232"/>
<path d="M140.472 36.659C140.472 42.1375 136.107 46.5915 130.629 46.5915C125.195 46.5915 120.786 42.1375 120.786 36.659C120.786 31.1806 125.151 26.7266 130.629 26.7266C136.107 26.7711 140.472 31.1806 140.472 36.659ZM124.349 36.659C124.349 40.445 127.155 43.2955 130.629 43.2955C134.103 43.2955 136.909 40.445 136.909 36.659C136.909 32.8731 134.103 30.0225 130.629 30.0225C127.155 30.0225 124.349 32.8731 124.349 36.659Z" fill="#323232"/>
<path d="M67.2017 27.084C72.6801 27.084 77.0896 31.2262 77.0896 36.7047C77.0896 42.1831 72.6801 46.3254 67.2017 46.3254H61.2778V27.084H67.2017ZM64.8411 30.0236V43.3412H66.979C70.854 43.3412 73.5264 40.357 73.5264 36.6601C73.5264 32.9633 70.854 29.9791 66.979 29.9791H64.8411V30.0236Z" fill="#323232"/>
<path d="M84.3059 27.084V46.2808H80.7427V27.084H84.3059Z" fill="#323232"/>
<path d="M93.8384 43.5628C95.7982 43.5628 97.1789 42.672 97.1789 41.1131C97.1789 39.8659 96.3772 39.3314 95.1301 38.7079L91.9232 37.1935C89.8298 36.2136 88.0927 34.9665 88.0927 32.2496C88.0927 28.909 90.8542 26.7266 94.4174 26.7266C96.5999 26.7266 98.5597 27.6619 99.5841 28.6418V32.3386C98.1143 30.8688 96.199 29.7998 94.2838 29.7998C92.6803 29.7998 91.4778 30.6016 91.4778 32.0269C91.4778 33.0958 92.2349 33.6303 93.3039 34.1648L96.2881 35.5455C99.0941 36.8372 100.564 38.1734 100.564 40.8458C100.564 44.409 97.5798 46.636 93.7939 46.636C91.3441 46.636 89.2062 45.7007 87.9146 44.7208V41.0685C89.6071 42.4047 91.6559 43.5628 93.8384 43.5628Z" fill="#323232"/>
<path d="M118.025 41.1576V45.2553C116.6 46.1461 114.908 46.5915 113.037 46.5915C107.558 46.5915 103.149 42.1375 103.149 36.659C103.149 31.1806 107.558 26.7266 113.037 26.7266C114.863 26.7266 116.6 27.2165 118.025 28.0628V32.1605C116.912 30.9133 115.175 30.1116 113.126 30.1116C109.474 30.1116 106.712 32.9622 106.712 36.659C106.712 40.3559 109.518 43.2064 113.126 43.2064C115.175 43.2064 116.912 42.4047 118.025 41.1576Z" fill="#323232"/>
<path d="M140.778 27.084H144.697L150.666 39.9561L156.59 27.084H160.376L150.577 47.0825L140.778 27.084Z" fill="#323232"/>
<path d="M200.425 46.2785V37.6377L193.254 27.0371H197.263L202.207 34.3417L207.195 27.0371H211.204L204.033 37.6377V46.2785H200.425Z" fill="#323232"/>
<defs>
<linearGradient id="paint0_linear_0_1" x1="3.81702" y1="23.6805" x2="45.813" y2="23.6805" gradientUnits="userSpaceOnUse">
<stop stop-color="#4047FF"/>
<stop offset="1" stop-color="#04006C"/>
</linearGradient>
</defs>
</svg>
