<svg width="129" height="47" viewBox="0 0 129 47" fill="none" xmlns="http://www.w3.org/2000/svg">
<g clip-path="url(#clip0_837_1269)">
<path d="M72.2286 10.4473C71.824 10.5481 71.5205 10.5481 71.217 10.649C70.8124 10.7498 70.7112 10.9515 70.7112 11.355C70.7112 11.5567 70.8124 11.8592 70.9135 12.0609C71.7228 14.1789 72.5321 16.3976 73.2402 18.5156C73.2402 18.6164 73.3414 18.6164 73.3414 18.7173C73.6449 17.8096 73.9483 16.9019 74.2518 16.0951C74.7576 14.784 75.1622 13.4729 75.668 12.0609C75.7692 11.7584 75.8704 11.5567 75.8704 11.2541C75.9715 10.9515 75.7692 10.649 75.4657 10.5481C75.1622 10.4473 74.7576 10.4473 74.4541 10.3464V9.43874H78.6017V10.3464C77.8936 10.4473 77.5901 10.7498 77.3878 11.355C76.0727 14.9857 74.7576 18.5156 73.3414 22.1463C73.2402 22.348 73.1391 22.4489 72.9367 22.4489C72.7344 22.4489 72.4309 22.4489 72.2286 22.4489C71.217 19.9275 70.2054 17.3053 69.1938 14.784C68.8904 15.6917 68.4857 16.4985 68.1822 17.3053C67.5753 18.919 66.8672 20.6335 66.2602 22.2472C66.159 22.4489 66.0579 22.5497 65.8556 22.5497C65.1474 22.5497 65.1474 22.5497 64.844 21.8437C63.4277 18.3139 62.0115 14.784 60.5953 11.2541C60.3929 10.649 59.9883 10.4473 59.3813 10.3464V9.43874H65.0463V10.3464C64.7428 10.3464 64.5405 10.4473 64.237 10.4473C63.6301 10.5481 63.3266 10.8507 63.5289 11.4558C63.8324 12.3635 64.237 13.372 64.5405 14.2797C65.0463 15.5908 65.5521 17.0028 66.0579 18.3139C66.0579 18.4147 66.159 18.5156 66.159 18.6164C66.3614 18.213 66.4625 17.9105 66.5637 17.507C67.0695 16.0951 67.6764 14.6831 68.1822 13.2712C68.2834 13.0695 68.2834 12.8678 68.1822 12.6661C67.9799 12.2626 67.7776 11.7584 67.6764 11.355C67.4741 10.7498 67.1706 10.2456 66.3614 10.2456V9.33789H71.9251V10.4473H72.2286Z" fill="black"/>
<path d="M90.1222 16.3991H83.8503C83.8503 16.4999 83.8503 16.6008 83.8503 16.7016C83.8503 17.9119 83.8503 19.0213 83.8503 20.2315C83.8503 21.0383 84.1537 21.3409 84.963 21.4417C85.1653 21.4417 85.3677 21.4417 85.57 21.5426V22.4503H79.6016V21.5426C79.905 21.5426 80.2085 21.4417 80.512 21.4417C80.9166 21.3409 81.119 21.0383 81.2201 20.6349C81.2201 20.4332 81.2201 20.3324 81.2201 20.1307C81.2201 17.4076 81.2201 14.5837 81.2201 11.8606C81.2201 10.7513 80.8155 10.5496 80.1074 10.5496C79.905 10.5496 79.8039 10.5496 79.6016 10.4487V9.54102H85.57V10.4487C85.3677 10.4487 85.0642 10.5496 84.8619 10.5496C84.2549 10.6504 83.9514 10.8521 83.9514 11.4572C83.9514 12.0624 83.9514 12.6675 83.9514 13.2726C83.9514 13.8777 83.9514 14.5837 83.9514 15.2897H90.3245V14.9871C90.3245 13.9786 90.3245 12.97 90.3245 11.9615C90.3245 10.953 90.1222 10.6504 89.1106 10.5496C89.0094 10.5496 88.8071 10.5496 88.7059 10.5496V9.64187H94.6743V10.5496C94.472 10.5496 94.2697 10.6504 94.0674 10.6504C93.2581 10.7513 93.0558 11.0538 93.0558 11.8606C93.0558 13.1717 93.0558 14.4828 93.0558 15.7939C93.0558 17.3067 93.0558 18.8196 93.0558 20.3324C93.0558 21.24 93.3593 21.5426 94.1685 21.6435C94.3709 21.6435 94.472 21.6435 94.6743 21.7443V22.652H88.7059V21.7443C89.0094 21.7443 89.3129 21.6435 89.5152 21.6435C90.021 21.5426 90.3245 21.3409 90.3245 20.8366C90.1222 19.223 90.1222 17.811 90.1222 16.3991Z" fill="black"/>
<path d="M106.071 30.7937C106.071 30.9954 106.071 31.0963 106.071 31.1971C106.071 34.2227 106.071 37.2483 106.071 40.2739C106.071 40.3748 106.071 40.5765 106.071 40.6774C106.071 41.1816 106.375 41.4842 106.88 41.4842C107.588 41.585 108.297 41.585 109.005 41.585C110.724 41.4842 112.039 40.3748 112.545 38.7611C112.95 37.3492 112.95 35.8364 112.646 34.4244C112.343 33.0125 111.635 31.8022 110.219 31.1971C109.814 30.9954 109.51 30.8945 109.106 30.8945C108.094 30.8945 107.083 30.8945 106.071 30.7937ZM101.721 30.6928V29.7852C101.822 29.7852 101.924 29.7852 101.924 29.7852C104.453 29.7852 106.88 29.7852 109.409 29.7852C110.623 29.7852 111.837 30.0877 112.849 30.6928C114.467 31.6005 115.378 33.0125 115.58 34.727C115.782 36.2398 115.681 37.6517 115.074 39.0637C114.164 41.0808 112.545 42.1902 110.421 42.5936C109.915 42.6944 109.308 42.6944 108.802 42.6944C106.577 42.6944 104.25 42.6944 102.025 42.6944H101.721V41.7867C102.025 41.7867 102.328 41.6859 102.632 41.6859C103.137 41.585 103.34 41.2825 103.34 40.8791C103.34 40.7782 103.34 40.5765 103.34 40.4756C103.34 37.7526 103.34 34.9287 103.34 32.2056C103.34 31.1971 103.137 30.8945 102.126 30.7937C102.025 30.6928 101.924 30.6928 101.721 30.6928Z" fill="black"/>
<path d="M77.625 36.1421C77.625 37.3524 77.8273 38.7643 78.6366 39.9746C79.4459 41.2857 80.8621 41.8908 82.3795 41.5882C83.4922 41.3865 84.2004 40.5797 84.605 39.5711C85.212 38.0583 85.3131 36.4447 84.9085 34.7302C84.7062 33.5199 84.2004 32.4105 83.2899 31.6037C82.076 30.4943 79.4459 30.3935 78.4343 32.4105C77.8273 33.5199 77.625 34.7302 77.625 36.1421ZM74.7925 37.5541C74.6914 36.6464 74.6914 35.6379 74.8937 34.7302C75.1972 33.5199 75.703 32.4105 76.7146 31.5029C77.8273 30.3935 79.2435 29.7883 80.7609 29.6875C81.9749 29.5866 83.0876 29.6875 84.2004 30.1918C86.2236 30.9986 87.4375 32.6122 87.8421 34.7302C88.2468 37.0498 87.8421 39.2686 86.1224 40.9831C85.0096 42.1933 83.4922 42.7985 81.8737 42.8993C80.6598 43.0002 79.4459 42.8993 78.3331 42.3951C76.4111 41.4874 75.2983 39.9746 74.7925 37.9575C74.7925 37.7558 74.7925 37.6549 74.7925 37.5541Z" fill="black"/>
<path d="M116.591 10.4487V9.54102H127.718V12.8692C127.415 12.8692 127.111 12.8692 126.808 12.8692C126.707 12.8692 126.707 12.7683 126.606 12.6675C126.403 12.3649 126.302 11.9615 126.1 11.6589C125.695 11.0538 125.189 10.7513 124.481 10.7513C123.267 10.7513 122.155 10.7513 120.941 10.7513V15.2897H121.042C121.851 15.2897 122.66 15.2897 123.571 15.2897C124.279 15.2897 124.582 14.9871 124.886 14.2811C124.987 14.0794 124.987 13.8777 125.088 13.676H125.999V17.9119H125.088C124.987 17.7102 124.987 17.4076 124.886 17.2059C124.684 16.7016 124.38 16.3991 123.874 16.3991C122.964 16.3991 122.053 16.3991 121.143 16.3991C121.143 16.4999 121.143 16.6008 121.143 16.7016C121.143 17.811 121.143 18.9204 121.143 20.0298C121.143 20.8366 121.548 21.24 122.357 21.24C123.166 21.24 123.975 21.24 124.684 21.24C125.392 21.24 125.999 20.9375 126.403 20.3324C126.707 19.9289 127.01 19.5255 127.314 19.0213C127.415 18.8196 127.516 18.8196 127.718 18.8196C127.921 18.8196 128.224 18.8196 128.528 18.8196C128.325 20.0298 128.123 21.24 127.921 22.3494H116.793V21.4418C117.097 21.4418 117.4 21.3409 117.602 21.3409C118.209 21.24 118.412 20.9375 118.412 20.2315C118.412 18.7187 118.412 17.3067 118.412 15.7939C118.412 14.382 118.412 13.0709 118.412 11.6589C118.412 10.7513 118.209 10.4487 117.299 10.3478C116.995 10.4487 116.793 10.4487 116.591 10.4487Z" fill="black"/>
<path d="M67.1505 37.4539V36.5462H73.7259C73.7259 36.8487 73.6247 37.1513 73.6247 37.4539C73.4224 37.4539 72.7143 37.5547 72.512 37.5547C71.8039 37.6556 71.5004 37.9581 71.5004 38.765C71.5004 39.6726 71.5004 40.4795 71.5004 41.3872C71.5004 41.5889 71.3992 41.6897 71.2981 41.7906C69.6795 42.6983 67.9598 43.0008 66.1389 43.0008C65.4308 43.0008 64.6215 42.9 63.9134 42.6983C61.1821 41.8914 59.5636 39.5718 59.4624 36.8487C59.4624 34.8317 60.0694 33.0163 61.4856 31.6043C62.5984 30.495 64.0146 29.9907 65.6331 29.789C67.2517 29.6881 68.7691 29.789 70.1853 30.495C71.0958 30.8984 71.0958 30.8984 71.0958 31.9069C71.0958 32.6129 71.0958 33.218 71.0958 33.924H69.983C69.7807 33.4197 69.5784 33.0163 69.2749 32.6129C68.6679 31.6043 67.6563 30.9992 66.5436 30.9992C66.1389 30.9992 65.6331 30.9992 65.2285 31.1001C63.8123 31.4026 63.1041 32.4112 62.6995 33.6214C62.0926 35.5376 62.1937 37.4539 62.9018 39.2692C63.4076 40.5803 64.4192 41.5889 65.9366 41.7906C66.8471 41.8914 67.6563 41.8914 68.4656 41.3872C68.6679 41.2863 68.7691 41.1854 68.7691 40.8829C68.7691 40.1769 68.7691 39.4709 68.7691 38.8658C68.7691 38.059 68.4656 37.7564 67.7575 37.6556C67.5552 37.4539 67.3529 37.4539 67.1505 37.4539Z" fill="black"/>
<path d="M102.845 9.54102H115.288C115.389 10.8521 115.49 12.1632 115.591 13.4743C115.288 13.4743 114.984 13.4743 114.681 13.4743C114.579 13.4743 114.478 13.3735 114.478 13.2726C114.276 12.8692 114.074 12.4658 113.871 11.9615C113.467 11.0538 112.86 10.5496 111.848 10.5496C111.443 10.5496 111.039 10.5496 110.533 10.5496C110.533 10.6504 110.533 10.7513 110.533 10.8521C110.533 13.9786 110.533 17.0042 110.533 20.1307C110.533 21.0383 110.837 21.3409 111.646 21.4418C111.848 21.4418 112.05 21.4418 112.253 21.5426V22.4503H105.88V21.5426C106.082 21.5426 106.284 21.4418 106.588 21.4418C107.397 21.3409 107.701 21.0383 107.701 20.2315C107.701 19.4247 107.701 18.517 107.701 17.7102V10.953V10.5496C106.689 10.5496 105.677 10.3478 104.868 11.2555C104.666 11.5581 104.463 11.8606 104.261 12.1632C104.16 12.3649 104.059 12.5666 103.958 12.7683C103.553 13.4743 103.452 13.5752 102.643 13.3735C102.643 12.0624 102.744 10.8521 102.845 9.54102Z" fill="black"/>
<path d="M100.721 38.7638C100.519 40.0749 100.317 41.386 100.013 42.7979H88.9868V41.8903C89.1891 41.8903 89.3915 41.7894 89.5938 41.7894C90.4031 41.6886 90.7065 41.386 90.7065 40.5792C90.7065 38.3604 90.7065 36.2425 90.7065 34.0237C90.7065 33.4185 90.7065 32.7126 90.7065 32.1075C90.7065 31.1998 90.4031 30.8972 89.5938 30.8972C89.3915 30.8972 89.1891 30.8972 88.9868 30.7964V29.8887H94.9552V30.7964C94.7529 30.7964 94.4494 30.8972 94.2471 30.8972C93.539 30.9981 93.2355 31.3006 93.2355 32.0066C93.2355 32.8134 93.2355 33.5194 93.2355 34.3262C93.2355 36.3433 93.2355 38.3604 93.2355 40.4783C93.2355 41.386 93.6402 41.6886 94.4494 41.7894C95.1576 41.7894 95.8657 41.7894 96.5738 41.7894C97.2819 41.7894 97.8889 41.386 98.1923 40.8817C98.597 40.3775 98.9005 39.7723 99.2039 39.1672C99.3051 38.9655 99.4063 38.9655 99.6086 38.9655C100.114 38.7638 100.418 38.7638 100.721 38.7638Z" fill="black"/>
<path d="M95.6743 10.4487V9.54102H101.643V10.4487C101.44 10.4487 101.238 10.5496 101.036 10.5496C100.328 10.6504 100.024 10.953 100.024 11.6589C100.024 12.3649 100.024 13.0709 100.024 13.7769C100.024 15.8948 100.024 18.1136 100.024 20.2315C100.024 21.1392 100.328 21.3409 101.137 21.4418C101.339 21.4418 101.542 21.4418 101.643 21.5426V22.4503H95.6743V21.5426C95.8766 21.5426 96.1801 21.4418 96.3824 21.4418C96.9894 21.3409 97.2929 21.0383 97.2929 20.4332C97.2929 20.0298 97.2929 19.6264 97.2929 19.223C97.2929 16.8025 97.2929 14.2811 97.2929 11.8606C97.2929 10.7513 96.8882 10.5496 96.1801 10.5496C96.079 10.4487 95.8766 10.4487 95.6743 10.4487Z" fill="black"/>
<path d="M21.7458 8.8763L20.6884 10.8888L17.2279 17.693L20.6884 24.4971L19.631 26.5096L15.1132 17.693L19.631 8.8763L20.6884 6.8638L21.7458 4.8513L22.8031 6.8638L21.7458 8.8763ZM24.245 17.693L21.8419 22.3888L19.3427 17.693L21.7458 12.9971L24.245 17.693ZM41.9318 17.693H39.8171L27.4171 41.5555L22.8031 32.643L23.8605 30.6305L27.4171 37.4346L37.7024 17.693H37.3179H35.5876L34.338 20.0888L27.4171 33.4096L24.9179 28.618L29.7241 19.3221C29.7241 19.2263 29.8202 19.1305 29.8202 19.1305C30.2047 18.4596 30.4931 17.7888 30.4931 17.7888C30.4931 17.7888 30.2047 17.2138 30.0124 16.7346L24.9179 6.76797L23.8605 4.75547L22.8031 2.74297L21.7458 0.730469L20.6884 2.74297L19.631 4.75547L18.5737 6.76797L13.5752 16.6388L12.9985 17.693L13.8636 19.3221L18.6698 28.618L16.1706 33.4096L9.34577 20.1846C8.38453 18.0763 8.2884 17.693 8.2884 17.693H5.8853L16.0745 37.4346L19.631 30.5346L20.6884 28.5221L21.7458 26.5096L22.8031 24.4971L26.2636 17.693L22.8031 10.8888L23.8605 8.8763L28.3783 17.693L23.8605 26.5096L22.8031 28.5221L21.7458 30.5346L20.6884 32.5471L16.0745 41.4596L3.77057 17.693H1.65585H1.0791V19.418H1.36747C2.13647 19.418 2.80933 19.8013 3.19383 20.4721L16.1706 45.6763L21.8419 34.7513L27.5132 45.6763L40.3938 20.7596C40.7783 19.8971 41.6434 19.418 42.6047 19.418V17.693H41.9318Z" fill="black"/>
</g>
<defs>
<clipPath id="clip0_837_1269">
<rect width="128" height="46" fill="white" transform="translate(0.741699 0.25)"/>
</clipPath>
</defs>
</svg>
