<svg width="74" height="63" viewBox="0 0 74 63" fill="none" xmlns="http://www.w3.org/2000/svg">
<g filter="url(#filter0_d_90_813)">
<circle cx="37" cy="33" r="29.5" stroke="#E73D26" shape-rendering="crispEdges"/>
</g>
<path d="M33.16 25.4431C33.0275 25.5753 32.9225 25.7322 32.8508 25.9051C32.7791 26.0779 32.7422 26.2631 32.7422 26.4502C32.7422 26.6373 32.7791 26.8226 32.8508 26.9954C32.9225 27.1682 33.0275 27.3252 33.16 27.4574L38.7028 33.0002L33.16 38.5431C32.8929 38.8102 32.7428 39.1725 32.7428 39.5502C32.7428 39.928 32.8929 40.2903 33.16 40.5574C33.4271 40.8245 33.7894 40.9746 34.1671 40.9746C34.5449 40.9746 34.9071 40.8245 35.1743 40.5574L41.7314 34.0002C41.8638 33.8681 41.9689 33.7111 42.0406 33.5383C42.1123 33.3655 42.1492 33.1802 42.1492 32.9931C42.1492 32.806 42.1123 32.6207 42.0406 32.4479C41.9689 32.2751 41.8638 32.1181 41.7314 31.986L35.1743 25.4288C34.6314 24.886 33.7171 24.886 33.16 25.4431Z" fill="#E73D26"/>
<defs>
<filter id="filter0_d_90_813" x="0" y="0" width="74" height="74" filterUnits="userSpaceOnUse" color-interpolation-filters="sRGB">
<feFlood flood-opacity="0" result="BackgroundImageFix"/>
<feColorMatrix in="SourceAlpha" type="matrix" values="0 0 0 0 0 0 0 0 0 0 0 0 0 0 0 0 0 0 127 0" result="hardAlpha"/>
<feOffset dy="4"/>
<feGaussianBlur stdDeviation="3.5"/>
<feComposite in2="hardAlpha" operator="out"/>
<feColorMatrix type="matrix" values="0 0 0 0 0 0 0 0 0 0 0 0 0 0 0 0 0 0 0.25 0"/>
<feBlend mode="normal" in2="BackgroundImageFix" result="effect1_dropShadow_90_813"/>
<feBlend mode="normal" in="SourceGraphic" in2="effect1_dropShadow_90_813" result="shape"/>
</filter>
</defs>
</svg>
