<svg width="79" height="79" viewBox="0 0 79 79" fill="none" xmlns="http://www.w3.org/2000/svg">
<g clip-path="url(#clip0_462_1727)">
<path d="M22.2608 32.8929C22.2608 33.8424 22.363 34.6124 22.5438 35.1754C22.7483 35.7391 23.0052 36.3551 23.3637 37.0209C23.4897 37.2255 23.542 37.43 23.542 37.6108C23.542 37.8652 23.3874 38.122 23.0551 38.3783L21.4403 39.4556C21.2096 39.6078 20.9789 39.6863 20.775 39.6863C20.5181 39.6863 20.2613 39.5579 20.0044 39.3272C19.6597 38.9553 19.3508 38.5518 19.0816 38.122C18.7965 37.6289 18.5317 37.1243 18.2879 36.6095C16.2903 38.9681 13.7776 40.1477 10.7525 40.1477C8.60085 40.1477 6.88439 39.5317 5.62686 38.3022C4.37116 37.0709 3.73145 35.4305 3.73145 33.3805C3.73145 31.2026 4.49959 29.4338 6.0645 28.1026C7.62636 26.7684 9.70195 26.1025 12.3436 26.1025C13.214 26.1025 14.11 26.1786 15.0583 26.307C16.0078 26.4355 16.9823 26.64 18.0073 26.8707V24.9996C18.0073 23.0518 17.5959 21.6945 16.8022 20.9008C15.9804 20.1064 14.5969 19.7212 12.6236 19.7212C11.727 19.7212 10.8049 19.8234 9.85594 20.0541C8.9138 20.2786 7.9889 20.5701 7.08829 20.9263C6.67683 21.1047 6.37006 21.2069 6.19171 21.2593C6.01155 21.3092 5.88312 21.3354 5.78086 21.3354C5.42174 21.3354 5.2434 21.0785 5.2434 20.5416V19.2859C5.2434 18.8745 5.29331 18.5677 5.42174 18.3875C5.54956 18.2092 5.78086 18.0309 6.13998 17.8501C7.03595 17.3887 8.1133 17.004 9.36839 16.6966C10.6241 16.3637 11.9577 16.2097 13.3674 16.2097C16.4156 16.2097 18.6458 16.9012 20.0823 18.2853C21.492 19.6688 22.2078 21.7706 22.2078 24.5906V32.8929H22.2608ZM11.8561 36.7903C12.7003 36.7903 13.5725 36.6357 14.4953 36.3289C15.418 36.0197 16.2379 35.4566 16.93 34.6885C17.339 34.2016 17.6482 33.6635 17.8004 33.0481C17.955 32.4321 18.0572 31.6908 18.0572 30.8173V29.743C17.2809 29.5523 16.4942 29.4061 15.7011 29.3054C14.9014 29.2045 14.0961 29.1537 13.2901 29.1532C11.5736 29.1532 10.3179 29.4861 9.47126 30.1782C8.62703 30.8697 8.21617 31.8423 8.21617 33.1242C8.21617 34.3294 8.52294 35.226 9.16449 35.8413C9.78047 36.481 10.677 36.7903 11.8561 36.7903ZM32.4348 39.5579C31.9734 39.5579 31.6666 39.4818 31.4621 39.301C31.2552 39.1464 31.0768 38.7898 30.9222 38.3028L24.9 18.4916C24.7478 17.9785 24.6687 17.6456 24.6687 17.4648C24.6687 17.0558 24.8738 16.8257 25.2853 16.8257H27.7961C28.283 16.8257 28.616 16.9012 28.7967 17.0819C29.0012 17.2341 29.1558 17.5932 29.308 18.0802L33.6138 35.0476L37.6128 18.0808C37.7394 17.5695 37.894 17.2347 38.0979 17.0825C38.3049 16.9273 38.664 16.8251 39.1254 16.8251H41.1748C41.6617 16.8251 41.9953 16.9012 42.1998 17.0819C42.4043 17.2341 42.5851 17.5932 42.6867 18.0802L46.7362 35.2521L51.1704 18.0808C51.3226 17.5695 51.5034 17.2347 51.6817 17.0825C51.8862 16.9273 52.2216 16.8251 52.6824 16.8251H55.0648C55.4762 16.8251 55.7069 17.0296 55.7069 17.4648C55.7069 17.5926 55.6807 17.7217 55.6546 17.8763C55.6284 18.0309 55.5785 18.2354 55.4762 18.5154L49.2994 38.3284C49.1448 38.8397 48.9664 39.1726 48.7595 39.3266C48.555 39.4818 48.222 39.5841 47.7868 39.5841H45.5834C45.0959 39.5841 44.7629 39.5049 44.5584 39.3272C44.3515 39.1464 44.1731 38.8135 44.0709 38.3022L40.098 21.7706L36.1508 38.276C36.0229 38.7898 35.8708 39.1227 35.6638 39.301C35.4587 39.4818 35.1002 39.5579 34.6388 39.5579H32.4348ZM65.3672 40.25C64.036 40.25 62.7018 40.0954 61.4206 39.7886C60.1387 39.4818 59.1405 39.1464 58.4746 38.7636C58.0631 38.5329 57.7825 38.2766 57.6802 38.0453C57.5792 37.8193 57.5266 37.5747 57.5256 37.3271V36.0197C57.5256 35.4828 57.7302 35.226 58.1161 35.226C58.2682 35.226 58.4222 35.2521 58.5768 35.3045C58.729 35.3544 58.9597 35.4566 59.2159 35.5589C60.1219 35.9568 61.0673 36.2579 62.0365 36.4573C63.0609 36.6618 64.0598 36.7641 65.0866 36.7641C66.7014 36.7641 67.9565 36.481 68.8269 35.918C69.6992 35.3544 70.1605 34.5339 70.1605 33.4833C70.1605 32.7651 69.9298 32.1777 69.4691 31.6902C69.0077 31.2032 68.1349 30.7674 66.8798 30.3566L63.1632 29.2031C61.2921 28.6133 59.908 27.7435 59.0644 26.5901C58.2183 25.461 57.7825 24.2053 57.7825 22.8741C57.7825 21.7967 58.0138 20.8484 58.4746 20.0279C58.9321 19.2034 59.5612 18.4867 60.3195 17.9262C61.0876 17.3388 61.9605 16.9012 62.9855 16.5944C64.0099 16.2876 65.0866 16.1592 66.2139 16.1592C66.7775 16.1592 67.3667 16.1854 67.9304 16.2614C68.5202 16.3375 69.0576 16.4398 69.5969 16.542C70.1082 16.6705 70.5957 16.7989 71.0571 16.9535C71.5185 17.1081 71.8776 17.2603 72.1345 17.4149C72.4936 17.6194 72.7498 17.8239 72.902 18.054C73.0566 18.2609 73.1327 18.5421 73.1327 18.9007V20.1058C73.1327 20.6439 72.9282 20.9263 72.5429 20.9263C72.3384 20.9263 72.0054 20.8222 71.5708 20.6177C70.1082 19.9518 68.4678 19.6189 66.6491 19.6189C65.1889 19.6189 64.036 19.8496 63.2417 20.3371C62.445 20.8222 62.0365 21.5667 62.0365 22.6172C62.0365 23.3355 62.2928 23.9508 62.8041 24.436C63.3178 24.9229 64.2667 25.4111 65.6241 25.8457L69.264 26.9991C71.1095 27.5889 72.4412 28.4088 73.235 29.46C74.0293 30.5112 74.4146 31.7163 74.4146 33.0481C74.4146 34.151 74.1833 35.1499 73.7487 36.0197C73.2873 36.8925 72.6713 37.6607 71.8776 38.276C71.0833 38.9158 70.1344 39.3771 69.0339 39.7125C67.8804 40.0692 66.6753 40.25 65.3672 40.25Z" fill="#252F3E"/>
<path d="M71.9416 44.8888C69.244 44.9271 66.0594 45.5291 63.6509 47.2212C62.9065 47.7587 63.0349 48.4763 63.8554 48.374C66.5993 48.0411 72.6447 47.3235 73.722 48.707C74.7994 50.0643 72.5193 55.7798 71.4924 58.318C71.1857 59.0849 71.8516 59.3947 72.543 58.8049C77.0533 55.0123 78.2329 47.0928 77.3102 45.9393C76.8494 45.3763 74.6393 44.8498 71.9416 44.8888ZM1.11 46.4171C0.545757 46.4877 0.290113 47.1695 0.886007 47.7081C10.934 56.7786 24.2342 62.2385 38.997 62.2385C49.5302 62.2385 61.7798 58.9333 70.2106 52.7066C71.5941 51.6791 70.3913 50.1173 68.981 50.7564C59.5259 54.7554 49.2472 56.7032 39.8936 56.7032C26.0292 56.7032 12.6249 52.8849 1.75824 46.579C1.52086 46.4384 1.29869 46.394 1.11061 46.4171H1.11Z" fill="#FF9900"/>
</g>
<defs>
<clipPath id="clip0_462_1727">
<rect width="77.9105" height="77.9105" fill="white" transform="translate(0.118164 0.243164)"/>
</clipPath>
</defs>
</svg>
