<svg width="79" height="79" viewBox="0 0 79 79" fill="none" xmlns="http://www.w3.org/2000/svg">
<g clip-path="url(#clip0_462_1736)">
<path d="M26.5063 2.96401H49.2654L25.6398 72.9642C25.3972 73.6838 24.9349 74.309 24.3181 74.7519C23.7013 75.1948 22.961 75.433 22.2017 75.4329H4.49006C3.91483 75.4327 3.34789 75.2957 2.83606 75.0332C2.32424 74.7707 1.88222 74.3902 1.5465 73.9231C1.21089 73.4559 0.991387 72.9155 0.906171 72.3466C0.820955 71.7777 0.872478 71.1967 1.05647 70.6517L23.0682 5.43207C23.311 4.71257 23.7732 4.08733 24.39 3.64438C25.0068 3.20142 25.7469 2.96307 26.5063 2.96289V2.96401Z" fill="url(#paint0_linear_462_1736)"/>
<path d="M59.5785 49.915H23.4883C23.1527 49.9144 22.8247 50.0149 22.547 50.2034C22.2694 50.392 22.055 50.6598 21.9319 50.972C21.8087 51.2842 21.7825 51.6263 21.8567 51.9536C21.9309 52.2809 22.1019 52.5782 22.3476 52.8069L45.5382 74.4526C46.2134 75.0824 47.1024 75.4327 48.0258 75.4326H68.4615L59.5785 49.915Z" fill="#0078D4"/>
<path d="M26.506 2.96389C25.7383 2.96101 24.9899 3.20362 24.37 3.6563C23.75 4.10898 23.291 4.74801 23.0601 5.48006L1.08357 70.5923C0.887377 71.1393 0.825802 71.7255 0.904051 72.3013C0.982301 72.8771 1.19807 73.4256 1.53312 73.9004C1.86816 74.3752 2.31263 74.7624 2.82892 75.0291C3.34521 75.2958 3.91814 75.4343 4.49925 75.4328H22.6685C23.3452 75.3119 23.9776 75.0135 24.5012 74.5682C25.0249 74.1229 25.4209 73.5466 25.649 72.8981L30.0313 59.9822L45.686 74.583C46.3419 75.1257 47.1647 75.4258 48.0159 75.4328H68.3758L59.4461 49.9153L33.4156 49.9214L49.3473 2.96389H26.506Z" fill="url(#paint1_linear_462_1736)"/>
<path d="M55.5751 5.42857C55.3328 4.71008 54.871 4.08576 54.255 3.64358C53.639 3.2014 52.8998 2.96366 52.1416 2.96387H26.7773C27.5355 2.96395 28.2745 3.20181 28.8904 3.64395C29.5062 4.0861 29.9679 4.71026 30.2104 5.42857L52.2227 70.651C52.4069 71.1961 52.4587 71.7773 52.3737 72.3464C52.2887 72.9155 52.0694 73.4562 51.7338 73.9236C51.3983 74.3911 50.9562 74.7719 50.4442 75.0345C49.9322 75.2971 49.3651 75.434 48.7896 75.4338H74.155C74.7302 75.4334 75.297 75.2962 75.8087 75.0334C76.3203 74.7706 76.7621 74.3898 77.0975 73.9225C77.4328 73.4551 77.6522 72.9147 77.7374 72.3459C77.8226 71.777 77.7712 71.1961 77.5874 70.651L55.5751 5.42857Z" fill="url(#paint2_linear_462_1736)"/>
</g>
<defs>
<linearGradient id="paint0_linear_462_1736" x1="34.8016" y1="8.33423" x2="11.1659" y2="78.1588" gradientUnits="userSpaceOnUse">
<stop stop-color="#114A8B"/>
<stop offset="1" stop-color="#0669BC"/>
</linearGradient>
<linearGradient id="paint1_linear_462_1736" x1="42.1842" y1="40.8743" x2="36.7172" y2="42.7225" gradientUnits="userSpaceOnUse">
<stop stop-opacity="0.3"/>
<stop offset="0.071" stop-opacity="0.2"/>
<stop offset="0.321" stop-opacity="0.1"/>
<stop offset="0.623" stop-opacity="0.05"/>
<stop offset="1" stop-opacity="0"/>
</linearGradient>
<linearGradient id="paint2_linear_462_1736" x1="39.1775" y1="6.29732" x2="65.1224" y2="75.4187" gradientUnits="userSpaceOnUse">
<stop stop-color="#3CCBF4"/>
<stop offset="1" stop-color="#2892DF"/>
</linearGradient>
<clipPath id="clip0_462_1736">
<rect width="77.9105" height="77.9105" fill="white" transform="translate(0.366211 0.243164)"/>
</clipPath>
</defs>
</svg>
