<svg width="78" height="79" viewBox="0 0 78 79" fill="none" xmlns="http://www.w3.org/2000/svg">
<path d="M49.1531 24.7729H49.3965L49.2748 24.6512L57.7963 16.1297V15.9471C50.6139 9.61687 40.6925 7.42564 31.5015 10.1647C22.3104 12.9037 15.2498 20.2078 12.6934 29.4597C12.8151 29.3988 12.9977 29.338 13.1803 29.338C16.3454 27.2685 20.1192 26.0511 24.0756 26.0511C25.4147 26.0511 26.6929 26.1729 27.9711 26.4163C28.032 26.3555 28.0929 26.3555 28.1537 26.3555C33.6318 20.3296 42.8837 19.5992 49.2139 24.7729H49.1531Z" fill="#EA4535"/>
<path d="M65.8921 29.3375C64.4921 24.1637 61.5705 19.4769 57.4924 15.8857L48.7883 24.5289C52.4403 27.5115 54.5707 32.0157 54.449 36.7025V38.2242C64.7356 38.2242 64.7356 53.5628 54.449 53.5628H38.9886V65.7363H38.9277L38.9886 65.8581H54.449C63.3356 65.9189 71.1876 60.1974 73.8049 51.7976C76.4222 43.3979 73.1962 34.2678 65.8921 29.3375Z" fill="#557EBF"/>
<path d="M23.8317 65.9189H39.8399V53.6236H23.8317C22.6752 53.6236 21.5796 53.3802 20.5448 52.9541L11.293 61.8408V61.9625C14.945 64.5798 19.3275 65.9798 23.8926 65.9798L23.8317 65.9189Z" fill="#36A852"/>
<path d="M24.5622 25.7471C15.4929 25.8079 7.45838 31.4078 4.53673 39.6249C1.61509 47.9029 4.53673 56.9722 11.7191 62.3285L21.2145 53.2592C15.9798 51.0071 14.7625 44.4334 18.7798 40.5988C22.797 36.7032 29.6142 37.9206 31.988 42.9117L41.4834 33.8425C37.4661 28.7905 31.1967 25.8079 24.5622 25.8688V25.7471Z" fill="#F9BC15"/>
</svg>
