<svg width="51" height="51" viewBox="0 0 51 51" fill="none" xmlns="http://www.w3.org/2000/svg">
<g filter="url(#filter0_d_950_533)">
<circle cx="18.5" cy="18.5" r="18" transform="matrix(-1 0 0 1 44 3)" stroke="#E73D26" shape-rendering="crispEdges"/>
</g>
<path d="M27.8703 16.8398C27.952 16.9213 28.0168 17.0182 28.061 17.1247C28.1052 17.2313 28.1279 17.3455 28.1279 17.4609C28.1279 17.5763 28.1052 17.6905 28.061 17.7971C28.0168 17.9037 27.952 18.0005 27.8703 18.082L24.4522 21.5001L27.8703 24.9182C28.035 25.0829 28.1276 25.3063 28.1276 25.5393C28.1276 25.7722 28.035 25.9956 27.8703 26.1603C27.7056 26.325 27.4822 26.4176 27.2492 26.4176C27.0163 26.4176 26.7929 26.325 26.6282 26.1603L22.5846 22.1168C22.5029 22.0353 22.4381 21.9384 22.3939 21.8319C22.3497 21.7253 22.327 21.6111 22.327 21.4957C22.327 21.3803 22.3497 21.2661 22.3939 21.1595C22.4381 21.0529 22.5029 20.9561 22.5846 20.8746L26.6282 16.831C26.9629 16.4963 27.5267 16.4963 27.8703 16.8398Z" fill="#E73D26"/>
<defs>
<filter id="filter0_d_950_533" x="0" y="0" width="51" height="51" filterUnits="userSpaceOnUse" color-interpolation-filters="sRGB">
<feFlood flood-opacity="0" result="BackgroundImageFix"/>
<feColorMatrix in="SourceAlpha" type="matrix" values="0 0 0 0 0 0 0 0 0 0 0 0 0 0 0 0 0 0 127 0" result="hardAlpha"/>
<feOffset dy="4"/>
<feGaussianBlur stdDeviation="3.5"/>
<feComposite in2="hardAlpha" operator="out"/>
<feColorMatrix type="matrix" values="0 0 0 0 0 0 0 0 0 0 0 0 0 0 0 0 0 0 0.25 0"/>
<feBlend mode="normal" in2="BackgroundImageFix" result="effect1_dropShadow_950_533"/>
<feBlend mode="normal" in="SourceGraphic" in2="effect1_dropShadow_950_533" result="shape"/>
</filter>
</defs>
</svg>
