<svg width="66" height="74" viewBox="0 0 66 74" fill="none" xmlns="http://www.w3.org/2000/svg">
<path d="M62.732 16.7067L35.8912 1.12154C34.1985 0.157402 31.9945 0.157402 30.2883 1.12154L3.16086 16.7067C1.41396 17.7116 0.177734 19.6003 0.177734 21.6205V52.7495C0.177734 54.7697 1.44622 56.659 3.19312 57.6694L10.3603 61.7402C13.7859 63.4275 14.9966 63.4275 16.5554 63.4275C21.6275 63.4275 24.5248 60.3603 24.5248 55.0107V24.2786C24.5248 23.8446 24.299 23.1988 23.8729 23.1988H20.4503C20.0169 23.1988 19.0467 23.8446 19.0467 24.278V55.0101C19.0467 57.3815 16.9017 59.7413 12.893 57.7369L5.48722 53.4683C5.22914 53.3283 5.04714 53.0465 5.04714 52.7495V21.6205C5.04714 21.3272 5.38496 21.0326 5.64486 20.8822L32.6847 5.32384C32.9373 5.18081 33.3086 5.18081 33.5606 5.32384L60.2705 20.8786C60.5261 21.0326 60.4361 21.318 60.4361 21.6205V52.7495C60.4361 53.0465 60.5475 53.3356 60.2948 53.4786L33.4608 69.0462C33.2307 69.1843 32.9452 69.1843 32.6932 69.0462L25.8109 64.9382C25.6034 64.8177 25.3568 64.7745 25.1578 64.8858C23.2429 65.9711 22.8899 66.1154 21.0937 66.738C20.6518 66.892 19.9999 67.1593 21.3432 67.9122L30.3504 73.2405C31.2103 73.7372 32.1859 73.9988 33.1789 73.9989C34.1784 73.9989 35.1571 73.7396 36.0196 73.2405L62.7314 57.6694C64.4783 56.6517 65.3061 54.7697 65.3061 52.7495V21.6205C65.3061 19.6003 64.4783 17.7165 62.732 16.7067ZM41.5129 47.8167C34.3756 47.8167 32.8034 45.8477 32.2793 42.2985C32.2184 41.9162 31.894 41.4591 31.5051 41.4591H28.0168C27.5852 41.4591 27.2383 41.9826 27.2383 42.4123C27.2383 46.9567 29.7089 52.4628 41.5135 52.4628C50.0587 52.4628 54.958 49.1424 54.958 43.2663C54.958 37.44 51.0217 35.911 42.7345 34.8142C34.3579 33.707 33.507 33.1476 33.507 31.1853C33.507 29.5674 34.2277 27.4097 40.4301 27.4097C45.9721 27.4097 48.0148 28.599 48.8554 32.3345C48.9272 32.6857 49.248 32.9377 49.6101 32.9377H53.1125C53.3279 32.9377 53.5337 32.8506 53.6846 32.6966C53.8307 32.5311 53.908 32.3235 53.8885 32.1007C53.3462 25.6682 49.0727 22.6705 40.4295 22.6705C32.7413 22.6705 28.1549 25.9172 28.1549 31.3594C28.1549 37.2623 32.7182 38.8936 40.0984 39.6234C48.9272 40.4889 49.6138 41.7793 49.6138 43.5158C49.6138 46.5318 47.1925 47.8167 41.5129 47.8167Z" fill="#83CD29"/>
</svg>
