<svg width="79" height="79" viewBox="0 0 79 79" fill="none" xmlns="http://www.w3.org/2000/svg">
<g clip-path="url(#clip0_462_1542)">
<path d="M0.777344 39.1984C0.777344 50.5155 18.2183 59.6907 39.7326 59.6907C61.2469 59.6907 78.6879 50.5155 78.6879 39.1984C78.6879 27.8812 61.2463 18.7061 39.7326 18.7061C18.2183 18.7061 0.777344 27.8812 0.777344 39.1984Z" fill="url(#paint0_radial_462_1542)"/>
<path d="M39.7324 58.1688C60.4061 58.1688 77.166 49.6747 77.166 39.1981C77.166 28.7204 60.4061 20.2275 39.7324 20.2275C19.0587 20.2275 2.29883 28.7204 2.29883 39.1981C2.29883 49.6747 19.0587 58.1688 39.7324 58.1688Z" fill="#777BB3"/>
<path d="M21.9427 41.5499C23.6427 41.5499 24.9112 41.2365 25.714 40.6187C26.509 40.0063 27.0574 38.9466 27.3453 37.4688C27.6131 36.0871 27.5108 35.1229 27.0409 34.6019C26.5613 34.0699 25.5235 33.8003 23.9568 33.8003H21.2397L19.7344 41.5499H21.9427ZM13.0566 51.0958C12.9943 51.0957 12.9327 51.0818 12.8764 51.0552C12.82 51.0285 12.7703 50.9897 12.7307 50.9415C12.6912 50.8933 12.6628 50.837 12.6475 50.7765C12.6323 50.7161 12.6307 50.653 12.6427 50.5918L16.6338 30.0563C16.6527 29.9603 16.7042 29.8738 16.7797 29.8116C16.8552 29.7493 16.9499 29.7151 17.0477 29.7148H25.6507C28.3545 29.7148 30.3668 30.4489 31.6322 31.8969C32.9031 33.3517 33.2963 35.3871 32.799 37.9441C32.5963 38.9856 32.2482 39.9528 31.7643 40.8195C31.2605 41.7111 30.6178 42.5165 29.8603 43.2055C28.9285 44.0772 27.8736 44.7102 26.7275 45.0821C25.6002 45.4497 24.1516 45.636 22.4241 45.636H18.9401L17.9455 50.7537C17.9267 50.8501 17.875 50.9368 17.7993 50.9993C17.7236 51.0617 17.6285 51.0958 17.5304 51.0958H13.0566Z" fill="black"/>
<path d="M21.5877 34.2229H23.956C25.8472 34.2229 26.5039 34.638 26.7273 34.8857C27.0968 35.296 27.1674 36.1621 26.9288 37.3886C26.6616 38.7624 26.1661 39.7369 25.4558 40.2835C24.729 40.8434 23.5458 41.1271 21.9419 41.1271H20.2461L21.5883 34.2235L21.5877 34.2229ZM25.65 29.2926H17.0475C16.8514 29.2926 16.6613 29.3608 16.5099 29.4855C16.3584 29.6102 16.255 29.7836 16.2173 29.9761L12.2262 50.5123C12.2026 50.6346 12.2064 50.7606 12.2372 50.8813C12.2679 51.0021 12.325 51.1145 12.4042 51.2106C12.4835 51.3067 12.583 51.3841 12.6956 51.4374C12.8083 51.4906 12.9313 51.5182 13.0558 51.5184H17.5296C17.7258 51.5182 17.9158 51.4499 18.0671 51.3251C18.2184 51.2003 18.3217 51.0268 18.3592 50.8343L19.2875 46.0586H22.4228C24.1952 46.0586 25.6877 45.865 26.8582 45.484C28.0615 45.0932 29.1687 44.4304 30.1487 43.5137C30.9377 42.795 31.6073 41.9553 32.1324 41.0261C32.6382 40.1209 33.0022 39.1105 33.2128 38.0247C33.7362 35.3325 33.3108 33.1772 31.9492 31.619C30.6003 30.0748 28.4809 29.292 25.65 29.292V29.2926ZM19.2205 41.9719H21.9419C23.7454 41.9719 25.0888 41.6329 25.9713 40.9524C26.8545 40.2731 27.4492 39.1385 27.7596 37.5493C28.0548 36.0227 27.9203 34.946 27.3549 34.3184C26.7882 33.6915 25.6561 33.3774 23.956 33.3774H20.8907L19.2205 41.9719ZM25.6506 30.1362C28.2387 30.1362 30.1262 30.8161 31.3131 32.1741C32.5 33.5326 32.8567 35.4287 32.3844 37.8628C32.1884 38.8659 31.8591 39.7825 31.3953 40.6128C30.9302 41.4442 30.324 42.2038 29.5747 42.8935C28.6812 43.7292 27.6896 44.3251 26.5971 44.6799C25.5051 45.0354 24.1137 45.2125 22.4234 45.2125H18.5911L17.5302 50.6723H13.0565L17.0482 30.1362H25.6506Z" fill="white"/>
<path d="M43.0554 45.6368C42.993 45.6369 42.9314 45.6232 42.8749 45.5966C42.8185 45.57 42.7687 45.5313 42.729 45.4832C42.6893 45.435 42.6607 45.3787 42.6454 45.3183C42.6301 45.2578 42.6283 45.1947 42.6403 45.1334L44.4054 36.0471C44.574 35.1828 44.5326 34.5632 44.2898 34.3002C44.1407 34.1402 43.6939 33.8717 42.3725 33.8717H39.1733L36.954 45.2954C36.935 45.3916 36.8831 45.4781 36.8073 45.5403C36.7314 45.6025 36.6364 45.6364 36.5383 45.6362H32.101C32.0387 45.6363 31.9771 45.6225 31.9207 45.596C31.8643 45.5695 31.8145 45.5308 31.7748 45.4828C31.735 45.4347 31.7064 45.3785 31.691 45.3181C31.6755 45.2577 31.6736 45.1947 31.6853 45.1334L35.677 24.5973C35.6959 24.5011 35.7477 24.4145 35.8234 24.3522C35.8991 24.2899 35.9941 24.2559 36.0921 24.2559H40.5294C40.5917 24.2558 40.6533 24.2696 40.7097 24.2961C40.7661 24.3226 40.816 24.3613 40.8557 24.4093C40.8954 24.4574 40.924 24.5136 40.9395 24.574C40.9549 24.6344 40.9569 24.6974 40.9451 24.7586L39.9822 29.7157H43.423C46.0446 29.7157 47.8219 30.1771 48.8573 31.1284C49.9121 32.098 50.242 33.6483 49.836 35.7379L47.979 45.2954C47.9599 45.3914 47.9082 45.478 47.8325 45.5401C47.7567 45.6023 47.6618 45.6362 47.5639 45.6362H43.0554V45.6368Z" fill="black"/>
<path d="M40.5304 23.832H36.0926C35.8963 23.8321 35.7062 23.9003 35.5547 24.0252C35.4033 24.15 35.2999 24.3236 35.2623 24.5162L31.2713 45.0517C31.2476 45.1741 31.2512 45.3002 31.282 45.4209C31.3127 45.5417 31.3697 45.6543 31.449 45.7504C31.5283 45.8466 31.6278 45.9241 31.7405 45.9774C31.8532 46.0306 31.9762 46.0583 32.1009 46.0585H36.5387C36.735 46.0584 36.9251 45.9901 37.0766 45.8653C37.2281 45.7405 37.3314 45.5669 37.369 45.3743L39.5219 34.2933H42.3717C43.6913 34.2933 43.9689 34.5752 43.9792 34.5879C44.0595 34.6732 44.1648 35.0718 43.9908 35.966L42.2256 45.0517C42.2019 45.1741 42.2056 45.3003 42.2364 45.4211C42.2671 45.5419 42.3242 45.6545 42.4035 45.7507C42.4829 45.8469 42.5825 45.9243 42.6952 45.9776C42.808 46.0308 42.9311 46.0584 43.0558 46.0585H47.5649C47.7611 46.0583 47.9511 45.9899 48.1024 45.8651C48.2537 45.7403 48.357 45.5668 48.3945 45.3743L50.2516 35.8181C50.6868 33.5745 50.3143 31.8921 49.1438 30.8166C48.0263 29.7904 46.1552 29.2919 43.4235 29.2919H40.4957L41.3607 24.8394C41.3845 24.7169 41.3809 24.5907 41.3502 24.4698C41.3194 24.3489 41.2624 24.2363 41.183 24.14C41.1037 24.0437 41.004 23.9662 40.8912 23.9129C40.7784 23.8597 40.6552 23.8321 40.5304 23.832ZM40.5304 24.6781L39.4695 30.1367H43.4235C45.9111 30.1367 47.6276 30.5713 48.5711 31.4393C49.5163 32.3072 49.7988 33.7127 49.422 35.6574L47.5643 45.213H43.0558L44.8216 36.1267C45.0225 35.0931 44.9482 34.3883 44.5994 34.0121C44.2507 33.6366 43.5081 33.4485 42.3729 33.4485H38.8249L36.5387 45.2124H32.1003L36.092 24.6763H40.5304V24.6781Z" fill="white"/>
<path d="M56.8581 41.5499C58.5581 41.5499 59.8272 41.2365 60.6307 40.6187C61.4244 40.0063 61.9734 38.9466 62.2613 37.4688C62.5291 36.0871 62.4275 35.1229 61.957 34.6019C61.4773 34.0699 60.4395 33.8003 58.8728 33.8003H56.1563L54.6498 41.5499H56.8581ZM47.9738 51.0958C47.9114 51.0959 47.8497 51.0822 47.7932 51.0556C47.7367 51.0289 47.6868 50.9902 47.6471 50.942C47.6074 50.8938 47.5789 50.8374 47.5636 50.7768C47.5484 50.7163 47.5467 50.6531 47.5587 50.5918L51.5498 30.0563C51.5687 29.9601 51.6205 29.8735 51.6962 29.8112C51.7719 29.7489 51.8669 29.7148 51.9649 29.7148H60.5674C63.2711 29.7148 65.2834 30.4489 66.5482 31.8969C67.8197 33.3517 68.2123 35.3871 67.715 37.9441C67.525 38.9514 67.1759 39.922 66.6809 40.8195C66.177 41.7109 65.5343 42.5164 64.777 43.2055C63.8457 44.0772 62.7896 44.7102 61.6441 45.0821C60.5168 45.4497 59.0682 45.636 57.3402 45.636H53.8567L52.8627 50.7537C52.8439 50.8502 52.7922 50.937 52.7163 50.9994C52.6405 51.0619 52.5452 51.0959 52.447 51.0958H47.9738Z" fill="black"/>
<path d="M56.5047 34.2229H58.873C60.7642 34.2229 61.4209 34.638 61.6437 34.8857C62.015 35.296 62.0844 36.1621 61.8464 37.3886C61.5786 38.7624 61.0831 39.7369 60.3728 40.2835C59.6454 40.8434 58.4622 41.1271 56.8589 41.1271H55.1631L56.5047 34.2229ZM60.567 29.2926H51.9645C51.7685 29.2928 51.5785 29.361 51.4272 29.4857C51.2759 29.6104 51.1726 29.7837 51.1349 29.9761L47.1432 50.5123C47.1196 50.6346 47.1234 50.7607 47.1542 50.8815C47.185 51.0022 47.2421 51.1147 47.3214 51.2108C47.4007 51.307 47.5003 51.3844 47.613 51.4375C47.7257 51.4907 47.8488 51.5183 47.9734 51.5184H52.4472C52.6434 51.5182 52.8334 51.4499 52.9847 51.3251C53.136 51.2003 53.2393 51.0268 53.2768 50.8343L54.2051 46.0586H57.3398C59.1116 46.0586 60.6047 45.865 61.7746 45.484C62.9785 45.0932 64.0857 44.4304 65.0663 43.5131C65.8551 42.7945 66.5245 41.955 67.0494 41.0261C67.5558 40.1209 67.9185 39.1105 68.1298 38.0247C68.6532 35.3325 68.2284 33.1772 66.8661 31.619C65.5173 30.0748 63.3985 29.292 60.5663 29.292L60.567 29.2926ZM54.1375 41.9719H56.8583C58.6624 41.9719 60.0051 41.6329 60.8889 40.9524C61.7715 40.2731 62.3668 39.1385 62.676 37.5493C62.9724 36.0227 62.8379 34.946 62.2712 34.3184C61.7052 33.6915 60.5724 33.3774 58.873 33.3774H55.8083L54.1375 41.9719ZM60.567 30.1362C63.1544 30.1362 65.0432 30.8161 66.2295 32.1741C67.4164 33.5326 67.7737 35.4287 67.3001 37.8628C67.1054 38.8659 66.7755 39.7825 66.3116 40.6128C65.8472 41.4442 65.2404 42.2038 64.4905 42.8935C63.5976 43.7292 62.6054 44.3251 61.5128 44.6799C60.4215 45.0354 59.0307 45.2125 57.3398 45.2125H53.5081L52.446 50.6723H47.9722L51.9639 30.1362H60.567Z" fill="white"/>
</g>
<defs>
<radialGradient id="paint0_radial_462_1542" cx="0" cy="0" r="1" gradientUnits="userSpaceOnUse" gradientTransform="translate(24.1663 25.9103) scale(51.154 51.154)">
<stop stop-color="#AEB2D5"/>
<stop offset="0.3" stop-color="#AEB2D5"/>
<stop offset="0.75" stop-color="#484C89"/>
<stop offset="1" stop-color="#484C89"/>
</radialGradient>
<clipPath id="clip0_462_1542">
<rect width="77.9105" height="77.9105" fill="white" transform="translate(0.777344 0.243164)"/>
</clipPath>
</defs>
</svg>
