<svg width="78" height="79" viewBox="0 0 78 79" fill="none" xmlns="http://www.w3.org/2000/svg">
<path d="M38.5956 7.69775C36.0258 7.70992 33.5728 7.92844 31.4132 8.31069C25.0526 9.4343 23.8985 11.7862 23.8985 16.1243V21.8525H38.9286V23.7619H18.2573C13.8895 23.7619 10.0645 26.3871 8.86788 31.3832C7.4874 37.1078 7.42653 40.6807 8.86788 46.6585C9.9361 51.1085 12.4877 54.2785 16.8561 54.2785H22.0244V47.4114C22.0244 42.4501 26.3162 38.0743 31.4138 38.0743H46.4268C50.606 38.0743 53.9416 34.6329 53.9416 30.4367V16.1249C53.9416 12.051 50.505 8.99119 46.4268 8.3113C43.8436 7.88157 41.1648 7.68618 38.5956 7.69775ZM30.4674 12.3048C32.0195 12.3048 33.288 13.5934 33.288 15.1784C33.288 16.7567 32.0201 18.0331 30.4674 18.0331C28.9091 18.0331 27.6474 16.7567 27.6474 15.1784C27.6468 13.5934 28.9091 12.3048 30.4674 12.3048Z" fill="url(#paint0_linear_462_1534)"/>
<path d="M55.8156 23.7623V30.4371C55.8156 35.6108 51.4282 39.9659 46.4261 39.9659H31.4132C27.3009 39.9659 23.8984 43.4859 23.8984 47.6042V61.9172C23.8984 65.9898 27.4397 68.3862 31.4132 69.5543C36.1706 70.9524 40.7332 71.2056 46.4261 69.5543C50.2097 68.458 53.9409 66.2534 53.9409 61.9172V56.1883H38.9285V54.2783H61.4568C65.8247 54.2783 67.4535 51.2319 68.9727 46.6583C70.5419 41.9502 70.4743 37.4222 68.9727 31.383C67.8929 27.034 65.8314 23.7617 61.4568 23.7617L55.8156 23.7623ZM47.3714 60.0072C48.9302 60.0072 50.192 61.2836 50.192 62.8631C50.192 64.4469 48.9296 65.7354 47.3714 65.7354C45.8193 65.7354 44.5514 64.4469 44.5514 62.8631C44.5514 61.2836 45.8193 60.0072 47.3714 60.0072Z" fill="url(#paint1_linear_462_1534)"/>
<path opacity="0.444" d="M59.2401 73.0387C59.2401 75.1952 50.2219 76.944 39.0984 76.944C27.9742 76.944 18.9561 75.1952 18.9561 73.0387C18.9561 70.8815 27.9736 69.1328 39.0984 69.1328C50.2219 69.1328 59.2401 70.8809 59.2401 73.0387Z" fill="url(#paint2_radial_462_1534)"/>
<defs>
<linearGradient id="paint0_linear_462_1534" x1="6.30284" y1="9.48886" x2="40.9692" y2="39.0522" gradientUnits="userSpaceOnUse">
<stop stop-color="#5A9FD4"/>
<stop offset="1" stop-color="#306998"/>
</linearGradient>
<linearGradient id="paint1_linear_462_1534" x1="54.012" y1="57.4296" x2="41.5801" y2="39.9959" gradientUnits="userSpaceOnUse">
<stop stop-color="#FFD43B"/>
<stop offset="1" stop-color="#FFE873"/>
</linearGradient>
<radialGradient id="paint2_radial_462_1534" cx="0" cy="0" r="1" gradientUnits="userSpaceOnUse" gradientTransform="translate(39.017 72.9269) rotate(-90) scale(3.90668 17.1731)">
<stop stop-color="#B8B8B8" stop-opacity="0.498"/>
<stop offset="1" stop-color="#7F7F7F" stop-opacity="0"/>
</radialGradient>
</defs>
</svg>
