<svg width="77" height="77" viewBox="0 0 77 77" fill="none" xmlns="http://www.w3.org/2000/svg">
<path d="M60.2168 23.0398L54.6824 28.5742C63.766 37.6578 63.766 52.2758 54.6824 61.2391C45.5988 70.3227 30.9809 70.3227 22.0176 61.2391C12.934 52.1555 12.934 37.5375 22.0176 28.5742L36.4551 14.1367L38.5004 12.0914V1.20312L16.7238 22.9797C4.63242 35.0711 4.63242 54.6219 16.7238 66.7734C28.8152 78.925 48.366 78.8648 60.277 66.7734C72.3684 54.6219 72.3684 35.1914 60.2168 23.0398Z" fill="#EE4C2C"/>
<path d="M53.4005 17.7427C53.4418 15.5171 51.671 13.6796 49.4455 13.6384C47.22 13.5971 45.3824 15.3679 45.3412 17.5934C45.3 19.8189 47.0707 21.6565 49.2963 21.6977C51.5218 21.7389 53.3593 19.9682 53.4005 17.7427Z" fill="#EE4C2C"/>
</svg>
