<svg width="78" height="79" viewBox="0 0 78 79" fill="none" xmlns="http://www.w3.org/2000/svg">
<g clip-path="url(#clip0_950_57)">
<path d="M38.9664 46.1399C42.7988 46.1399 45.9055 43.0332 45.9055 39.2008C45.9055 35.3685 42.7988 32.2617 38.9664 32.2617C35.1341 32.2617 32.0273 35.3685 32.0273 39.2008C32.0273 43.0332 35.1341 46.1399 38.9664 46.1399Z" fill="#61DAFB"/>
<path d="M65.3228 27.7573C63.9837 27.2703 62.5837 26.7834 61.1228 26.3573C61.488 24.8964 61.7924 23.4356 62.0358 22.0356C63.3141 14.0008 61.9141 8.34 58.0185 6.14871C56.862 5.47915 55.5837 5.1748 54.1228 5.1748C49.862 5.1748 44.4446 8.34 38.9664 13.6356C33.4882 8.34 28.0708 5.1748 23.81 5.1748C22.3491 5.1748 21.0709 5.47915 19.9144 6.14871C16.0187 8.40087 14.6187 14.0617 15.897 22.0356C16.1405 23.4356 16.4448 24.8964 16.81 26.3573C15.3492 26.7834 13.9492 27.2095 12.6101 27.7573C5.00141 30.679 0.862305 34.6964 0.862305 39.2007C0.862305 43.705 5.06228 47.7224 12.6101 50.6441C13.9492 51.1311 15.3492 51.618 16.81 52.0441C16.4448 53.505 16.1405 54.9658 15.897 56.3658C14.6187 64.4005 16.0187 70.0614 19.9144 72.2527C21.0709 72.9222 22.3491 73.2266 23.81 73.2266C28.1317 73.2266 33.5491 70.0614 38.9664 64.7658C44.4446 70.0614 49.862 73.2266 54.1228 73.2266C55.5837 73.2266 56.862 72.9222 58.0185 72.2527C61.9141 70.0005 63.3141 64.3397 62.0358 56.3658C61.7924 54.9658 61.488 53.505 61.1228 52.0441C62.5837 51.618 63.9837 51.1919 65.3228 50.6441C72.9314 47.7224 77.0705 43.705 77.0705 39.2007C77.0705 34.6964 72.9314 30.679 65.3228 27.7573ZM56.3141 9.19217C58.8098 10.653 59.6619 15.1574 58.6272 21.5486C58.4446 22.8269 58.1402 24.166 57.775 25.566C54.6098 24.8356 51.262 24.3486 47.7316 24.0443C45.662 21.1225 43.5316 18.5052 41.4012 16.1313C45.9055 11.6878 50.4707 8.64435 54.1837 8.64435C54.975 8.64435 55.7054 8.82696 56.3141 9.19217ZM49.4968 45.2876C48.4011 47.2354 47.1229 49.1832 45.7838 51.1311C43.5316 51.3137 41.2794 51.3745 38.9664 51.3745C36.5925 51.3745 34.3404 51.3137 32.1491 51.1311C30.8099 49.1832 29.5926 47.2354 28.4969 45.2876C27.3404 43.2789 26.2448 41.2094 25.2709 39.2007C26.2448 37.192 27.3404 35.1225 28.4969 33.1138C29.5926 31.166 30.8708 29.2181 32.2099 27.2703C34.4621 27.0877 36.7143 27.0268 39.0273 27.0268C41.4012 27.0268 43.6533 27.0877 45.8446 27.2703C47.1838 29.2181 48.4011 31.166 49.4968 33.1138C50.6533 35.1225 51.7489 37.192 52.7229 39.2007C51.6881 41.2094 50.6533 43.2181 49.4968 45.2876ZM54.5489 43.2789C55.462 45.4093 56.1924 47.4789 56.862 49.5485C54.7924 50.0354 52.6011 50.4006 50.2881 50.705C51.0185 49.5485 51.8098 48.3311 52.4794 47.0528C53.2098 45.7746 53.8794 44.4963 54.5489 43.2789ZM38.9664 59.7745C37.5056 58.1919 36.1056 56.4875 34.7664 54.7223C36.1664 54.7832 37.5664 54.8441 38.9664 54.8441C40.3664 54.8441 41.7664 54.7832 43.1664 54.7223C41.8273 56.4875 40.4273 58.1919 38.9664 59.7745ZM27.6447 50.6441C25.3317 50.3398 23.1404 49.9745 21.0709 49.4876C21.7404 47.4789 22.4709 45.3485 23.3839 43.2181C24.0535 44.4354 24.723 45.7137 25.4535 46.9311C26.1839 48.2702 26.9143 49.4267 27.6447 50.6441ZM23.3839 35.1225C22.4709 32.992 21.7404 30.9225 21.0709 28.8529C23.1404 28.366 25.3317 28.0008 27.6447 27.6964C26.9143 28.8529 26.123 30.0703 25.4535 31.3486C24.723 32.6268 24.0535 33.9051 23.3839 35.1225ZM38.9664 18.6269C40.4273 20.2095 41.8273 21.9138 43.1664 23.679C41.7664 23.6182 40.3664 23.5573 38.9664 23.5573C37.5664 23.5573 36.1664 23.6182 34.7664 23.679C36.1056 21.9138 37.5056 20.2095 38.9664 18.6269ZM52.4794 31.4094L50.2881 27.7573C52.6011 28.0616 54.7924 28.4268 56.862 28.9138C56.1924 30.9225 55.462 33.0529 54.5489 35.1833C53.8794 33.9051 53.2098 32.6268 52.4794 31.4094ZM19.3057 21.5486C18.2709 15.1574 19.1231 10.653 21.6187 9.19217C22.2274 8.82696 22.9578 8.64435 23.7491 8.64435C27.4013 8.64435 31.9665 11.6269 36.5317 16.1313C34.4012 18.4443 32.2708 21.1225 30.2013 24.0443C26.6708 24.3486 23.323 24.8964 20.1578 25.566C19.7926 24.166 19.5491 22.8269 19.3057 21.5486ZM4.27098 39.2007C4.27098 36.3398 7.74052 33.2964 13.8274 31.0442C15.0448 30.5573 16.3839 30.1312 17.7231 29.766C18.697 32.8094 19.9144 36.0355 21.3752 39.2616C19.9144 42.4876 18.6361 45.6528 17.7231 48.6963C9.32312 46.2615 4.27098 42.6094 4.27098 39.2007ZM21.6187 69.2092C19.1231 67.7484 18.2709 63.244 19.3057 56.8528C19.4883 55.5745 19.7926 54.2354 20.1578 52.8354C23.323 53.5658 26.6708 54.0528 30.2013 54.3571C32.2708 57.2788 34.4012 59.8962 36.5317 62.2701C32.0273 66.7136 27.4621 69.757 23.7491 69.757C22.9578 69.757 22.2274 69.5744 21.6187 69.2092ZM58.6272 56.8528C59.6619 63.244 58.8098 67.7484 56.3141 69.2092C55.7054 69.5744 54.975 69.757 54.1837 69.757C50.5316 69.757 45.9664 66.7744 41.4012 62.2701C43.5316 59.9571 45.662 57.2788 47.7316 54.3571C51.262 54.0528 54.6098 53.505 57.775 52.8354C58.1402 54.2354 58.3837 55.5745 58.6272 56.8528ZM64.1054 47.3572C62.888 47.8441 61.5489 48.2702 60.2098 48.6354C59.2359 45.592 58.0185 42.3659 56.5576 39.1398C58.0185 35.9138 59.2967 32.7486 60.2098 29.7051C68.6097 32.1399 73.6619 35.792 73.6619 39.2007C73.6619 42.0615 70.1314 45.105 64.1054 47.3572Z" fill="#61DAFB"/>
</g>
<defs>
<clipPath id="clip0_950_57">
<rect width="77.9126" height="77.9126" fill="white" transform="translate(0.00976562 0.244141)"/>
</clipPath>
</defs>
</svg>
