<svg width="77" height="77" viewBox="0 0 77 77" fill="none" xmlns="http://www.w3.org/2000/svg">
<g clip-path="url(#clip0_544_1436)">
<path d="M77 0H0V77H77V0Z" fill="#A166FF"/>
<path fill-rule="evenodd" clip-rule="evenodd" d="M52.0079 25.0575C52.0079 25.5965 51.569 26.0354 51.0291 26.0354C50.491 26.0354 50.0521 25.5965 50.0521 25.0575C50.0521 24.5185 50.491 24.0796 51.0291 24.0796C51.569 24.0796 52.0079 24.5185 52.0079 25.0575ZM46.2021 34.6506C46.2021 34.1203 46.6333 33.6881 47.1646 33.6881C47.6959 33.6881 48.1271 34.1203 48.1271 34.6506C48.1271 35.1809 47.6959 35.6131 47.1646 35.6131C46.6333 35.6131 46.2021 35.1809 46.2021 34.6506ZM46.2021 52.9379C46.2021 52.4075 46.6333 51.9754 47.1646 51.9754C47.6959 51.9754 48.1271 52.4075 48.1271 52.9379C48.1271 53.4682 47.6959 53.9004 47.1646 53.9004C46.6333 53.9004 46.2021 53.4682 46.2021 52.9379ZM55.8271 40.4255C55.8271 40.9559 55.3959 41.388 54.8646 41.388C54.3333 41.388 53.9021 40.9559 53.9021 40.4255C53.9021 39.8952 54.3333 39.4631 54.8646 39.4631C55.3959 39.4631 55.8271 39.8952 55.8271 40.4255ZM62.5627 43.5748L57.7146 40.7932C57.73 40.6719 57.7521 40.5516 57.7521 40.4255C57.7521 38.8336 56.4566 37.5381 54.8646 37.5381C53.2717 37.5381 51.9771 38.8336 51.9771 40.4255C51.9771 42.0175 53.2717 43.313 54.8646 43.313C55.6337 43.313 56.3286 43.006 56.8464 42.5151L61.4905 45.1793L57.3219 47.264C56.9956 47.4276 56.7896 47.7606 56.7896 48.1254V56.2498L45.2213 63.3683L39.4656 60.0795V53.9004H44.4542C44.8527 55.0178 45.9114 55.8253 47.1646 55.8253C48.7566 55.8253 50.0521 54.5298 50.0521 52.9379C50.0521 51.345 48.7566 50.0504 47.1646 50.0504C45.9114 50.0504 44.8527 50.857 44.4542 51.9754H39.4656V38.5006C39.4656 38.1627 39.2875 37.849 38.9978 37.6747L34.1843 34.7873L33.1939 36.438L37.5406 39.0453V41.876L31.7646 46.3188V42.3505C31.7646 42.0579 31.6318 41.7807 31.4037 41.5988L26.9521 38.0376V33.2406L32.2978 29.6765C32.5664 29.4975 32.7271 29.1972 32.7271 28.8757V23.1008H30.8021V28.3608L26.0002 31.561L21.1771 28.3588V20.7658L25.9896 17.9592V25.9882H27.9146V16.8359L31.7675 14.5885L37.5387 17.9178L37.5396 29.8382C37.5396 30.1837 37.7244 30.5023 38.0247 30.6736L44.3156 34.2685C44.2983 34.3946 44.2771 34.5197 44.2771 34.6506C44.2771 36.2426 45.5717 37.5381 47.1646 37.5381C48.7566 37.5381 50.0521 36.2426 50.0521 34.6506C50.0521 33.0587 48.7566 31.7632 47.1646 31.7632C46.4004 31.7632 45.7093 32.0663 45.1925 32.5524L39.4646 29.279L39.4637 17.9197L45.203 14.6078L55.8271 21.6907V24.0633H53.7568C53.3506 22.9506 52.2813 22.1546 51.0291 22.1546C49.4284 22.1546 48.1271 23.4569 48.1271 25.0575C48.1271 26.6581 49.4284 27.9604 51.0291 27.9604C52.3053 27.9604 53.391 27.1336 53.7799 25.9882H55.8271V28.8757C55.8271 29.2212 56.0119 29.5398 56.3122 29.7111L62.5627 33.2839V43.5748ZM31.7819 63.3683L28.7472 61.5011L34.2488 57.5713L33.1304 56.0043L26.9675 60.4058L20.2146 56.2498V48.6702L24.5593 46.0628L23.5689 44.4122L19.2098 47.0282L14.4396 44.6432L14.4387 39.0944L19.6824 36.4736L18.8219 34.7517L14.4387 36.9423L14.4396 33.2839L20.1771 30.0057L25.0271 33.2252V38.0001L19.6824 41.5488L20.7469 43.1523L25.9473 39.6989L29.8396 42.8125V47.8001L25.4025 51.2121L26.5758 52.7377L37.5406 44.3044V60.0786L31.7819 63.3683ZM64.0026 31.8902L57.7521 28.3175V21.1758C57.7521 20.8534 57.5914 20.5531 57.3228 20.375L45.7728 12.6751C45.4687 12.473 45.076 12.4595 44.7584 12.6424L38.504 16.2517L32.2459 12.6424C31.9456 12.4691 31.5769 12.4691 31.2795 12.6443L19.7295 19.3817C19.4331 19.554 19.2521 19.8707 19.2521 20.2133V28.3175L12.9997 31.8902C12.6994 32.0606 12.5146 32.3801 12.5146 32.7256V33.127C12.5137 33.1472 12.5127 33.1665 12.5127 33.1867V43.6624C12.5127 43.6816 12.5137 43.7009 12.5146 43.7192V45.238C12.5146 45.6028 12.7206 45.9358 13.0469 46.0984L18.2896 48.7202V56.7878C18.2896 57.1218 18.4619 57.4317 18.7468 57.6069L31.2593 65.3068C31.4143 65.4021 31.5894 65.4502 31.7646 65.4502C31.9292 65.4502 32.0938 65.4078 32.242 65.3231L38.5031 61.7465L44.7622 65.3231C45.0654 65.4974 45.4427 65.4906 45.744 65.3068L58.2565 57.6069C58.5414 57.4317 58.7146 57.1218 58.7146 56.7878V48.7202L63.9554 46.0984C64.2817 45.9358 64.4877 45.6028 64.4877 45.238V32.7256C64.4877 32.3801 64.3019 32.0615 64.0026 31.8902Z" fill="white"/>
</g>
<defs>
<clipPath id="clip0_544_1436">
<rect width="77" height="77" fill="white"/>
</clipPath>
</defs>
</svg>
