<svg width="78" height="79" viewBox="0 0 78 79" fill="none" xmlns="http://www.w3.org/2000/svg">
<path d="M76.9853 20.9751C76.9848 19.3744 76.8237 17.7778 76.5044 16.2092C76.185 14.6034 75.6421 13.0504 74.8914 11.5954C74.107 10.1861 73.132 8.89167 71.9941 7.74858C70.8205 6.60025 69.4573 5.66331 67.9647 4.97911C66.4917 4.23634 64.9162 3.71732 63.2901 3.43916C61.6771 3.12873 59.9058 3.12873 58.2928 2.97656H18.5037C17.2625 2.99677 16.0241 3.10048 14.7968 3.28699C13.579 3.43036 12.3868 3.74172 11.2543 4.21218C10.9317 4.36434 10.4509 4.5226 10.1283 4.67477C9.05688 5.24909 8.03844 5.91719 7.08492 6.67123C6.76232 6.98165 6.43972 7.13382 6.11712 7.43816C4.93085 8.53845 3.94979 9.84103 3.21982 11.285C2.42266 12.7195 1.8771 14.28 1.60683 15.8988C1.36696 17.4784 1.20648 19.069 1.12598 20.6647V57.4226C1.12648 59.0234 1.28757 60.62 1.60683 62.1886C1.92625 63.7943 2.4692 65.3474 3.21982 66.8023C4.00428 68.2116 4.97921 69.5061 6.11712 70.6492C7.29074 71.7975 8.65394 72.7345 10.1466 73.4187C11.6196 74.1614 13.1951 74.6805 14.8212 74.9586C16.4342 75.269 18.2054 75.269 19.8184 75.4212H58.2989C59.9753 75.42 61.648 75.2651 63.2962 74.9586C64.9222 74.6805 66.4978 74.1614 67.9708 73.4187C69.4315 72.6795 70.7867 71.7481 72.0002 70.6492C73.1865 69.5489 74.1676 68.2463 74.8975 66.8023C75.6947 65.3678 76.2402 63.8073 76.5105 62.1886C76.7504 60.609 76.9109 59.0183 76.9914 57.4226V20.9751H76.9853Z" fill="#F05138"/>
<path d="M51.828 58.9802C45.0657 62.7114 35.7712 63.0948 26.4158 59.2663C19.1216 56.3067 12.8849 51.2236 8.51465 44.6763C10.5456 46.231 12.7645 47.5235 15.1188 48.5231C24.7785 52.8447 34.4321 52.5465 41.231 48.5231C31.553 41.426 23.3359 32.1984 17.2126 24.663C16.0043 23.3896 14.9257 21.999 13.9927 20.5119C21.3942 26.9699 33.166 35.1201 37.3537 37.427C31.3745 31.3006 25.88 24.7193 20.9195 17.7424C29.1653 25.7555 38.2388 32.8703 47.9873 38.9669C48.4195 39.1982 48.7542 39.393 49.022 39.5756C49.3078 38.878 49.5537 38.1647 49.7585 37.4391C52.0167 29.5933 49.4359 20.6762 43.7996 13.293C56.8496 20.8223 64.6102 34.9679 61.3599 46.8128C61.2747 47.1354 61.1834 47.4214 61.086 47.7562L61.2017 47.8901C67.6475 55.5777 65.8763 63.7157 65.0667 62.194C61.5669 55.6325 55.0966 57.6594 51.828 58.9802Z" fill="#FEFEFE"/>
</svg>
