<svg width="145" height="68" viewBox="0 0 145 68" fill="none" xmlns="http://www.w3.org/2000/svg">
<path d="M144.205 29.5273L144.241 38.1427C144.271 45.7842 137.218 53.4383 123.098 59.2692C95.0246 70.8622 49.6827 70.8622 21.804 59.2737C7.95237 53.5161 1.01657 45.9812 0.986209 38.4337L0.950684 29.8184C0.980305 37.3651 7.91684 44.9007 21.7684 50.6583C49.6479 62.2469 94.989 62.2469 123.062 50.6539C137.184 44.823 144.236 37.1696 144.205 29.5273Z" fill="url(#paint0_linear_443_1838)"/>
<path d="M22.0987 8.68826C50.1603 -2.89954 95.5133 -2.89436 123.393 8.69345C151.272 20.282 151.124 39.0662 123.063 50.6548C94.9898 62.2478 49.6479 62.2478 21.7692 50.6592C-6.11101 39.0707 -5.97549 20.2812 22.0987 8.68826Z" fill="#FDF6F0"/>
<defs>
<linearGradient id="paint0_linear_443_1838" x1="0.950832" y1="48.7463" x2="144.241" y2="48.7463" gradientUnits="userSpaceOnUse">
<stop offset="0.0035" stop-color="#BBBCBE"/>
<stop offset="1" stop-color="#8A8080"/>
</linearGradient>
</defs>
</svg>
