<svg width="208" height="99" viewBox="0 0 208 99" fill="none" xmlns="http://www.w3.org/2000/svg">
<path d="M207.404 43.2373L207.455 55.7041C207.499 66.7618 197.294 77.8376 176.861 86.2753C136.237 103.051 70.625 103.051 30.2832 86.2817C10.2392 77.9502 0.202764 67.0468 0.15883 56.1252L0.107422 43.6584C0.150285 54.5789 10.1878 65.4834 30.2318 73.8149C70.5747 90.5841 136.186 90.5841 176.809 73.8085C197.243 65.3709 207.448 54.296 207.404 43.2373Z" fill="url(#paint0_linear_443_1749)"/>
<path d="M30.7097 13.0821C71.3162 -3.68602 136.944 -3.67851 177.287 13.0896C217.63 29.8588 217.416 57.0406 176.81 73.8098C136.187 90.5854 70.5747 90.5854 30.2328 73.8162C-10.1112 57.047 -9.9151 29.8577 30.7097 13.0821Z" fill="#FDF6F0"/>
<defs>
<linearGradient id="paint0_linear_443_1749" x1="0.107636" y1="71.0481" x2="207.456" y2="71.0481" gradientUnits="userSpaceOnUse">
<stop offset="0.0035" stop-color="#BBBCBE"/>
<stop offset="1" stop-color="#8A8080"/>
</linearGradient>
</defs>
</svg>
