<svg width="171" height="82" viewBox="0 0 171 82" fill="none" xmlns="http://www.w3.org/2000/svg">
<path d="M170.9 35.5625L170.943 45.8031C170.979 54.8862 162.595 63.9842 145.811 70.9151C112.442 84.6951 58.5463 84.6951 25.4083 70.9204C8.94363 64.0766 0.699411 55.1203 0.663322 46.149L0.621094 35.9084C0.656303 44.8788 8.9014 53.8361 25.3661 60.6798C58.5049 74.4545 112.4 74.4545 145.769 60.6746C162.554 53.7436 170.937 44.6465 170.9 35.5625Z" fill="url(#paint0_linear_443_1742)"/>
<path d="M25.7587 10.7921C59.114 -2.98169 113.023 -2.97553 146.162 10.7983C179.3 24.573 179.124 46.9009 145.77 60.6756C112.4 74.4555 58.5049 74.4555 25.367 60.6808C-7.77278 46.9061 -7.61169 24.5721 25.7587 10.7921Z" fill="#FDF6F0"/>
<defs>
<linearGradient id="paint0_linear_443_1742" x1="0.62127" y1="58.4071" x2="170.943" y2="58.4071" gradientUnits="userSpaceOnUse">
<stop offset="0.0035" stop-color="#BBBCBE"/>
<stop offset="1" stop-color="#8A8080"/>
</linearGradient>
</defs>
</svg>
