<svg width="186" height="89" viewBox="0 0 186 89" fill="none" xmlns="http://www.w3.org/2000/svg">
<path d="M185.302 38.457L185.348 49.5881C185.387 59.461 176.275 69.3502 158.031 76.8838C121.76 91.862 63.1782 91.862 27.1587 76.8895C9.2623 69.4507 0.301192 59.7155 0.261964 49.9641L0.216064 38.833C0.254335 48.5835 9.2164 58.3196 27.1128 65.7585C63.1333 80.731 121.714 80.731 157.986 65.7527C176.23 58.2191 185.342 48.3309 185.302 38.457Z" fill="url(#paint0_linear_443_1746)"/>
<path d="M27.5395 11.5329C63.7954 -3.43862 122.392 -3.43192 158.412 11.5396C194.433 26.5121 194.241 50.7815 157.987 65.754C121.715 80.7323 63.1333 80.7323 27.1137 65.7598C-8.90771 50.7873 -8.73261 26.5112 27.5395 11.5329Z" fill="#FDF6F0"/>
<defs>
<linearGradient id="paint0_linear_443_1746" x1="0.216256" y1="63.2881" x2="185.348" y2="63.2881" gradientUnits="userSpaceOnUse">
<stop offset="0.0035" stop-color="#BBBCBE"/>
<stop offset="1" stop-color="#8A8080"/>
</linearGradient>
</defs>
</svg>
