<svg width="230" height="109" viewBox="0 0 230 109" fill="none" xmlns="http://www.w3.org/2000/svg">
<path d="M229.507 47.4199L229.564 61.2224C229.613 73.4649 218.313 85.7274 195.691 95.0691C150.715 113.642 78.0731 113.642 33.4089 95.0762C11.2173 85.852 0.105558 73.7805 0.0569157 61.6887L0 47.8862C0.0474558 59.9767 11.1604 72.0495 33.3519 81.2737C78.0173 99.8396 150.658 99.8396 195.634 81.2666C218.258 71.9249 229.556 59.6635 229.507 47.4199Z" fill="url(#paint0_linear_443_1826)"/>
<path d="M33.8811 14.0346C78.8383 -4.5301 151.498 -4.52179 196.163 14.0429C240.829 32.6088 240.591 62.7029 195.635 81.2688C150.659 99.8418 78.0173 99.8418 33.3531 81.2759C-11.3135 62.71 -11.0964 32.6076 33.8811 14.0346Z" fill="#FDF6F0"/>
<defs>
<linearGradient id="paint0_linear_443_1826" x1="0.000237279" y1="78.2104" x2="229.564" y2="78.2104" gradientUnits="userSpaceOnUse">
<stop offset="0.0035" stop-color="#BBBCBE"/>
<stop offset="1" stop-color="#8A8080"/>
</linearGradient>
</defs>
</svg>
