<svg width="404" height="51" viewBox="0 0 404 51" fill="none" xmlns="http://www.w3.org/2000/svg">
<g clip-path="url(#clip0_606_1271)">
<path d="M27.6084 30.9278C29.307 31.7321 30.7166 32.9494 31.6748 34.439C32.6329 35.9287 33.1006 37.6301 33.0237 39.3471C33.0669 40.7922 32.7571 42.2284 32.1156 43.5555C31.4742 44.8825 30.5166 46.0686 29.3097 47.0308C26.8099 49.0323 23.5462 50.0997 20.1918 50.0129H2.72314V13.2343H18.9799C22.2514 13.1593 25.4321 14.2006 27.8755 16.1467C29.05 17.0762 29.9822 18.2245 30.6065 19.5108C31.2309 20.7972 31.5323 22.1902 31.4894 23.5919C31.5351 25.0016 31.2074 26.4009 30.533 27.6758C29.8585 28.9507 28.8563 30.065 27.6084 30.9278ZM18.9577 19.9936H10.8293V28.0948H18.9577C19.5438 28.1067 20.1262 28.0094 20.668 27.8092C21.2097 27.609 21.6987 27.3102 22.1043 26.9318C22.522 26.5504 22.8494 26.0977 23.0672 25.6008C23.285 25.1038 23.3888 24.5727 23.3721 24.0392C23.3917 23.5071 23.2915 22.9769 23.0775 22.48C22.8636 21.9831 22.5402 21.5297 22.1266 21.1466C21.7206 20.7632 21.2281 20.4613 20.6818 20.2608C20.1355 20.0603 19.5479 19.9658 18.9577 19.9836V19.9936ZM20.1918 43.2436C20.8252 43.2604 21.4557 43.1595 22.0432 42.9474C22.6308 42.7352 23.1629 42.4164 23.6056 42.0111C24.0548 41.597 24.4065 41.1065 24.6396 40.5686C24.8726 40.0307 24.9822 39.4564 24.9621 38.8799C24.9779 38.3113 24.8661 37.7456 24.6331 37.2163C24.4001 36.6871 24.0506 36.2049 23.6056 35.7984C23.1629 35.3931 22.6308 35.0743 22.0432 34.8621C21.4557 34.65 20.8252 34.5491 20.1918 34.5659H10.8293V43.2436H20.1918Z" fill="white"/>
<path d="M60.9228 50.0226L52.5943 37.2395H46.4452V50.0226H38.3057V13.2439H54.7959C56.6016 13.2161 58.3943 13.5193 60.0639 14.1347C61.7334 14.7502 63.2444 15.6649 64.5032 16.8224C65.7949 17.9395 66.8165 19.2815 67.505 20.7655C68.1935 22.2496 68.5343 23.8441 68.5062 25.4505C68.5003 27.7169 67.7248 29.9284 66.2823 31.7923C64.8652 33.7176 62.8632 35.2418 60.5112 36.1859L69.6404 50.1021L60.9228 50.0226ZM46.4675 19.9834V30.8679H54.8293C55.576 30.8723 56.3146 30.7314 56.9943 30.455C57.674 30.1787 58.2784 29.7735 58.7654 29.2675C59.8553 28.2188 60.4455 26.8319 60.4111 25.4008C60.4492 23.975 59.8581 22.5931 58.7654 21.5539C58.2734 21.0554 57.6675 20.6572 56.9883 20.3863C56.3092 20.1153 55.573 19.9779 54.8293 19.9834H46.4675Z" fill="white"/>
<path d="M101.542 50.0247L98.9292 43.3946H82.0054L79.5256 50.0247H70.7524L85.2078 13.2461H95.2819L109.815 50.0744L101.542 50.0247ZM84.6518 36.6055H96.2493L90.3004 21.5561L84.6518 36.6055Z" fill="white"/>
<path d="M137.625 13.1953H145.753V50.0237H139.571L121.913 27.5092V50.0237H113.785V13.245H119.956L137.625 35.68V13.1953Z" fill="white"/>
<path d="M169.759 13.1957C172.411 13.1311 175.049 13.5689 177.498 14.4803C179.947 15.3917 182.153 16.7561 183.97 18.4839C185.836 20.2251 187.297 22.2792 188.271 24.5277C189.244 26.7763 189.71 29.1748 189.641 31.585C189.711 33.9969 189.246 36.3973 188.273 38.6476C187.299 40.898 185.837 42.9537 183.97 44.6961C182.16 46.4224 179.962 47.7875 177.521 48.7022C175.08 49.6169 172.45 50.0606 169.804 50.0041H153.447V13.2255L169.759 13.1957ZM169.759 43.0858C171.383 43.1395 173.001 42.8826 174.504 42.3323C176.007 41.782 177.362 40.951 178.477 39.895C180.766 37.6319 181.965 34.6531 181.813 31.6049C181.963 28.5599 180.765 25.5848 178.477 23.3247C177.362 22.2687 176.007 21.4377 174.504 20.8874C173.001 20.3372 171.383 20.0803 169.759 20.1339H161.52V43.0858H169.759Z" fill="white"/>
<path d="M208.022 50.7597C204.395 50.8694 200.813 50.0187 197.726 48.3144C194.99 46.7458 192.92 44.4052 191.843 41.6645L198.782 38.0264C200.39 41.7837 203.552 43.6624 208.267 43.6624C210.024 43.7853 211.779 43.3983 213.271 42.5591C213.765 42.2405 214.168 41.8208 214.445 41.3349C214.721 40.849 214.864 40.3111 214.861 39.7659C214.866 39.1584 214.688 38.5608 214.346 38.036C214.003 37.5112 213.509 37.0786 212.915 36.7838C210.716 35.7466 208.382 34.9585 205.965 34.4379C204.375 34.0278 202.811 33.5366 201.284 32.9668C199.934 32.427 198.651 31.7606 197.459 30.9788C196.205 30.1735 195.203 29.0958 194.545 27.8476C193.849 26.4612 193.507 24.9535 193.545 23.4342C193.48 21.9243 193.805 20.4215 194.496 19.0424C195.186 17.6632 196.223 16.4449 197.525 15.482C200.202 13.4833 203.601 12.4233 207.088 12.5C210.196 12.4453 213.254 13.2055 215.884 14.6868C218.453 16.1799 220.503 18.2876 221.799 20.7702L214.972 24.289C213.326 21.138 210.691 19.5575 207.088 19.5575C205.673 19.4748 204.269 19.8254 203.107 20.5515C202.651 20.8616 202.284 21.2636 202.034 21.7248C201.785 22.1861 201.661 22.6934 201.673 23.2055C201.661 23.7584 201.802 24.3053 202.083 24.7977C202.365 25.2901 202.777 25.7129 203.285 26.0286C205.215 27.0802 207.31 27.8676 209.501 28.3645L212.359 29.1796C213.004 29.3784 213.882 29.6766 215.005 30.0742C215.903 30.386 216.77 30.7651 217.596 31.2074C218.325 31.6424 219.023 32.1172 219.686 32.6288C220.392 33.1497 220.997 33.771 221.477 34.4678C221.95 35.19 222.324 35.961 222.589 36.7639C222.895 37.7102 223.045 38.6914 223.033 39.6764C223.102 41.2244 222.762 42.7651 222.042 44.1741C221.321 45.5831 220.24 46.8209 218.886 47.7876C215.765 49.8843 211.921 50.936 208.022 50.7597Z" fill="white"/>
<path d="M254.023 13.1976V20.1557H242.904V50.0458H234.775V20.1359H223.656V13.1777L254.023 13.1976Z" fill="white"/>
<path d="M290.963 45.2154C288.988 47.0146 286.623 48.4346 284.014 49.3883C281.404 50.342 278.603 50.8095 275.784 50.762C272.967 50.811 270.168 50.3443 267.56 49.3904C264.951 48.4365 262.589 47.0157 260.618 45.2154C258.599 43.446 257.007 41.3257 255.94 38.9854C254.873 36.645 254.353 34.134 254.413 31.6072C254.353 29.082 254.873 26.5726 255.94 24.2338C257.007 21.8951 258.599 19.7766 260.618 18.0091C262.588 16.2069 264.95 14.7843 267.558 13.8287C270.167 12.8731 272.966 12.4048 275.784 12.4525C278.604 12.4069 281.405 12.8762 284.015 13.8316C286.624 14.787 288.989 16.2085 290.963 18.0091C292.993 19.7703 294.596 21.8868 295.672 24.2263C296.747 26.5659 297.271 29.0785 297.212 31.6072C297.271 34.1375 296.747 36.6516 295.672 38.9928C294.597 41.3341 292.994 43.4522 290.963 45.2154ZM266.3 40.2453C267.539 41.3582 269.02 42.2336 270.651 42.8181C272.281 43.4025 274.028 43.6838 275.784 43.6448C277.539 43.6837 279.284 43.4022 280.913 42.8177C282.542 42.2332 284.021 41.3579 285.258 40.2453C286.526 39.1136 287.519 37.7611 288.177 36.2717C288.835 34.7823 289.144 33.1878 289.083 31.5874C289.14 29.9843 288.83 28.3878 288.173 26.8956C287.515 25.4034 286.523 24.047 285.258 22.9096C284.023 21.7924 282.546 20.9128 280.917 20.3248C279.287 19.7368 277.541 19.4527 275.784 19.4902C274.026 19.4526 272.278 19.7364 270.647 20.3244C269.016 20.9125 267.537 21.7922 266.3 22.9096C265.035 24.047 264.043 25.4034 263.385 26.8956C262.728 28.3878 262.418 29.9843 262.474 31.5874C262.405 33.1883 262.705 34.7848 263.356 36.2777C264.006 37.7705 264.993 39.1278 266.255 40.2651L266.3 40.2453Z" fill="white"/>
<path d="M325.521 50.0228L317.193 37.2397H311.044V50.0228H302.949V13.2441H319.428C321.235 13.2149 323.03 13.5174 324.702 14.1329C326.373 14.7484 327.886 15.6638 329.146 16.8226C330.438 17.9397 331.46 19.2817 332.148 20.7657C332.837 22.2497 333.177 23.8442 333.149 25.4506C333.138 27.7163 332.363 29.9264 330.925 31.7925C329.505 33.7156 327.504 35.2391 325.154 36.186L334.283 50.1023L325.521 50.0228ZM311.066 19.9836V30.868H319.417C320.165 30.8732 320.906 30.7327 321.587 30.4564C322.269 30.18 322.875 29.7744 323.364 29.2677C324.454 28.219 325.044 26.8321 325.01 25.4009C325.048 23.9752 324.457 22.5933 323.364 21.5541C322.87 21.0548 322.262 20.6562 321.581 20.3853C320.9 20.1143 320.162 19.9773 319.417 19.9836H311.066Z" fill="white"/>
<path d="M370.5 13.1953L356.368 35.6601V50.0237H348.306V35.6601L334.24 13.1953H343.413L352.309 28.5231L361.282 13.1953H370.5Z" fill="white"/>
</g>
<path d="M384.617 15.7994H381.888L381.863 14.1968H384.404C384.755 14.1885 385.08 14.1259 385.381 14.009C385.69 13.8922 385.936 13.7252 386.12 13.5082C386.312 13.2829 386.408 13.0074 386.408 12.6819C386.408 12.2646 386.337 11.9349 386.195 11.6928C386.053 11.4508 385.815 11.2755 385.481 11.167C385.156 11.0585 384.709 11.0042 384.141 11.0042H382.439V20.0312H380.673V9.41417H384.141C384.968 9.41417 385.681 9.53102 386.282 9.76473C386.883 9.99844 387.347 10.3532 387.672 10.8289C387.998 11.2963 388.16 11.889 388.16 12.6068C388.16 13.0575 388.056 13.4623 387.847 13.8212C387.639 14.1801 387.334 14.489 386.933 14.7477C386.533 15.0064 386.045 15.2151 385.469 15.3737C385.444 15.3737 385.414 15.4029 385.381 15.4613C385.356 15.5114 385.331 15.5365 385.306 15.5365C385.164 15.6199 385.072 15.6825 385.03 15.7243C384.997 15.7577 384.959 15.7785 384.918 15.7869C384.884 15.7952 384.784 15.7994 384.617 15.7994ZM384.492 15.7994L384.742 14.6726C386.036 14.6726 386.917 14.948 387.384 15.4989C387.86 16.0414 388.098 16.73 388.098 17.5647V18.2408C388.098 18.5496 388.115 18.8459 388.148 19.1297C388.181 19.4052 388.236 19.6389 388.311 19.8308V20.0312H386.495C386.412 19.8141 386.362 19.5053 386.345 19.1047C386.337 18.704 386.332 18.4119 386.332 18.2283V17.5772C386.332 16.9679 386.191 16.5214 385.907 16.2376C385.631 15.9455 385.16 15.7994 384.492 15.7994ZM376.842 14.8729C376.842 15.983 377.034 17.018 377.418 17.9779C377.802 18.9377 378.336 19.7766 379.021 20.4944C379.705 21.2122 380.498 21.7714 381.4 22.1721C382.301 22.5727 383.265 22.773 384.292 22.773C385.318 22.773 386.278 22.5727 387.171 22.1721C388.073 21.7714 388.862 21.2122 389.538 20.4944C390.222 19.7766 390.756 18.9377 391.14 17.9779C391.524 17.018 391.716 15.983 391.716 14.8729C391.716 13.7544 391.524 12.7195 391.14 11.7679C390.756 10.8164 390.222 9.98592 389.538 9.27645C388.862 8.55864 388.073 8.00358 387.171 7.61129C386.278 7.21065 385.318 7.01033 384.292 7.01033C383.265 7.01033 382.301 7.21065 381.4 7.61129C380.498 8.00358 379.705 8.55864 379.021 9.27645C378.336 9.98592 377.802 10.8164 377.418 11.7679C377.034 12.7195 376.842 13.7544 376.842 14.8729ZM375.403 14.8729C375.403 13.5458 375.632 12.3146 376.091 11.1795C376.55 10.0443 377.189 9.05526 378.007 8.21225C378.825 7.36089 379.768 6.7015 380.836 6.23409C381.913 5.75832 383.065 5.52044 384.292 5.52044C385.519 5.52044 386.666 5.75832 387.735 6.23409C388.811 6.7015 389.755 7.36089 390.564 8.21225C391.382 9.05526 392.021 10.0443 392.48 11.1795C392.939 12.3146 393.168 13.5458 393.168 14.8729C393.168 16.2 392.939 17.4312 392.48 18.5663C392.021 19.7015 391.382 20.6989 390.564 21.5586C389.755 22.41 388.811 23.0735 387.735 23.5493C386.666 24.025 385.519 24.2629 384.292 24.2629C383.065 24.2629 381.913 24.025 380.836 23.5493C379.768 23.0735 378.825 22.41 378.007 21.5586C377.189 20.6989 376.55 19.7015 376.091 18.5663C375.632 17.4312 375.403 16.2 375.403 14.8729Z" fill="white"/>
<defs>
<clipPath id="clip0_606_1271">
<rect width="367.788" height="38.3094" fill="white" transform="translate(0 12.4512)"/>
</clipPath>
</defs>
</svg>
