<svg width="39" height="34" viewBox="0 0 39 34" fill="none" xmlns="http://www.w3.org/2000/svg">
<path d="M37.582 13.4297C37.5703 13.4883 37.5527 13.5469 37.5293 13.6055C37.5176 13.6523 37.5059 13.6992 37.4941 13.7461C36.9551 15.4219 36.1113 16.9219 34.9629 18.2461C35.3848 19.043 35.5312 19.8809 35.4023 20.7598C35.2852 21.6504 34.916 22.418 34.2949 23.0625C33.8262 23.5898 33.252 23.9531 32.5723 24.1523C32.584 24.1641 32.5898 24.1816 32.5898 24.2051C32.5898 24.2168 32.5898 24.2344 32.5898 24.2578C32.6484 24.8672 32.5664 25.4648 32.3438 26.0508C32.1094 26.6367 31.7578 27.1348 31.2891 27.5449C30.4102 28.3184 29.3848 28.6992 28.2129 28.6875C27.8848 29.6133 27.293 30.3164 26.4375 30.7969C25.4648 31.3945 24.4219 31.5762 23.3086 31.3418C23.2969 31.3652 23.2852 31.3828 23.2734 31.3945C23.2617 31.418 23.25 31.4414 23.2383 31.4648C22.957 31.9688 22.582 32.3848 22.1133 32.7129C21.6445 33.0527 21.123 33.2754 20.5488 33.3809C19.4473 33.5918 18.4102 33.416 17.4375 32.8535C16.793 33.2168 16.1016 33.4043 15.3633 33.416C14.332 33.4043 13.4531 33.0352 12.7266 32.3086C12.1406 31.7695 11.7363 31.1133 11.5137 30.3398C11.1035 30.293 10.7109 30.1816 10.3359 30.0059C9.86719 29.7832 9.45703 29.4844 9.10547 29.1094C8.625 28.6172 8.28516 28.0488 8.08594 27.4043C7.125 27.252 6.26953 26.8477 5.51953 26.1914C5.10938 25.8398 4.79883 25.4062 4.58789 24.8906C4.37695 24.3867 4.28906 23.8652 4.32422 23.3262C3.31641 23.0566 2.51953 22.5 1.93359 21.6562C1.78125 21.4453 1.65234 21.2227 1.54688 20.9883C1.53516 20.9531 1.52344 20.918 1.51172 20.8828C1.5 20.8359 1.48828 20.7949 1.47656 20.7598C1.41797 20.6074 1.36523 20.4551 1.31836 20.3027C1.30664 20.2441 1.29492 20.1914 1.2832 20.1445C1.2832 20.0977 1.2832 20.0508 1.2832 20.0039C1.25977 19.8633 1.24219 19.7168 1.23047 19.5645C1.23047 19.5176 1.23047 19.4707 1.23047 19.4238C1.23047 19.3652 1.23047 19.3066 1.23047 19.248C1.24219 19.0723 1.25391 18.9375 1.26562 18.8438C1.27734 18.7734 1.29492 18.668 1.31836 18.5273C1.36523 18.3516 1.40039 18.2168 1.42383 18.123C1.44727 18.0527 1.48242 17.9531 1.5293 17.8242C1.58789 17.6836 1.64648 17.5605 1.70508 17.4551C1.7168 17.4316 1.72852 17.4082 1.74023 17.3848C1.75195 17.3613 1.76367 17.3379 1.77539 17.3145C0.591797 15.4863 0.0175781 13.4824 0.0527344 11.3027C0.0761719 9.13477 0.691406 7.14844 1.89844 5.34375L1.93359 5.29102L1.98633 5.2207C2.90039 3.89648 4.04297 2.81836 5.41406 1.98633C7.91016 0.662109 10.5469 0.240234 13.3242 0.720703H13.3594L19.0371 1.63477C21.6621 1.06055 24.3164 0.697266 27 0.544922H27.1582C27.2168 0.544922 27.2812 0.544922 27.3516 0.544922C27.4219 0.533203 27.4922 0.527344 27.5625 0.527344H27.6152C29.1973 0.515625 30.6914 0.861328 32.0977 1.56445C33.5156 2.26758 34.6934 3.25195 35.6309 4.51758C36.6504 5.6543 37.3477 6.9668 37.7227 8.45508C38.0859 9.93164 38.0859 11.4141 37.7227 12.9023C37.7227 12.9141 37.7168 12.9316 37.7051 12.9551C37.7051 12.9668 37.7051 12.9785 37.7051 12.9902C37.6934 13.0605 37.6758 13.1367 37.6523 13.2188C37.6289 13.2891 37.6055 13.3594 37.582 13.4297ZM35.4023 11.2852L35.4199 11.2324C35.4199 11.1387 35.4199 11.0508 35.4199 10.9688C35.4316 10.875 35.4375 10.7812 35.4375 10.6875C35.4375 10.6289 35.4316 10.5703 35.4199 10.5117C35.4199 10.4531 35.4199 10.3945 35.4199 10.3359C35.4199 10.2422 35.4141 10.1367 35.4023 10.0195C35.3789 9.79688 35.3496 9.58594 35.3145 9.38672L35.2969 9.33398C35.0273 8.15039 34.4883 7.10156 33.6797 6.1875C32.7773 5.0625 31.6699 4.19531 30.3574 3.58594C29.4785 3.22266 28.5586 3.05273 27.5977 3.07617C27.5391 3.07617 27.4746 3.07617 27.4043 3.07617C27.334 3.07617 27.2637 3.07617 27.1934 3.07617H27.0352C22.8867 3.31055 18.8555 4.11328 14.9414 5.48438C14.5195 5.61328 14.1973 5.87109 13.9746 6.25781C13.8691 6.60938 13.8926 6.94922 14.0449 7.27734C14.1621 7.54687 14.3848 7.79883 14.7129 8.0332C15.041 8.26758 15.3691 8.32031 15.6973 8.19141C16.5527 7.875 17.4141 7.57617 18.2812 7.29492C19.1484 7.00195 19.7871 6.79102 20.1973 6.66211C20.4199 6.5918 20.6484 6.5625 20.8828 6.57422C21.6797 6.57422 22.3594 6.84961 22.9219 7.40039C23.0391 7.50586 23.4434 7.86914 24.1348 8.49023C24.8379 9.09961 25.6992 9.85547 26.7188 10.7578C27.75 11.6602 28.8281 12.6094 29.9531 13.6055C31.0898 14.5898 32.1562 15.5156 33.1523 16.3828C33.9258 15.4453 34.5234 14.4082 34.9453 13.2715L34.998 13.1484C35.209 12.5508 35.3438 11.9297 35.4023 11.2852ZM3.79688 19.7227C3.83203 19.8867 3.89648 20.0391 3.99023 20.1797C4.13086 20.4023 4.3125 20.5723 4.53516 20.6895C4.76953 20.8184 5.01562 20.8828 5.27344 20.8828L9.01758 17.2266C9.06445 17.0859 9.07617 16.9336 9.05273 16.7695C9.0293 16.6055 8.97656 16.459 8.89453 16.3301C8.76562 16.1777 8.61328 16.0488 8.4375 15.9434C8.26172 15.8379 8.07422 15.7734 7.875 15.75C7.67578 15.7266 7.48242 15.7441 7.29492 15.8027C7.0957 15.8496 6.91406 15.9375 6.75 16.0664L4.37695 18.0703L4.35938 18.0879C4.25391 18.1934 4.16602 18.3047 4.0957 18.4219C4.03711 18.4922 3.99023 18.5625 3.95508 18.6328C3.9082 18.7383 3.86719 18.8496 3.83203 18.9668C3.82031 19.0371 3.80273 19.1074 3.7793 19.1777C3.76758 19.3066 3.76758 19.4297 3.7793 19.5469C3.7793 19.6289 3.78516 19.6875 3.79688 19.7227ZM6.97852 22.7461C6.86133 22.9922 6.82031 23.25 6.85547 23.5195C6.89062 23.7891 6.99023 24.0293 7.1543 24.2402C7.35352 24.4512 7.58789 24.6152 7.85742 24.7324C8.13867 24.8379 8.42578 24.8848 8.71875 24.873L12.8672 20.8301C12.8672 20.8066 12.873 20.7715 12.8848 20.7246C13.0371 20.4668 13.1016 20.1855 13.0781 19.8809C13.0195 19.5879 12.8789 19.3418 12.6562 19.1426C12.4219 18.8848 12.1406 18.709 11.8125 18.6152C11.5547 18.5801 11.3027 18.6211 11.0566 18.7383L11.0742 18.7559L6.97852 22.7461ZM10.5117 26.666C10.5938 26.9355 10.7344 27.1641 10.9336 27.3516C11.1094 27.5391 11.3203 27.6738 11.5664 27.7559C11.8008 27.8379 12.0469 27.8555 12.3047 27.8086L16.0137 24.2051C16.0371 24.0645 16.043 23.918 16.0312 23.7656C15.9492 23.4258 15.7734 23.1328 15.5039 22.8867C15.3047 22.6758 15.0645 22.5469 14.7832 22.5L10.5117 26.666ZM14.4844 30.4805C14.7305 30.7266 15.0352 30.8555 15.3984 30.8672C15.8906 30.8438 16.3184 30.6621 16.6816 30.3223C16.7051 30.3105 16.7227 30.2988 16.7344 30.2871C16.7578 30.2871 16.7754 30.2812 16.7871 30.2695L17.7363 29.1621C18.0879 28.752 18.3457 28.2891 18.5098 27.7734C18.5566 27.6094 18.5566 27.4453 18.5098 27.2812C18.4277 27.0586 18.2988 26.877 18.123 26.7363C17.9238 26.5488 17.7012 26.4141 17.4551 26.332L13.957 29.7422C14.0742 30.0234 14.25 30.2695 14.4844 30.4805ZM20.1445 30.8672C20.3555 30.8203 20.5371 30.7324 20.6895 30.6035C20.8535 30.4746 20.9824 30.3223 21.0762 30.1465C21.1348 30.0293 21.1875 29.9121 21.2344 29.7949L20.6719 29.1973C20.4141 29.748 20.0918 30.2637 19.7051 30.7441L19.6875 30.7793L19.582 30.8848C19.7812 30.8965 19.9688 30.8906 20.1445 30.8672ZM28.2656 26.1387C28.793 26.1504 29.2559 25.9688 29.6543 25.5938C29.8184 25.4414 29.9355 25.2598 30.0059 25.0488C30.0762 24.8379 30.0938 24.627 30.0586 24.416C30.0469 24.1934 30.0117 23.9766 29.9531 23.7656C29.9297 23.6953 29.9062 23.6309 29.8828 23.5723V23.5371C29.8711 23.502 29.8594 23.4609 29.8477 23.4141L27.7383 21.2871C27.4922 21.041 27.375 20.7422 27.3867 20.3906C27.3867 20.0391 27.5098 19.7402 27.7559 19.4941C28.0137 19.248 28.3184 19.125 28.6699 19.125C29.0215 19.125 29.3203 19.2539 29.5664 19.5117L31.7637 21.7441C32.0332 21.6855 32.2559 21.5566 32.4316 21.3574C32.7012 21.0879 32.8594 20.7598 32.9062 20.373C32.9531 19.9863 32.8711 19.6289 32.6602 19.3008L32.4141 19.0898C31.793 18.5391 31.0312 17.8711 30.1289 17.0859C29.2266 16.3008 28.2832 15.4805 27.2988 14.625C26.3145 13.7578 25.3828 12.9375 24.5039 12.1641C23.625 11.3906 22.8809 10.7402 22.2715 10.2129C21.6738 9.67383 21.3105 9.3457 21.1816 9.22852C21.1465 9.19336 21.1055 9.16406 21.0586 9.14062C21 9.11719 20.9414 9.10547 20.8828 9.10547C20.5312 9.21094 19.9336 9.4043 19.0898 9.68555C18.2578 9.9668 17.4199 10.2598 16.5762 10.5645C15.5918 10.8691 14.6367 10.7988 13.7109 10.3535C12.7852 9.91992 12.123 9.22852 11.7246 8.2793C11.5137 7.79883 11.3965 7.30078 11.373 6.78516C11.3613 6.26953 11.4492 5.77148 11.6367 5.29102C12.0352 4.38867 12.6855 3.73242 13.5879 3.32227L13.0078 3.23438C10.793 2.83594 8.68359 3.15234 6.67969 4.18359C5.61328 4.83984 4.72852 5.68945 4.02539 6.73242L3.99023 6.78516C3.12305 8.0625 2.6543 9.48047 2.58398 11.0391C2.51367 12.5859 2.85352 14.0449 3.60352 15.416L5.16797 14.0977L5.20312 14.0625C5.63672 13.7227 6.11133 13.4883 6.62695 13.3594C7.14258 13.207 7.66992 13.166 8.20898 13.2363C8.73633 13.3066 9.23438 13.4766 9.70312 13.7461C10.1719 14.0156 10.5703 14.3613 10.8984 14.7832C11.1914 15.1816 11.3906 15.6152 11.4961 16.084C11.7773 16.0723 12.0527 16.0957 12.3223 16.1543C13.1426 16.3418 13.8457 16.7402 14.4316 17.3496C15.0879 17.959 15.4746 18.7031 15.5918 19.582C15.6152 19.7461 15.6211 19.916 15.6094 20.0918C16.2539 20.2793 16.8164 20.6133 17.2969 21.0938C17.9531 21.7148 18.3633 22.4648 18.5273 23.3438C18.5625 23.5781 18.5801 23.8125 18.5801 24.0469C19.0371 24.2461 19.4531 24.5156 19.8281 24.8555C20.3555 25.3242 20.7246 25.8926 20.9355 26.5605C20.9707 26.6895 21 26.8125 21.0234 26.9297C21.2578 26.8594 21.4922 26.8535 21.7266 26.9121C21.9609 26.9707 22.1602 27.0879 22.3242 27.2637L23.8535 28.8809C24.334 28.9629 24.7793 28.8691 25.1895 28.5996C25.5293 28.4121 25.752 28.1309 25.8574 27.7559C25.9043 27.627 25.9336 27.498 25.9453 27.3691L24.1172 25.3477C24 25.2188 23.9121 25.0781 23.8535 24.9258C23.7949 24.7617 23.7715 24.5977 23.7832 24.4336C23.7949 24.2578 23.8359 24.0938 23.9062 23.9414C23.9766 23.7891 24.0762 23.6543 24.2051 23.5371C24.3223 23.4199 24.4629 23.3379 24.627 23.291C24.791 23.2324 24.9551 23.209 25.1191 23.2207C25.2949 23.2324 25.459 23.2734 25.6113 23.3438C25.7637 23.4141 25.8926 23.5137 25.998 23.6426L28.2656 26.1387Z" fill="#E75921"/>
</svg>
